<svg id="Layer_1" data-name="Layer 1" xmlns="http://www.w3.org/2000/svg" xmlns:xlink="http://www.w3.org/1999/xlink" viewBox="0 0 374.35 80.78"><defs><style>.cls-1{fill:none;}.cls-2{fill:#c02b5d;}.cls-3{clip-path:url(#clip-path);}.cls-4{fill:url(#linear-gradient);}</style><clipPath id="clip-path"><path class="cls-1" d="M232.94,39.13s1.52,5.06,2,6.41-2.84-4.68-2.84-4.68c-.34,10.59,10.24,14.33,10.24,14.33-3.5-6.2,4.84-11.32-9.4-16.06Zm2.62-.85h0s3.62.09,4.61.06-3.68.93-3.68.93c6.77,2.66,11.62-3.92,11.62-3.92a5.88,5.88,0,0,1-4-.78,6.43,6.43,0,0,0-2.76-.88c-1.49,0-3.24,1-5.77,4.59m-20.82-8.86c5.84,3.84.67,12.38,15.42,9.79h0s-3.58-3.77-4.6-4.74,4.58,2.8,4.58,2.8c-3.19-7-10-8-13.4-8a14.53,14.53,0,0,0-2,.12M229,32.86h0s-.5-2.35-.66-3,1.11,2.23,1.11,2.23c.56-4.77-4.08-6.91-4.08-6.91,1.34,2.95-2.63,4.91,3.63,7.66m2.12,3.64s1.67-6.72,1.56-5.29-.31,6.74-.31,6.74h0c12.55-8.5,3.2-11.14,5-18.09,0,0-9.26,6.52-6.26,16.64"/></clipPath><linearGradient id="linear-gradient" x1="-2807.03" y1="1101.59" x2="-2806.92" y2="1101.59" gradientTransform="matrix(-194.17, 168.28, 168.28, 194.17, -730176.81, 258501.61)" gradientUnits="userSpaceOnUse"><stop offset="0" stop-color="#f8df14"/><stop offset="0.29" stop-color="#f29621"/><stop offset="0.5" stop-color="#d54f2d"/><stop offset="0.65" stop-color="#c93b7e"/><stop offset="0.86" stop-color="#7c4586"/><stop offset="1" stop-color="#5f4287"/></linearGradient></defs><path d="M48.24,48.23V61.47H45.81V56.1H40.47v5.37h-2.4V48.23h2.4V53.6h5.34V48.23Z"/><path d="M54.5,59.46a6.9,6.9,0,0,1-1.71-4.67,7.16,7.16,0,0,1,1.71-4.68,5.9,5.9,0,0,1,4.36-2,5.74,5.74,0,0,1,4.3,2A6.88,6.88,0,0,1,65,54.79a6.74,6.74,0,0,1-1.8,4.67,5.6,5.6,0,0,1-4.3,2A5.75,5.75,0,0,1,54.5,59.46Zm.72-4.67a3.67,3.67,0,1,0,3.64-4.09A3.88,3.88,0,0,0,55.22,54.79Z"/><path d="M86.86,48.26,82.31,61.41H80l-2.5-7.12c-.79,2.27-1.74,4.88-2.5,7.12h-2.3L68.12,48.26h2.59l3.13,9.16c.79-2.31,1.77-4.94,2.52-7.18h2.28l2.5,7.15c1-3,2.14-6.16,3.19-9.13Z"/><path d="M270.52,49.2l-4.61,13.27h-2.34L261,55.26c-.79,2.3-1.77,4.94-2.53,7.21h-2.33L251.56,49.2h2.63l3.16,9.25c.79-2.34,1.8-5,2.55-7.28h2.31l2.53,7.25c1-3.06,2.18-6.23,3.22-9.22Z"/><path d="M274.85,60.53a7,7,0,0,1-1.74-4.75A7.2,7.2,0,0,1,274.85,51a6,6,0,0,1,4.39-1.94A5.9,5.9,0,0,1,283.61,51a7.15,7.15,0,0,1,0,9.49,5.72,5.72,0,0,1-4.37,2A5.83,5.83,0,0,1,274.85,60.53Zm.7-4.75a3.73,3.73,0,1,0,3.69-4.15A4,4,0,0,0,275.55,55.78Z"/><path d="M291.85,62.47h-2.46V49.13h2.43a7,7,0,0,1,5,1.65,4.18,4.18,0,0,1,1.23,3,4.46,4.46,0,0,1-2.14,3.53L300,62.47h-3.2l-3.35-4.12a11.14,11.14,0,0,1-1.61.23Zm0-6.42a6.67,6.67,0,0,0,2.59-.86,1.79,1.79,0,0,0,1.11-1.48,1.44,1.44,0,0,0-.47-1.06,4.81,4.81,0,0,0-3.23-1Z"/><path d="M304.08,62.47V49.2h2.47v5.33l5.12-5.33h3.47L309,55.59l7,6.88h-3.47l-5.25-5.1-.69.75v4.35Z"/><path d="M319.41,60.79v0l-1-.85L320.13,58l.95.89a4.3,4.3,0,0,0,3,1.22,3.31,3.31,0,0,0,1.33-.29,1.56,1.56,0,0,0,.89-.93v0a2.22,2.22,0,0,0,.06-.43,1.35,1.35,0,0,0-.09-.33,4,4,0,0,0-2-1.22,1.59,1.59,0,0,1-.47-.17l-.35-.13-.53-.16v0a6.73,6.73,0,0,1-2.06-.86l0,0a3.62,3.62,0,0,1-1.67-3.07,3.32,3.32,0,0,1,.76-2.14,5,5,0,0,1,3.63-1.64,6.63,6.63,0,0,1,2.56.42,7.1,7.1,0,0,1,1.64,1.06,10.87,10.87,0,0,1,.92.82l-1.61,1.95-.79-.7a3.5,3.5,0,0,0-2.56-1,2.63,2.63,0,0,0-1.9.69.81.81,0,0,0-.22.49c0,.83.79,1.09,2.25,1.52.28.06.56.19.88.29l.25.1v0a5.58,5.58,0,0,1,3.48,2.63,3.13,3.13,0,0,1,.31,1.42,4.16,4.16,0,0,1-.15,1.12v-.06a.15.15,0,0,0,0,.09,4.12,4.12,0,0,1-2.22,2.47,5.4,5.4,0,0,1-2.34.53A6.66,6.66,0,0,1,319.41,60.79Z"/><path d="M335.56,59v-.65a7.15,7.15,0,0,1,.75-4,5.84,5.84,0,0,1,1.27-1.12,2.77,2.77,0,0,0,.66-.43,5.15,5.15,0,0,0,.7-1,1.65,1.65,0,0,0,.19-1.06,1.41,1.41,0,0,0-.45-.89,1.53,1.53,0,0,0-1-.52,2.29,2.29,0,0,0-1.58.29,2.33,2.33,0,0,0-1,1.22v0L334.67,52l-2.27-.89.41-1.22A5,5,0,0,1,335,47.35a4.89,4.89,0,0,1,3.19-.53A3.76,3.76,0,0,1,340.36,48v0a4,4,0,0,1,1.23,2.44,4.68,4.68,0,0,1-.41,2.44,5.12,5.12,0,0,1-1.3,1.88,3.86,3.86,0,0,1-1,.72l0,0-.29.2a1.32,1.32,0,0,0-.38.36,4.94,4.94,0,0,0-.25,2.37V59Zm1.26,4.85a1.53,1.53,0,0,1-1.45-1.52,1.49,1.49,0,0,1,1.45-1.55,1.53,1.53,0,0,1,1.45,1.55A1.57,1.57,0,0,1,336.82,63.89Z"/><path class="cls-2" d="M102.05,49.57a1.11,1.11,0,0,1,.3-.79,1,1,0,0,1,.76-.32,1,1,0,0,1,.76.32,1.08,1.08,0,0,1,.31.79v.75a6.41,6.41,0,0,1,2-1.37,6.15,6.15,0,0,1,2.47-.49,1,1,0,0,1,.76.32,1.08,1.08,0,0,1,.31.79,1.06,1.06,0,0,1-.31.79,1,1,0,0,1-.76.32,4.17,4.17,0,0,0-1.75.38,4.57,4.57,0,0,0-1.44,1,4.9,4.9,0,0,0-1,1.5,4.67,4.67,0,0,0-.36,1.83v5.83a1.06,1.06,0,0,1-.31.79,1,1,0,0,1-.76.32,1,1,0,0,1-.76-.32,1.09,1.09,0,0,1-.3-.79Z"/><path class="cls-2" d="M116.38,56.51A5,5,0,0,0,117,58a4.52,4.52,0,0,0,1,1.14,5.07,5.07,0,0,0,1.3.75,4.31,4.31,0,0,0,1.52.27,4.21,4.21,0,0,0,1.76-.37,4.6,4.6,0,0,0,1.44-1,1.1,1.1,0,0,1,1.51,0,1.2,1.2,0,0,1,0,1.59,7,7,0,0,1-2.13,1.48,6.21,6.21,0,0,1-2.58.54,6.34,6.34,0,0,1-2.6-.54,6.54,6.54,0,0,1-2.11-1.48,7.21,7.21,0,0,1-1.43-7.62,6.9,6.9,0,0,1,1.43-2.21A6.57,6.57,0,0,1,118.17,49a6.53,6.53,0,0,1,5.2,0,6.68,6.68,0,0,1,2.11,1.49,6.9,6.9,0,0,1,1.43,2.21,7.13,7.13,0,0,1,.52,2.7,1.06,1.06,0,0,1-.31.79,1,1,0,0,1-.76.32Zm8.78-2.22a4.58,4.58,0,0,0-.6-1.44,4.34,4.34,0,0,0-1-1.14,4.59,4.59,0,0,0-1.29-.75,4.27,4.27,0,0,0-3,0,4.79,4.79,0,0,0-1.3.75,4.2,4.2,0,0,0-1,1.14,4.78,4.78,0,0,0-.58,1.44Z"/><path class="cls-2" d="M152.28,54.57a3.8,3.8,0,0,0-.3-1.51,3.73,3.73,0,0,0-.8-1.24A3.65,3.65,0,0,0,150,51a3.55,3.55,0,0,0-2.9,0,3.7,3.7,0,0,0-1.19.83,3.89,3.89,0,0,0-.8,1.24,4,4,0,0,0-.29,1.51v6.66a1.06,1.06,0,0,1-.31.79,1,1,0,0,1-.76.32A1,1,0,0,1,143,62a1.09,1.09,0,0,1-.3-.79V54.57a3.8,3.8,0,0,0-.3-1.51,3.87,3.87,0,0,0-.79-1.24,3.81,3.81,0,0,0-1.19-.83,3.55,3.55,0,0,0-2.9,0,3.81,3.81,0,0,0-1.19.83,4.07,4.07,0,0,0-.8,1.24,4,4,0,0,0-.29,1.51v6.66a1.06,1.06,0,0,1-.31.79,1.05,1.05,0,0,1-1.51,0,1.06,1.06,0,0,1-.31-.79V49.57a1.08,1.08,0,0,1,.31-.79,1.05,1.05,0,0,1,1.51,0,1.08,1.08,0,0,1,.31.79v.28a6.33,6.33,0,0,1,1.72-1,5.4,5.4,0,0,1,2-.38,5.49,5.49,0,0,1,2.74.71,5.93,5.93,0,0,1,2.05,1.9,6.11,6.11,0,0,1,2.05-1.9,5.52,5.52,0,0,1,2.75-.71,5.28,5.28,0,0,1,2.26.49,6,6,0,0,1,1.87,1.32,6.25,6.25,0,0,1,1.26,1.94,6.06,6.06,0,0,1,.47,2.36v6.66a1.1,1.1,0,0,1-.31.79,1,1,0,0,1-.76.32,1,1,0,0,1-.76-.32,1.09,1.09,0,0,1-.3-.79Z"/><path class="cls-2" d="M160.61,55.4V42.63a1.08,1.08,0,0,1,.31-.79,1,1,0,0,1,.76-.32,1,1,0,0,1,.76.32,1.11,1.11,0,0,1,.3.79v7.69a6.64,6.64,0,0,1,2-1.37,6.2,6.2,0,0,1,2.48-.49,6.34,6.34,0,0,1,2.6.54A6.68,6.68,0,0,1,172,50.49a6.9,6.9,0,0,1,1.43,2.21,7.3,7.3,0,0,1,0,5.41A7,7,0,0,1,172,60.32a6.65,6.65,0,0,1-2.11,1.48,6.59,6.59,0,0,1-5.08.06,6.67,6.67,0,0,1-2-1.38v.75a1.09,1.09,0,0,1-.3.79,1,1,0,0,1-.76.32,1,1,0,0,1-.76-.32,1.06,1.06,0,0,1-.31-.79Zm6.66,4.72a4.21,4.21,0,0,0,1.76-.37,4.6,4.6,0,0,0,1.44-1,4.92,4.92,0,0,0,1-1.49,4.75,4.75,0,0,0,.36-1.84,4.67,4.67,0,0,0-.36-1.83,5.09,5.09,0,0,0-1-1.5,4.57,4.57,0,0,0-1.44-1,4.27,4.27,0,0,0-3.52,0,4.57,4.57,0,0,0-1.44,1,5.09,5.09,0,0,0-1,1.5,4.67,4.67,0,0,0-.36,1.83,4.75,4.75,0,0,0,.36,1.84,4.92,4.92,0,0,0,1,1.49,4.6,4.6,0,0,0,1.44,1A4.21,4.21,0,0,0,167.27,60.12Z"/><path class="cls-2" d="M181.6,56.51a5.24,5.24,0,0,0,.58,1.45,4.52,4.52,0,0,0,1,1.14,5.07,5.07,0,0,0,1.3.75,4.31,4.31,0,0,0,1.52.27,4.21,4.21,0,0,0,1.76-.37,4.6,4.6,0,0,0,1.44-1,1.06,1.06,0,0,1,.76-.3,1.09,1.09,0,0,1,.76.3,1.23,1.23,0,0,1,0,1.59,7.22,7.22,0,0,1-2.13,1.48,6.48,6.48,0,0,1-5.18,0,6.59,6.59,0,0,1-2.12-1.48,7,7,0,0,1-1.43-2.21,7.3,7.3,0,0,1,0-5.41,6.9,6.9,0,0,1,1.43-2.21A6.61,6.61,0,0,1,183.4,49a6.26,6.26,0,0,1,2.59-.54,6.34,6.34,0,0,1,2.6.54,6.73,6.73,0,0,1,2.12,1.49,7,7,0,0,1,1.42,2.21,7,7,0,0,1,.52,2.7,1.06,1.06,0,0,1-.31.79,1,1,0,0,1-.76.32Zm8.79-2.22a5.1,5.1,0,0,0-.6-1.44A4.58,4.58,0,0,0,187.51,51a4.27,4.27,0,0,0-3,0,4.79,4.79,0,0,0-1.3.75,4.2,4.2,0,0,0-1,1.14,5.06,5.06,0,0,0-.58,1.44Z"/><path class="cls-2" d="M205,57l-4.85,5a.94.94,0,0,1-.74.33,1,1,0,0,1-.76-.32,1.06,1.06,0,0,1-.31-.79V42.63a1.08,1.08,0,0,1,.31-.79,1,1,0,0,1,.76-.32,1,1,0,0,1,.76.32,1.11,1.11,0,0,1,.3.79V58.54l9.38-9.75a.94.94,0,0,1,.74-.33,1,1,0,0,1,.75.33,1.06,1.06,0,0,1,.32.78,1,1,0,0,1-.32.78l-4.82,5,4.82,5.06a1.1,1.1,0,0,1,0,1.55,1,1,0,0,1-.75.33.94.94,0,0,1-.74-.33Z"/><path class="cls-2" d="M228.23,60.48a6.56,6.56,0,0,1-2,1.38,6.34,6.34,0,0,1-2.48.48,6.26,6.26,0,0,1-2.59-.54A6.59,6.59,0,0,1,219,60.32a7.27,7.27,0,0,1-1.43-7.62A7.07,7.07,0,0,1,219,50.49,6.61,6.61,0,0,1,221.11,49a6.51,6.51,0,0,1,5.19,0,6.73,6.73,0,0,1,2.12,1.49,6.87,6.87,0,0,1,1.42,2.21,7,7,0,0,1,.52,2.7v5.83a1.09,1.09,0,0,1-.3.79,1,1,0,0,1-.76.32,1,1,0,0,1-.76-.32,1.06,1.06,0,0,1-.31-.79Zm-4.53-.36a4.21,4.21,0,0,0,1.76-.37,4.6,4.6,0,0,0,1.44-1,4.79,4.79,0,0,0,1.33-3.33,4.67,4.67,0,0,0-.36-1.83,4.9,4.9,0,0,0-1-1.5,4.57,4.57,0,0,0-1.44-1,4.22,4.22,0,0,0-1.76-.38,4.17,4.17,0,0,0-1.75.38,4.46,4.46,0,0,0-1.44,1,4.9,4.9,0,0,0-1,1.5,4.67,4.67,0,0,0-.36,1.83,4.79,4.79,0,0,0,1.33,3.33,4.49,4.49,0,0,0,1.44,1A4.16,4.16,0,0,0,223.7,60.12Z"/><g class="cls-3"><polygon class="cls-4" points="264.88 40.04 229.05 72.41 197.97 35.02 233.8 2.65 264.88 40.04"/></g></svg>