<svg id="Layer_1" data-name="Layer 1" xmlns="http://www.w3.org/2000/svg" xmlns:xlink="http://www.w3.org/1999/xlink" viewBox="0 0 307.14 202.96"><defs><style>.cls-1,.cls-2,.cls-23{fill:#c02b5d;}.cls-1{opacity:0.1;}.cls-20,.cls-3{fill:#161129;}.cls-4{fill:#fafafa;}.cls-5{fill:#fff;}.cls-6{fill:url(#linear-gradient);}.cls-7{fill:url(#linear-gradient-2);}.cls-8{fill:url(#linear-gradient-3);}.cls-9{fill:url(#linear-gradient-4);}.cls-10{fill:url(#linear-gradient-5);}.cls-11{opacity:0.18;}.cls-12{fill:#e55a92;}.cls-13{opacity:0.55;}.cls-14{fill:#c4745d;}.cls-15{fill:url(#linear-gradient-6);}.cls-16{opacity:0.22;}.cls-17{fill:url(#linear-gradient-7);}.cls-18{fill:#864436;}.cls-19{opacity:0.8;}.cls-20{opacity:0.8;}.cls-21{fill:#c12c5d;}.cls-22{fill:none;stroke:#c02b5d;stroke-miterlimit:10;}.cls-23{fill-rule:evenodd;}</style><linearGradient id="linear-gradient" x1="120.64" y1="122.16" x2="142" y2="122.16" gradientUnits="userSpaceOnUse"><stop offset="0" stop-color="#f8df14"/><stop offset="0.29" stop-color="#f29621"/><stop offset="0.5" stop-color="#d54f2d"/><stop offset="0.65" stop-color="#c93b7e"/><stop offset="0.86" stop-color="#7c4586"/><stop offset="1" stop-color="#5f4287"/></linearGradient><linearGradient id="linear-gradient-2" x1="120.64" y1="129.22" x2="142" y2="129.22" xlink:href="#linear-gradient"/><linearGradient id="linear-gradient-3" x1="271.83" y1="137.79" x2="289.43" y2="139.51" xlink:href="#linear-gradient"/><linearGradient id="linear-gradient-4" x1="272.79" y1="127.91" x2="290.39" y2="129.62" xlink:href="#linear-gradient"/><linearGradient id="linear-gradient-5" x1="272.54" y1="130.5" x2="290.14" y2="132.21" xlink:href="#linear-gradient"/><linearGradient id="linear-gradient-6" x1="239.7" y1="137.31" x2="258.94" y2="138.41" xlink:href="#linear-gradient"/><linearGradient id="linear-gradient-7" x1="239.68" y1="137.54" x2="258.93" y2="138.64" xlink:href="#linear-gradient"/></defs><path class="cls-1" d="M136.82,102.87c0-1.83.94-3,2.29-3s2.28,1.13,2.28,3-.94,3-2.28,3S136.82,104.7,136.82,102.87Zm4.15,0c0-1.63-.76-2.57-1.86-2.57s-1.87.94-1.87,2.57.76,2.57,1.87,2.57S141,104.5,141,102.87Z"/><path class="cls-1" d="M153.36,100v5.84h-.43v-5.46H151.5V100Z"/><path class="cls-1" d="M164.41,102.87c0-1.83.94-3,2.29-3s2.29,1.13,2.29,3-1,3-2.29,3S164.41,104.7,164.41,102.87Zm4.15,0c0-1.63-.76-2.57-1.86-2.57s-1.86.94-1.86,2.57.76,2.57,1.86,2.57S168.56,104.5,168.56,102.87Z"/><path class="cls-1" d="M178.21,102.87c0-1.83.94-3,2.29-3s2.28,1.13,2.28,3-.94,3-2.28,3S178.21,104.7,178.21,102.87Zm4.15,0c0-1.63-.76-2.57-1.86-2.57s-1.87.94-1.87,2.57.76,2.57,1.87,2.57S182.36,104.5,182.36,102.87Z"/><path class="cls-1" d="M194.46,100v5.84H194v-5.46h-1.42V100Z"/><path class="cls-1" d="M205.8,102.87c0-1.83.94-3,2.29-3s2.29,1.13,2.29,3-.95,3-2.29,3S205.8,104.7,205.8,102.87Zm4.15,0c0-1.63-.76-2.57-1.86-2.57s-1.86.94-1.86,2.57.76,2.57,1.86,2.57S210,104.5,210,102.87Z"/><path class="cls-1" d="M219.6,102.87c0-1.83.94-3,2.29-3s2.28,1.13,2.28,3-.94,3-2.28,3S219.6,104.7,219.6,102.87Zm4.15,0c0-1.63-.76-2.57-1.86-2.57s-1.87.94-1.87,2.57.76,2.57,1.87,2.57S223.75,104.5,223.75,102.87Z"/><path class="cls-1" d="M136.82,75.93c0-1.83.94-3,2.29-3s2.28,1.13,2.28,3-.94,3-2.28,3S136.82,77.76,136.82,75.93Zm4.15,0c0-1.63-.76-2.57-1.86-2.57s-1.87.94-1.87,2.57.76,2.57,1.87,2.57S141,77.56,141,75.93Z"/><path class="cls-1" d="M153.36,73v5.84h-.43V73.39H151.5V73Z"/><path class="cls-1" d="M164.41,75.93c0-1.83.94-3,2.29-3s2.29,1.13,2.29,3-1,3-2.29,3S164.41,77.76,164.41,75.93Zm4.15,0c0-1.63-.76-2.57-1.86-2.57s-1.86.94-1.86,2.57.76,2.57,1.86,2.57S168.56,77.56,168.56,75.93Z"/><path class="cls-1" d="M178.21,75.93c0-1.83.94-3,2.29-3s2.28,1.13,2.28,3-.94,3-2.28,3S178.21,77.76,178.21,75.93Zm4.15,0c0-1.63-.76-2.57-1.86-2.57s-1.87.94-1.87,2.57.76,2.57,1.87,2.57S182.36,77.56,182.36,75.93Z"/><path class="cls-1" d="M194.46,73v5.84H194V73.39h-1.42V73Z"/><path class="cls-1" d="M205.8,75.93c0-1.83.94-3,2.29-3s2.29,1.13,2.29,3-.95,3-2.29,3S205.8,77.76,205.8,75.93Zm4.15,0c0-1.63-.76-2.57-1.86-2.57s-1.86.94-1.86,2.57.76,2.57,1.86,2.57S210,77.56,210,75.93Z"/><path class="cls-1" d="M219.6,75.93c0-1.83.94-3,2.29-3s2.28,1.13,2.28,3-.94,3-2.28,3S219.6,77.76,219.6,75.93Zm4.15,0c0-1.63-.76-2.57-1.86-2.57S220,74.3,220,75.93s.76,2.57,1.87,2.57S223.75,77.56,223.75,75.93Z"/><path class="cls-1" d="M136.82,89c0-1.83.94-3,2.29-3s2.28,1.13,2.28,3-.94,3-2.28,3S136.82,90.87,136.82,89ZM141,89c0-1.63-.76-2.57-1.86-2.57s-1.87.94-1.87,2.57.76,2.57,1.87,2.57S141,90.67,141,89Z"/><path class="cls-1" d="M150.61,89c0-1.83.95-3,2.29-3s2.29,1.13,2.29,3-.94,3-2.29,3S150.61,90.87,150.61,89Zm4.15,0c0-1.63-.76-2.57-1.86-2.57S151,87.41,151,89s.76,2.57,1.86,2.57S154.76,90.67,154.76,89Z"/><path class="cls-1" d="M164.41,89c0-1.83.94-3,2.29-3S169,87.21,169,89s-1,3-2.29,3S164.41,90.87,164.41,89Zm4.15,0c0-1.63-.76-2.57-1.86-2.57s-1.86.94-1.86,2.57.76,2.57,1.86,2.57S168.56,90.67,168.56,89Z"/><path class="cls-1" d="M181,86.12V92h-.43V86.5H179.1v-.38Z"/><path class="cls-1" d="M191.72,89.4c0-1.83.94-3,2.28-3s2.29,1.13,2.29,3-.94,3-2.29,3S191.72,91.23,191.72,89.4Zm4.15,0c0-1.63-.76-2.57-1.87-2.57s-1.86.94-1.86,2.57S192.9,92,194,92,195.87,91,195.87,89.4Z"/><path class="cls-1" d="M205.8,89c0-1.83.94-3,2.29-3s2.29,1.13,2.29,3-.95,3-2.29,3S205.8,90.87,205.8,89ZM210,89c0-1.63-.76-2.57-1.86-2.57s-1.86.94-1.86,2.57.76,2.57,1.86,2.57S210,90.67,210,89Z"/><path class="cls-1" d="M222.34,86.12V92h-.43V86.5h-1.42v-.38Z"/><path class="cls-1" d="M136.82,50.2c0-1.83.94-3,2.29-3s2.28,1.13,2.28,3-.94,3-2.28,3S136.82,52,136.82,50.2Zm4.15,0c0-1.63-.76-2.57-1.86-2.57s-1.87.94-1.87,2.57.76,2.57,1.87,2.57S141,51.83,141,50.2Z"/><path class="cls-1" d="M153.36,47.28v5.84h-.43V47.66H151.5v-.38Z"/><path class="cls-1" d="M164.41,50.2c0-1.83.94-3,2.29-3s2.29,1.13,2.29,3-1,3-2.29,3S164.41,52,164.41,50.2Zm4.15,0c0-1.63-.76-2.57-1.86-2.57s-1.86.94-1.86,2.57.76,2.57,1.86,2.57S168.56,51.83,168.56,50.2Z"/><path class="cls-1" d="M178.21,50.2c0-1.83.94-3,2.29-3s2.28,1.13,2.28,3-.94,3-2.28,3S178.21,52,178.21,50.2Zm4.15,0c0-1.63-.76-2.57-1.86-2.57s-1.87.94-1.87,2.57.76,2.57,1.87,2.57S182.36,51.83,182.36,50.2Z"/><path class="cls-1" d="M194.46,47.28v5.84H194V47.66h-1.42v-.38Z"/><path class="cls-1" d="M205.8,50.2c0-1.83.94-3,2.29-3s2.29,1.13,2.29,3-.95,3-2.29,3S205.8,52,205.8,50.2Zm4.15,0c0-1.63-.76-2.57-1.86-2.57s-1.86.94-1.86,2.57.76,2.57,1.86,2.57S210,51.83,210,50.2Z"/><path class="cls-1" d="M219.6,50.2c0-1.83.94-3,2.29-3s2.28,1.13,2.28,3-.94,3-2.28,3S219.6,52,219.6,50.2Zm4.15,0c0-1.63-.76-2.57-1.86-2.57S220,48.57,220,50.2s.76,2.57,1.87,2.57S223.75,51.83,223.75,50.2Z"/><path class="cls-1" d="M136.82,63.31c0-1.82.94-3,2.29-3s2.28,1.14,2.28,3-.94,3-2.28,3S136.82,65.14,136.82,63.31Zm4.15,0c0-1.62-.76-2.57-1.86-2.57s-1.87.95-1.87,2.57.76,2.58,1.87,2.58S141,64.94,141,63.31Z"/><path class="cls-1" d="M150.61,63.31c0-1.82.95-3,2.29-3s2.29,1.14,2.29,3-.94,3-2.29,3S150.61,65.14,150.61,63.31Zm4.15,0c0-1.62-.76-2.57-1.86-2.57s-1.86.95-1.86,2.57.76,2.58,1.86,2.58S154.76,64.94,154.76,63.31Z"/><path class="cls-1" d="M164.41,63.31c0-1.82.94-3,2.29-3s2.29,1.14,2.29,3-1,3-2.29,3S164.41,65.14,164.41,63.31Zm4.15,0c0-1.62-.76-2.57-1.86-2.57s-1.86.95-1.86,2.57.76,2.58,1.86,2.58S168.56,64.94,168.56,63.31Z"/><path class="cls-1" d="M181,60.39v5.85h-.43V60.78H179.1v-.39Z"/><path class="cls-1" d="M191.72,63.67c0-1.83.94-3,2.28-3s2.29,1.13,2.29,3-.94,3-2.29,3S191.72,65.5,191.72,63.67Zm4.15,0c0-1.63-.76-2.57-1.87-2.57s-1.86.94-1.86,2.57.76,2.58,1.86,2.58S195.87,65.3,195.87,63.67Z"/><path class="cls-1" d="M205.8,63.31c0-1.82.94-3,2.29-3s2.29,1.14,2.29,3-.95,3-2.29,3S205.8,65.14,205.8,63.31Zm4.15,0c0-1.62-.76-2.57-1.86-2.57s-1.86.95-1.86,2.57.76,2.58,1.86,2.58S210,64.94,210,63.31Z"/><path class="cls-1" d="M222.34,60.39v5.85h-.43V60.78h-1.42v-.39Z"/><path class="cls-1" d="M233.5,102.87c0-1.83.94-3,2.29-3s2.29,1.13,2.29,3-1,3-2.29,3S233.5,104.7,233.5,102.87Zm4.15,0c0-1.63-.76-2.57-1.86-2.57s-1.86.94-1.86,2.57.76,2.57,1.86,2.57S237.65,104.5,237.65,102.87Z"/><path class="cls-1" d="M247.3,102.87c0-1.83.94-3,2.29-3s2.28,1.13,2.28,3-.94,3-2.28,3S247.3,104.7,247.3,102.87Zm4.15,0c0-1.63-.76-2.57-1.86-2.57s-1.87.94-1.87,2.57.76,2.57,1.87,2.57S251.45,104.5,251.45,102.87Z"/><path class="cls-1" d="M263.55,100v5.84h-.43v-5.46H261.7V100Z"/><path class="cls-1" d="M274.89,102.87c0-1.83.94-3,2.29-3s2.29,1.13,2.29,3-1,3-2.29,3S274.89,104.7,274.89,102.87Zm4.15,0c0-1.63-.76-2.57-1.86-2.57s-1.86.94-1.86,2.57.76,2.57,1.86,2.57S279,104.5,279,102.87Z"/><path class="cls-1" d="M233.5,75.93c0-1.83.94-3,2.29-3s2.29,1.13,2.29,3-1,3-2.29,3S233.5,77.76,233.5,75.93Zm4.15,0c0-1.63-.76-2.57-1.86-2.57s-1.86.94-1.86,2.57.76,2.57,1.86,2.57S237.65,77.56,237.65,75.93Z"/><path class="cls-1" d="M247.3,75.93c0-1.83.94-3,2.29-3s2.28,1.13,2.28,3-.94,3-2.28,3S247.3,77.76,247.3,75.93Zm4.15,0c0-1.63-.76-2.57-1.86-2.57s-1.87.94-1.87,2.57.76,2.57,1.87,2.57S251.45,77.56,251.45,75.93Z"/><path class="cls-1" d="M263.55,73v5.84h-.43V73.39H261.7V73Z"/><path class="cls-1" d="M274.89,75.93c0-1.83.94-3,2.29-3s2.29,1.13,2.29,3-1,3-2.29,3S274.89,77.76,274.89,75.93Zm4.15,0c0-1.63-.76-2.57-1.86-2.57s-1.86.94-1.86,2.57.76,2.57,1.86,2.57S279,77.56,279,75.93Z"/><path class="cls-1" d="M233.5,89c0-1.83.94-3,2.29-3s2.29,1.13,2.29,3-1,3-2.29,3S233.5,90.87,233.5,89Zm4.15,0c0-1.63-.76-2.57-1.86-2.57s-1.86.94-1.86,2.57.76,2.57,1.86,2.57S237.65,90.67,237.65,89Z"/><path class="cls-1" d="M250,86.12V92h-.43V86.5h-1.42v-.38Z"/><path class="cls-1" d="M260.81,89.4c0-1.83.94-3,2.28-3s2.29,1.13,2.29,3-.94,3-2.29,3S260.81,91.23,260.81,89.4Zm4.15,0c0-1.63-.76-2.57-1.87-2.57s-1.86.94-1.86,2.57S262,92,263.09,92,265,91,265,89.4Z"/><path class="cls-1" d="M274.89,89c0-1.83.94-3,2.29-3s2.29,1.13,2.29,3-1,3-2.29,3S274.89,90.87,274.89,89ZM279,89c0-1.63-.76-2.57-1.86-2.57s-1.86.94-1.86,2.57.76,2.57,1.86,2.57S279,90.67,279,89Z"/><path class="cls-1" d="M233.5,50.2c0-1.83.94-3,2.29-3s2.29,1.13,2.29,3-1,3-2.29,3S233.5,52,233.5,50.2Zm4.15,0c0-1.63-.76-2.57-1.86-2.57s-1.86.94-1.86,2.57.76,2.57,1.86,2.57S237.65,51.83,237.65,50.2Z"/><path class="cls-1" d="M247.3,50.2c0-1.83.94-3,2.29-3s2.28,1.13,2.28,3-.94,3-2.28,3S247.3,52,247.3,50.2Zm4.15,0c0-1.63-.76-2.57-1.86-2.57s-1.87.94-1.87,2.57.76,2.57,1.87,2.57S251.45,51.83,251.45,50.2Z"/><path class="cls-1" d="M263.55,47.28v5.84h-.43V47.66H261.7v-.38Z"/><path class="cls-1" d="M274.89,50.2c0-1.83.94-3,2.29-3s2.29,1.13,2.29,3-1,3-2.29,3S274.89,52,274.89,50.2Zm4.15,0c0-1.63-.76-2.57-1.86-2.57s-1.86.94-1.86,2.57.76,2.57,1.86,2.57S279,51.83,279,50.2Z"/><path class="cls-1" d="M233.5,63.31c0-1.82.94-3,2.29-3s2.29,1.14,2.29,3-1,3-2.29,3S233.5,65.14,233.5,63.31Zm4.15,0c0-1.62-.76-2.57-1.86-2.57s-1.86.95-1.86,2.57.76,2.58,1.86,2.58S237.65,64.94,237.65,63.31Z"/><path class="cls-1" d="M250,60.39v5.85h-.43V60.78h-1.42v-.39Z"/><path class="cls-1" d="M260.81,63.67c0-1.83.94-3,2.28-3s2.29,1.13,2.29,3-.94,3-2.29,3S260.81,65.5,260.81,63.67Zm4.15,0c0-1.63-.76-2.57-1.87-2.57s-1.86.94-1.86,2.57.76,2.58,1.86,2.58S265,65.3,265,63.67Z"/><path class="cls-1" d="M274.89,63.31c0-1.82.94-3,2.29-3s2.29,1.14,2.29,3-1,3-2.29,3S274.89,65.14,274.89,63.31Zm4.15,0c0-1.62-.76-2.57-1.86-2.57s-1.86.95-1.86,2.57.76,2.58,1.86,2.58S279,64.94,279,63.31Z"/><rect class="cls-2" x="151.13" y="69.88" width="113.23" height="74.88" rx="6.96"/><path class="cls-2" d="M146.39,139.22H269.08a0,0,0,0,1,0,0v5.33a1.22,1.22,0,0,1-1.22,1.22H147.61a1.22,1.22,0,0,1-1.22-1.22v-5.33A0,0,0,0,1,146.39,139.22Z"/><rect class="cls-1" x="154.17" y="72.86" width="106.84" height="63.24"/><polygon class="cls-3" points="196.58 139.22 198.11 141.65 219.53 141.65 220.94 139.22 196.58 139.22"/><rect class="cls-3" x="156.37" y="75" width="102.66" height="60.89" rx="3.27"/><rect class="cls-4" x="156.37" y="79.46" width="102.66" height="56.43"/><path class="cls-3" d="M164.79,77.35a.82.82,0,1,1-.82-.82A.82.82,0,0,1,164.79,77.35Z"/><path class="cls-3" d="M159.82,77.35a.82.82,0,1,1-.82-.82A.82.82,0,0,1,159.82,77.35Z"/><path class="cls-3" d="M162.21,77.35a.82.82,0,1,1-.82-.82A.82.82,0,0,1,162.21,77.35Z"/><path class="cls-2" d="M233.15,103l.32,0,.39-.06a3.72,3.72,0,0,0,.52-.16,3.43,3.43,0,0,0,1.25-.83,3.31,3.31,0,0,0,.56-.78,3.57,3.57,0,0,0,.35-1,3.43,3.43,0,0,0-3.06-4c-.27,0-.55,0-.84,0h-6.7l-43.69,0a3.45,3.45,0,0,0-2.7,1.34,3.38,3.38,0,0,0-.63,1.39,3.35,3.35,0,0,0,0,1.51,3.42,3.42,0,0,0,1.88,2.25,3.28,3.28,0,0,0,1.45.3h32.76l13.25,0h0l-13.25,0H182.29a3.59,3.59,0,0,1-1.51-.32,3.54,3.54,0,0,1-2-2.34,3.66,3.66,0,0,1,0-1.58A3.58,3.58,0,0,1,182.25,96l43.69,0h6.7c.29,0,.57,0,.85,0a3.49,3.49,0,0,1,3.11,4.08,3.83,3.83,0,0,1-.36,1,3.68,3.68,0,0,1-.58.78,3.48,3.48,0,0,1-1.27.83,3.33,3.33,0,0,1-.53.15l-.39.06Z"/><path class="cls-3" d="M233.15,103h-6.66V96h6.66a3.47,3.47,0,0,1,3.47,3.47h0A3.46,3.46,0,0,1,233.15,103Z"/><path class="cls-5" d="M232,98.85s0-.12-.07-.32a1.29,1.29,0,0,0-1.68-.86,1.26,1.26,0,1,0,1.2,2.18,1.28,1.28,0,0,0,.48-.69c.06-.2.06-.32.07-.31a.2.2,0,0,1,0,.08,1.15,1.15,0,0,1,0,.24,1.33,1.33,0,0,1-.48.77,1.38,1.38,0,1,1,0-2.19,1.33,1.33,0,0,1,.48.77,1.15,1.15,0,0,1,0,.24A.31.31,0,0,1,232,98.85Z"/><path class="cls-5" d="M233.76,101.05a5.77,5.77,0,0,1-1.07-.63,5.55,5.55,0,0,1-1-.75,4.44,4.44,0,0,1,1.07.63A4.7,4.7,0,0,1,233.76,101.05Z"/><path class="cls-3" d="M183.08,101.45a13.58,13.58,0,0,1-.07-2,13.46,13.46,0,0,1,.07-2,13.46,13.46,0,0,1,.07,2A13.58,13.58,0,0,1,183.08,101.45Z"/><rect class="cls-1" x="174.65" y="114.92" width="16.64" height="16.1"/><polygon class="cls-2" points="175.94 129.65 180.54 121.36 184.31 126.66 186.6 123.85 190 129.65 175.94 129.65"/><path class="cls-2" d="M185.91,119.75a1.2,1.2,0,1,1-1.19-1.2A1.19,1.19,0,0,1,185.91,119.75Z"/><path class="cls-3" d="M190,129.69v-.25c0-.17,0-.41,0-.73,0-.63,0-1.56,0-2.73,0-2.35,0-5.7,0-9.72l.07.07H175.94s.15-.15.08-.08h0v7.07c0,2.26,0,4.39,0,6.35l-.07-.07,10.17,0,2.87,0h0l-2.85,0-10.21,0h-.07v-.07c0-2,0-4.09,0-6.35v-7.07h0l.08-.08h14.13v.07c0,4,0,7.4,0,9.76,0,1.17,0,2.09,0,2.72,0,.31,0,.55,0,.71v.18A.15.15,0,0,1,190,129.69Z"/><rect class="cls-2" x="201.14" y="114.92" width="16.64" height="16.1"/><polygon class="cls-1" points="202.43 129.65 207.04 121.36 210.8 126.66 213.09 123.85 216.49 129.65 202.43 129.65"/><path class="cls-1" d="M212.41,119.75a1.2,1.2,0,1,1-1.2-1.2A1.2,1.2,0,0,1,212.41,119.75Z"/><path class="cls-3" d="M216.49,129.69v-.25c0-.17,0-.41,0-.73,0-.63,0-1.56,0-2.73,0-2.35,0-5.7,0-9.72l.06.07H202.43s.15-.15.08-.08h0v7.07c0,2.26,0,4.39,0,6.35l-.07-.07,10.17,0,2.87,0h0l-2.86,0-10.21,0h-.07v-6.42c0-1.12,0-2.28,0-3.47v-3.6h0l.08-.08h14.13v.07c0,4,0,7.4,0,9.76,0,1.17,0,2.09,0,2.72,0,.31,0,.55,0,.71v.18S216.5,129.69,216.49,129.69Z"/><rect class="cls-1" x="227.63" y="114.92" width="16.64" height="16.1"/><polygon class="cls-2" points="228.92 129.65 233.53 121.36 237.29 126.66 239.58 123.85 242.99 129.65 228.92 129.65"/><path class="cls-2" d="M238.9,119.75a1.2,1.2,0,1,1-1.2-1.2A1.2,1.2,0,0,1,238.9,119.75Z"/><path class="cls-3" d="M243,129.69s0,0,0-.06v-.19c0-.17,0-.41,0-.73,0-.63,0-1.56,0-2.73,0-2.35,0-5.7,0-9.72l.07.07H228.92l.08-.08h0v7.07c0,2.26,0,4.39,0,6.35l-.07-.07,10.17,0,2.87,0h0l-2.86,0-10.21,0h-.07v-6.42c0-1.12,0-2.28,0-3.47v-3.6h0l.08-.08h14.13v.07c0,4,0,7.4,0,9.76,0,1.17,0,2.09,0,2.72,0,.31,0,.55,0,.71v.24Z"/><rect class="cls-3" x="197.16" y="87.88" width="21.08" height="1.77"/><path class="cls-3" d="M263.39,139.22c0,.05-25.13.08-56.13.08s-56.13,0-56.13-.08,25.13-.07,56.13-.07S263.39,139.18,263.39,139.22Z"/><path class="cls-6" d="M135.1,108.39c-1.6.26-2.31,2.22-2.17,3.83s.8,3.18.63,4.79c-.23,2-1.77,3.76-1.95,5.81-.21,2.41,1.49,4.54,2,6.91a22.34,22.34,0,0,0,.64,3.47,4.34,4.34,0,0,0,8.37-1.5c0-1.85-1.11-3.59-1-5.44.1-1.36.9-2.66.73-4-.2-1.61-1.7-2.76-2.23-4.3s0-3.24-.2-4.85c-.33-2.91-1.94-4.93-4.85-4.7"/><path class="cls-3" d="M127,122.45c-.27,2.69.92,5.85,2.31,8.18a12.84,12.84,0,0,0,6,5.23.9.9,0,0,0,.87,0,.92.92,0,0,0,.22-.69A13.21,13.21,0,0,0,127,122.45"/><path class="cls-7" d="M127,122.45c-.27,2.69.92,5.85,2.31,8.18a12.84,12.84,0,0,0,6,5.23.9.9,0,0,0,.87,0,.92.92,0,0,0,.22-.69A13.21,13.21,0,0,0,127,122.45"/><path class="cls-5" d="M138.67,141.48a1.15,1.15,0,0,1-.07-.15c0-.12-.12-.26-.2-.44-.16-.38-.4-.94-.71-1.62A57.21,57.21,0,0,0,135,134.1c-1.15-2-2.31-3.66-3.19-4.86-.44-.6-.81-1.09-1.06-1.42l-.29-.38c-.07-.09-.1-.14-.09-.14l.11.12.31.37c.27.32.65.79,1.1,1.38a48.37,48.37,0,0,1,3.24,4.86,49.31,49.31,0,0,1,2.64,5.2c.3.69.52,1.25.67,1.64.07.18.12.33.17.45S138.68,141.48,138.67,141.48Z"/><path class="cls-5" d="M136.94,115.83a.9.9,0,0,1,0,.26c0,.18,0,.43.05.74,0,.66.11,1.59.18,2.73.14,2.3.35,5.48.6,9s.49,6.69.66,9c.09,1.14.16,2.07.21,2.72,0,.31,0,.56.05.74a1.28,1.28,0,0,1,0,.26,2.24,2.24,0,0,1,0-.25c0-.19,0-.43-.08-.74-.06-.66-.15-1.58-.25-2.72-.21-2.3-.47-5.48-.72-9s-.43-6.69-.55-9c-.05-1.14-.09-2.07-.13-2.72,0-.32,0-.56,0-.75Z"/><path class="cls-3" d="M134.47,137.64h6.73v5a3.22,3.22,0,0,1-3.23,3.23h0a3.23,3.23,0,0,1-3.23-3.06Z"/><path class="cls-8" d="M283.89,137.57a5.24,5.24,0,0,1,3.27-.4,2.74,2.74,0,0,1,1.62.72,1.16,1.16,0,0,1,0,1.61,1.5,1.5,0,0,1-1,.26,4,4,0,0,0-2.51.36c-.4.3-.66.79-1.13.94a1.13,1.13,0,0,1-1.23-.55,1.89,1.89,0,0,1-.13-1.4A2.14,2.14,0,0,1,283.89,137.57Z"/><path class="cls-9" d="M281.61,133.16a1.56,1.56,0,0,0,2.34.05,4.35,4.35,0,0,0,1-2,10.8,10.8,0,0,0,.61-5.14,2.81,2.81,0,0,0-.66-1.39,1.5,1.5,0,0,0-1.41-.48,2.21,2.21,0,0,0-1.24,1.3,12.46,12.46,0,0,0-1.21,5.26,4.24,4.24,0,0,0,.58,2.43"/><path class="cls-10" d="M279.94,134.41a3.17,3.17,0,0,0,.49-2.91,5.61,5.61,0,0,0-1.72-2.5,9.38,9.38,0,0,0-3.09-1.82,3.35,3.35,0,0,0-1.39-.24,1.45,1.45,0,0,0-1.16.71,2.14,2.14,0,0,0,.32,2,22.54,22.54,0,0,0,2,3.09,5.41,5.41,0,0,0,2.23,1.91,2,2,0,0,0,2.38-.33"/><path class="cls-2" d="M281.57,146.28a1.87,1.87,0,0,0,.05-.4l.11-1.08a14.6,14.6,0,0,1,.24-1.58,13,13,0,0,1,.57-1.86,6.85,6.85,0,0,1,1-1.69,3.5,3.5,0,0,1,1.2-1,3.58,3.58,0,0,1,1-.32,2.21,2.21,0,0,0,.39-.06h-.4a3,3,0,0,0-1.06.27,3.6,3.6,0,0,0-1.27,1,7,7,0,0,0-1,1.72,12.23,12.23,0,0,0-.57,1.9,14.45,14.45,0,0,0-.21,1.6c0,.46,0,.83-.05,1.09A1.6,1.6,0,0,0,281.57,146.28Z"/><path class="cls-2" d="M281.64,145.45a.58.58,0,0,0,0-.19v-.52c0-.46,0-1.11,0-1.93,0-1.62.18-3.87.45-6.33s.64-4.69,1-6.28c.07-.4.15-.76.23-1.07l.18-.81.13-.51,0-.18s0,.06-.06.17l-.16.5-.21.8c-.08.32-.17.68-.26,1.07-.35,1.59-.73,3.82-1,6.29s-.39,4.72-.4,6.35c0,.82,0,1.48,0,1.93l0,.52C281.63,145.38,281.64,145.45,281.64,145.45Z"/><path class="cls-2" d="M281.65,141.11a3.9,3.9,0,0,0,0-.55c0-.35-.07-.86-.17-1.48a18.63,18.63,0,0,0-.48-2.17,18.34,18.34,0,0,0-.91-2.55,13.51,13.51,0,0,0-2.65-4.14c-.21-.23-.44-.41-.62-.58s-.18-.16-.27-.22l-.24-.17a3.25,3.25,0,0,0-.46-.29,15.82,15.82,0,0,1,1.51,1.34,14.65,14.65,0,0,1,2.59,4.12,24,24,0,0,1,1.42,4.68c.11.61.18,1.12.22,1.46A4.38,4.38,0,0,0,281.65,141.11Z"/><polygon class="cls-3" points="289.29 85.46 273.38 85.79 273.81 106.53 289.73 106.6 289.29 85.46"/><polygon class="cls-4" points="288.26 86.22 274.34 86.5 274.73 105.32 288.66 105.5 288.26 86.22"/><g class="cls-11"><polygon class="cls-12" points="285.89 89.69 276.65 89.53 276.92 102.68 286.16 102.49 285.89 89.69"/></g><g class="cls-13"><polygon class="cls-12" points="276.92 102.68 286.02 95.73 276.65 89.53 276.92 102.68"/></g><polygon class="cls-3" points="283.88 68.26 272.95 68.49 273.25 82.73 284.18 82.78 283.88 68.26"/><polygon class="cls-4" points="283.17 68.78 273.61 68.98 273.88 81.9 283.44 82.03 283.17 68.78"/><g class="cls-13"><polygon class="cls-12" points="281.54 71.17 275.19 71.05 275.38 80.08 281.72 79.95 281.54 71.17"/></g><path class="cls-2" d="M279.45,75.45s0-.1.08-.29a1.23,1.23,0,0,0-.11-.76,1.15,1.15,0,1,0-.84,1.64,1.18,1.18,0,0,0,.68-.36c.13-.14.18-.24.19-.23s0,.11-.14.26a1.19,1.19,0,0,1-.71.43,1.24,1.24,0,0,1-1.16-.37,1.27,1.27,0,0,1-.21-1.45,1.29,1.29,0,0,1,1.3-.69,1.28,1.28,0,0,1,1,.72,1.19,1.19,0,0,1,.07.83A.52.52,0,0,1,279.45,75.45Z"/><path class="cls-2" d="M280,78a4.62,4.62,0,0,1-.61-1,4.09,4.09,0,0,1-.49-1,4.62,4.62,0,0,1,.61,1A4.09,4.09,0,0,1,280,78Z"/><path class="cls-2" d="M289.59,145.78s-35.64.07-79.59.07-79.59,0-79.59-.07S166,145.7,210,145.7,289.59,145.74,289.59,145.78Z"/><path class="cls-14" d="M243.32,110.72s.25-2.67.51-2.65.29.5.26.73,0,1.12,0,1.12Z"/><path class="cls-2" d="M266.26,108.53l-1.28,9,5.91,25.84-16.33,1.3,7-41.61S266.24,102.55,266.26,108.53Z"/><polygon class="cls-14" points="246.17 154.02 245.23 164.68 249.26 164.68 251.04 154.02 246.17 154.02"/><path class="cls-14" d="M245.23,164.68a15,15,0,0,0-3.21.7l7.13-.08.11-.62Z"/><polygon class="cls-3" points="242.02 165.38 242.02 165.67 249.36 165.59 249.36 165.28 242.02 165.38"/><path class="cls-3" d="M244.62,165.55s-.16-.2-.39-.38-.48-.22-.47-.26.28,0,.55.15S244.66,165.54,244.62,165.55Z"/><path class="cls-3" d="M249.35,164.47s-.49.14-1,.4-1,.58-1,.55a2.26,2.26,0,0,1,.92-.68A2.23,2.23,0,0,1,249.35,164.47Z"/><path class="cls-3" d="M249.19,164.29a13.9,13.9,0,0,1-2,0,13.48,13.48,0,0,1-2-.18,17.09,17.09,0,0,1,2,0A17.29,17.29,0,0,1,249.19,164.29Z"/><path class="cls-3" d="M249.66,162.89a17,17,0,0,1-2.18.47,17.59,17.59,0,0,1-2.21.33,22.28,22.28,0,0,1,2.18-.47A17.32,17.32,0,0,1,249.66,162.89Z"/><path class="cls-3" d="M249.59,162.94a1,1,0,0,1-.53-.11,2.28,2.28,0,0,1-.53-.28,1.42,1.42,0,0,1-.28-.22.45.45,0,0,1-.13-.17.29.29,0,0,1,0-.24.22.22,0,0,1,.23-.1.59.59,0,0,1,.19.05,1.63,1.63,0,0,1,.73.61.92.92,0,0,1,.19.51,4.68,4.68,0,0,0-.27-.45,1.71,1.71,0,0,0-.41-.39,1.32,1.32,0,0,0-.29-.15c-.1-.05-.22-.07-.26,0a.21.21,0,0,0,.08.24,2.75,2.75,0,0,0,.26.22c.18.12.35.21.49.29C249.39,162.87,249.59,162.92,249.59,162.94Z"/><path class="cls-3" d="M249.55,163a1,1,0,0,1-.1-.53,1.58,1.58,0,0,1,.12-.57,1.87,1.87,0,0,1,.17-.31l.12-.15a.25.25,0,0,1,.21-.1.26.26,0,0,1,.21.13.59.59,0,0,1,0,.21,1.82,1.82,0,0,1-.06.35,1.55,1.55,0,0,1-.27.53,1,1,0,0,1-.42.33s.16-.13.34-.39a1.54,1.54,0,0,0,.22-.5,1.64,1.64,0,0,0,.05-.32c0-.11,0-.2-.11-.2s-.15.1-.21.19a1.61,1.61,0,0,0-.17.28,2,2,0,0,0-.14.53C249.52,162.84,249.58,163,249.55,163Z"/><path class="cls-3" d="M250.09,164.7a2.1,2.1,0,0,1-.4-.82,2.3,2.3,0,0,1-.16-.91,4.68,4.68,0,0,1,.29.86A5.12,5.12,0,0,1,250.09,164.7Z"/><path class="cls-3" d="M250.57,164.32a1.93,1.93,0,0,1-.71-.63,1.9,1.9,0,0,1-.44-.84,7.36,7.36,0,0,1,.55.76A8.41,8.41,0,0,1,250.57,164.32Z"/><polygon class="cls-14" points="261.21 154.89 269.47 161.44 271.44 158.56 264.05 150.53 261.21 154.89"/><path class="cls-14" d="M268.89,161.6a14.79,14.79,0,0,0-1.26,3l4-5.9-.44-.44Z"/><polygon class="cls-3" points="267.63 164.63 267.86 164.79 272 158.73 271.75 158.55 267.63 164.63"/><path class="cls-3" d="M269.25,162.59s-.25,0-.53.11-.45.26-.49.23.13-.26.45-.36S269.27,162.56,269.25,162.59Z"/><path class="cls-3" d="M271.08,158.1s-.17.48-.27,1.08-.07,1.12-.12,1.12a2.4,2.4,0,0,1,0-1.14A2.26,2.26,0,0,1,271.08,158.1Z"/><path class="cls-3" d="M270.85,157.94a11.81,11.81,0,0,1-1.05,1.46,12.22,12.22,0,0,1-1.15,1.38,10,10,0,0,1,1-1.46A11.66,11.66,0,0,1,270.85,157.94Z"/><path class="cls-3" d="M270,156.94a12.86,12.86,0,0,1-.75,1.82,13.28,13.28,0,0,1-.89,1.76,14.41,14.41,0,0,1,.76-1.82A14.06,14.06,0,0,1,270,156.94Z"/><path class="cls-3" d="M270,157a1.22,1.22,0,0,1-.4.37,2.89,2.89,0,0,1-.53.27,2.27,2.27,0,0,1-.34.11.49.49,0,0,1-.21,0,.24.24,0,0,1-.14-.4.61.61,0,0,1,.16-.13,1.91,1.91,0,0,1,.32-.16,1.51,1.51,0,0,1,.6-.09.86.86,0,0,1,.53.14s-.21,0-.53,0a1.49,1.49,0,0,0-.55.11,1.59,1.59,0,0,0-.29.15c-.1.06-.19.15-.15.21s.13.1.24.07a1.68,1.68,0,0,0,.32-.09,3.19,3.19,0,0,0,.52-.24C269.79,157.15,270,157,270,157Z"/><path class="cls-3" d="M270,157.11a.86.86,0,0,1-.49-.22,1.68,1.68,0,0,1-.4-.43,2.25,2.25,0,0,1-.16-.31c0-.06,0-.12-.05-.18a.34.34,0,0,1,0-.24.26.26,0,0,1,.24-.08.47.47,0,0,1,.19.08,1.48,1.48,0,0,1,.25.25,1.57,1.57,0,0,1,.28.52,1,1,0,0,1,0,.54s0-.21-.13-.51a1.49,1.49,0,0,0-.28-.47,1.21,1.21,0,0,0-.23-.22c-.08-.06-.19-.08-.23,0s0,.18,0,.28a1.57,1.57,0,0,0,.14.29,2,2,0,0,0,.35.43C269.83,157,270,157.09,270,157.11Z"/><path class="cls-3" d="M271.69,157.62a2,2,0,0,1-.9-.14,2.37,2.37,0,0,1-.84-.39,4.54,4.54,0,0,1,.88.26A4.69,4.69,0,0,1,271.69,157.62Z"/><path class="cls-3" d="M271.66,157a2.66,2.66,0,0,1-1.87.1s.43,0,.94,0S271.65,157,271.66,157Z"/><path class="cls-15" d="M253.25,122.72s-3.15,20.95-2.69,22,10.67,11.47,10.67,11.47l3.84-6.56s-6.76-7.49-6.67-7.88S263.28,121,263.28,121Z"/><path class="cls-3" d="M254,148.65l2.7-5.91,3.11-6.65a48.87,48.87,0,0,0-4.8,8.69A15.35,15.35,0,0,0,254,148.65Z"/><path class="cls-16" d="M254,148.65l2.7-5.91,3.11-6.65a48.87,48.87,0,0,0-4.8,8.69A15.35,15.35,0,0,0,254,148.65Z"/><path class="cls-3" d="M252.13,130.45c0-.22,2.58-5.94,2.58-5.94l-1.24-1.74-.22,0Z"/><path class="cls-16" d="M252.13,130.45c0-.22,2.58-5.94,2.58-5.94l-1.24-1.74-.22,0Z"/><path class="cls-17" d="M265.07,120.75l.19.78a9.19,9.19,0,0,1-1,6.75l-8.55,14.82a12.06,12.06,0,0,0-1.32,3.37l-2.12,9.58s-6.73.23-7,0,.87-6.56,1.64-11.37c.58-3.62,5.43-14.86,7.78-20.17l-1.46-1.79,2.53-.42Z"/><path class="cls-2" d="M252.31,156.05a1,1,0,0,1-.28,0l-.76.06c-.64,0-1.52.07-2.5.07s-1.87,0-2.51-.06l-.75,0a.82.82,0,0,1-.28,0,1.23,1.23,0,0,1,.28,0h.76l2.5,0c1,0,1.86,0,2.5,0l.76,0Z"/><path class="cls-2" d="M252.68,154.25s-1.62.07-3.61.06-3.61,0-3.61-.08,1.61-.07,3.61-.06S252.68,154.22,252.68,154.25Z"/><path class="cls-2" d="M263.89,148.24a1.06,1.06,0,0,1-.14.26l-.44.7-1.45,2.27-1.44,2.29-.44.69a1.47,1.47,0,0,1-.18.24,1.13,1.13,0,0,1,.13-.27l.4-.72c.35-.59.85-1.41,1.41-2.3s1.1-1.69,1.49-2.26l.47-.67C263.82,148.32,263.88,148.23,263.89,148.24Z"/><path class="cls-2" d="M260.83,155.59a3.07,3.07,0,0,1-.33-.88,3.18,3.18,0,0,1-.19-.92,3.41,3.41,0,0,1,.33.88A3.18,3.18,0,0,1,260.83,155.59Z"/><path class="cls-2" d="M261.43,155.57a7.94,7.94,0,0,1-.32-1.47,7.72,7.72,0,0,1-.18-1.5,7.93,7.93,0,0,1,.32,1.48A10.27,10.27,0,0,1,261.43,155.57Z"/><path class="cls-2" d="M262.21,154.46a8.15,8.15,0,0,1-.36-1.28,10.54,10.54,0,0,1-.28-1.31,4.71,4.71,0,0,1,.42,1.27A5,5,0,0,1,262.21,154.46Z"/><path class="cls-2" d="M262.87,152.92a5.84,5.84,0,0,1-.32-1.24,5.67,5.67,0,0,1-.18-1.27,5.84,5.84,0,0,1,.32,1.24A5.54,5.54,0,0,1,262.87,152.92Z"/><path class="cls-2" d="M263.73,151.65a10,10,0,0,1-.3-1.23,8.44,8.44,0,0,1-.27-1.24,4.47,4.47,0,0,1,.41,1.21A4,4,0,0,1,263.73,151.65Z"/><path class="cls-2" d="M264.5,150.56a3.55,3.55,0,0,1-.33-1,3.69,3.69,0,0,1-.18-1,3.92,3.92,0,0,1,.32,1A4.63,4.63,0,0,1,264.5,150.56Z"/><path class="cls-2" d="M248.81,154.18a18,18,0,0,1-1.68.92c-.93.49-1.67.9-1.69.87a2,2,0,0,1,.45-.33c.3-.18.71-.42,1.18-.67s.9-.45,1.21-.59A2.76,2.76,0,0,1,248.81,154.18Z"/><path class="cls-2" d="M250.88,154.21a2.49,2.49,0,0,1-.53.35c-.34.2-.81.45-1.34.71s-1,.49-1.39.64a3.1,3.1,0,0,1-.59.21,2.53,2.53,0,0,1,.55-.3l1.36-.67,1.36-.68A4.26,4.26,0,0,1,250.88,154.21Z"/><path class="cls-2" d="M252.46,154.21a9.25,9.25,0,0,1-1.32,1.09,8.64,8.64,0,0,1-1.44.92,13.36,13.36,0,0,1,1.35-1A12.08,12.08,0,0,1,252.46,154.21Z"/><path class="cls-2" d="M252.63,155.21a4.39,4.39,0,0,1-1.26,1,2.46,2.46,0,0,1,.59-.54C252.3,155.37,252.6,155.17,252.63,155.21Z"/><path class="cls-2" d="M247,154.15a4.25,4.25,0,0,1-.87.6,4.1,4.1,0,0,1-.94.48,3.93,3.93,0,0,1,.87-.6A3.66,3.66,0,0,1,247,154.15Z"/><path class="cls-2" d="M254.52,124.47a7.44,7.44,0,0,1-.35.94c-.24.57-.56,1.36-.9,2.24s-.64,1.68-.86,2.26a9.79,9.79,0,0,1-.36.93,1,1,0,0,1,0-.26c.05-.17.13-.41.22-.7.19-.59.48-1.4.82-2.28s.68-1.67.94-2.23c.12-.28.23-.51.31-.67Z"/><path class="cls-2" d="M253.82,149.32s0-.06,0-.17l.06-.47a7.45,7.45,0,0,1,.13-.75c.06-.28.12-.62.22-1l.14-.57c.06-.19.13-.39.19-.6.13-.42.3-.85.47-1.31a29.05,29.05,0,0,1,1.34-2.89,51,51,0,0,1,3.07-4.92c.42-.61.77-1.09,1-1.43l.28-.38.11-.13-.08.14-.27.4-1,1.46c-.82,1.23-1.95,2.93-3,4.92a31.59,31.59,0,0,0-1.35,2.88c-.17.45-.35.88-.48,1.3-.06.2-.13.4-.19.59l-.16.56c-.1.36-.17.68-.23,1a5.7,5.7,0,0,0-.15.74l-.09.47C253.84,149.26,253.83,149.32,253.82,149.32Z"/><path class="cls-5" d="M262.21,103.1l-6.62.56s-2,0-4.13,5.09l-1.56,5,2.8.6v.27l.55,8.12,11.94-1.93a15.15,15.15,0,0,0-1-4c.45-1.11,2.33-6,2.33-8.31,0-5-4.32-5.43-4.32-5.43"/><path class="cls-2" d="M265.07,149.59s0,.1-.13.27-.21.42-.38.72c-.33.6-.81,1.42-1.35,2.32s-1,1.69-1.39,2.3l-.42.7a1.56,1.56,0,0,1-.17.25,1.26,1.26,0,0,1,.12-.28l.39-.72c.33-.6.81-1.42,1.35-2.32l1.38-2.3.43-.69C265,149.67,265.06,149.58,265.07,149.59Z"/><path class="cls-5" d="M263.5,115a2.41,2.41,0,0,1-.93.25,2.78,2.78,0,0,1-1,0,23.21,23.21,0,0,1,1.9-.26Z"/><path class="cls-3" d="M253.28,114.65l-.13,8.81,3.57-20.07a5.31,5.31,0,0,0-4.23,1.91c-.6.71-.93,2.34-2.59,7.26l-1,3.33-4.13-4.52L242,113.89s4.81,7.85,6.81,8.28c2.74.59,4.51-7.52,4.51-7.52"/><path class="cls-2" d="M253.86,106.49a2.12,2.12,0,0,1,0,.34l-.14.93c-.13.78-.29,1.87-.44,3.07s-.25,2.28-.32,3.07l-.09.94a1.38,1.38,0,0,1-.05.34,1.55,1.55,0,0,1,0-.35c0-.22,0-.54,0-.93,0-.8.14-1.89.28-3.09s.33-2.29.48-3.07c.07-.39.14-.7.19-.92A1.17,1.17,0,0,1,253.86,106.49Z"/><path class="cls-5" d="M252.93,106.1s.54-.27,1.17-.66,1.09-.78,1.12-.75a3.47,3.47,0,0,1-1.05.87A3.35,3.35,0,0,1,252.93,106.1Z"/><path class="cls-5" d="M251.78,111.92a7.45,7.45,0,0,1-.34-1,8.23,8.23,0,0,1-.32-1,2.74,2.74,0,0,1,.45,1A2.8,2.8,0,0,1,251.78,111.92Z"/><path class="cls-5" d="M254.69,108.75a3.81,3.81,0,0,1-.09,1.17,3.71,3.71,0,0,1-.34,1.12,8.81,8.81,0,0,1,.2-1.15A7.76,7.76,0,0,1,254.69,108.75Z"/><path class="cls-5" d="M250.66,116.43a6.45,6.45,0,0,1-.08,1,5.81,5.81,0,0,1-.13,1,2.63,2.63,0,0,1,0-1A2.89,2.89,0,0,1,250.66,116.43Z"/><path class="cls-5" d="M245.37,116.36a4.5,4.5,0,0,1-.74-1.13,4.62,4.62,0,0,1-.51-1.26,11.6,11.6,0,0,1,.63,1.19A10.49,10.49,0,0,1,245.37,116.36Z"/><path class="cls-5" d="M248.4,116.56a2.06,2.06,0,0,1-.77.49,2.08,2.08,0,0,1-.87.26,5.34,5.34,0,0,1,.81-.39A5.74,5.74,0,0,1,248.4,116.56Z"/><polygon class="cls-3" points="262.73 119.36 264.8 143.96 271.03 143.38 265.11 117.54 265.83 110.6 262.73 119.36"/><path class="cls-2" d="M264.8,144s-.5-5.45-1-12.19-.92-12.2-.88-12.2.5,5.45,1,12.19S264.83,144,264.8,144Z"/><path class="cls-5" d="M264.19,119.93a3,3,0,0,1,.27-.81,2.64,2.64,0,0,1,.39-.76,2.49,2.49,0,0,1-.26.81A2.58,2.58,0,0,1,264.19,119.93Z"/><path class="cls-5" d="M265.92,123.59s-.35-.34-.78-.72a8.9,8.9,0,0,1-.81-.7,2.52,2.52,0,0,1,.9.59A2.47,2.47,0,0,1,265.92,123.59Z"/><path class="cls-5" d="M265.54,128.52a6.13,6.13,0,0,1,.39-.85,8,8,0,0,1,.37-.87,2.23,2.23,0,0,1-.25.93A2,2,0,0,1,265.54,128.52Z"/><path class="cls-5" d="M266.88,132.49a4,4,0,0,1-.86-.65,4,4,0,0,1-.77-.76,4,4,0,0,1,.86.65A4.42,4.42,0,0,1,266.88,132.49Z"/><path class="cls-5" d="M268,135.21a10.15,10.15,0,0,1,0-2.38,5.38,5.38,0,0,1,.06,1.19A4.7,4.7,0,0,1,268,135.21Z"/><path class="cls-5" d="M266,137.06a5,5,0,0,1-.15-.95,5.65,5.65,0,0,1-.12-1,2.44,2.44,0,0,1,.26.93A2.78,2.78,0,0,1,266,137.06Z"/><path class="cls-5" d="M268.07,139.41a2.87,2.87,0,0,1-.89-.06,2.77,2.77,0,0,1-.87-.2,2.87,2.87,0,0,1,.89.06A2.68,2.68,0,0,1,268.07,139.41Z"/><path class="cls-5" d="M267.74,142.54a7.22,7.22,0,0,1,1.12-1.7,3.42,3.42,0,0,1-.5.89A3.84,3.84,0,0,1,267.74,142.54Z"/><path class="cls-2" d="M253.54,122.34l-10.48-14.27a14.41,14.41,0,1,0-9.86,3c.51,0,1,0,1.55,0a14.58,14.58,0,0,0,6-1.54l10.58,14.41a1.35,1.35,0,0,0,1.9.29h0A1.36,1.36,0,0,0,253.54,122.34Zm-18.89-14a10.4,10.4,0,0,1-1.25,0,11.72,11.72,0,0,1,.46-23.41c.43,0,.85,0,1.27,0a11.72,11.72,0,0,1-.48,23.41Z"/><path class="cls-3" d="M249.38,114.58l-1.24,4.24s6.5,2.36,10,2.32c3.29,0,4.24-.41,5.4-3.08a40,40,0,0,0,2.75-7.48s1.86-8.11-5.24-7.39l-.19,6.35s-.79,2.6-.84,2.75c-.53,1.4-1.22,3.45-1.88,3.7S249.38,114.58,249.38,114.58Z"/><path class="cls-2" d="M259.58,118a4.45,4.45,0,0,1-.7-1,3.75,3.75,0,0,1-.51-1.1,8.08,8.08,0,0,1,.63,1A8.61,8.61,0,0,1,259.58,118Z"/><path class="cls-2" d="M260.24,117.32a5,5,0,0,1-.94-.65,4.66,4.66,0,0,1-.86-.75,4.74,4.74,0,0,1,.95.64A4.24,4.24,0,0,1,260.24,117.32Z"/><path class="cls-2" d="M262.45,105.75a15.41,15.41,0,0,1-.75,2,19.06,19.06,0,0,1-.87,1.93,13.92,13.92,0,0,1,.74-2A15.77,15.77,0,0,1,262.45,105.75Z"/><path class="cls-2" d="M266,111.79a2.63,2.63,0,0,1-.09.32l-.3.86c-.26.73-.62,1.73-1.05,2.83s-.86,2.07-1.19,2.77c-.17.35-.31.63-.41.82s-.16.29-.17.28a1.31,1.31,0,0,1,.12-.31l.37-.83c.31-.71.72-1.69,1.15-2.78l1.09-2.81c.14-.36.25-.65.34-.85A1.09,1.09,0,0,1,266,111.79Z"/><path class="cls-2" d="M255.59,115.8s-1.42-.18-3.16-.5-3.14-.6-3.14-.64,1.43.19,3.17.5S255.6,115.76,255.59,115.8Z"/><path class="cls-5" d="M263,111.93a4.67,4.67,0,0,1,0-1.14,4.44,4.44,0,0,1,.08-1.15,4.47,4.47,0,0,1,.06,1.15A4.58,4.58,0,0,1,263,111.93Z"/><path class="cls-5" d="M260.43,119.73a7.32,7.32,0,0,1,.37-.86,7.28,7.28,0,0,1,.37-.86,2,2,0,0,1-.24.91A2.21,2.21,0,0,1,260.43,119.73Z"/><path class="cls-5" d="M257,119.51a7.56,7.56,0,0,1-.56-1,6.1,6.1,0,0,1-.53-1,3.38,3.38,0,0,1,.65.94A3.07,3.07,0,0,1,257,119.51Z"/><path class="cls-5" d="M252.24,117.32a3.82,3.82,0,0,1-.92.44,4.35,4.35,0,0,1-1,.31,7.46,7.46,0,0,1,1.89-.75Z"/><path class="cls-5" d="M265.57,107.36s-.34-.29-.79-.6-.86-.49-.85-.53a2.82,2.82,0,0,1,1.64,1.13Z"/><path class="cls-5" d="M263.54,114.37a3.53,3.53,0,0,1-1.11.27,3.21,3.21,0,0,1-1.15,0,8,8,0,0,1,1.13-.15A7.27,7.27,0,0,1,263.54,114.37Z"/><path class="cls-3" d="M262.88,92.65a1.73,1.73,0,0,1,2-.83,2.49,2.49,0,0,1,1.59,1.63,4.38,4.38,0,0,1,0,2.33c-.12.56-.29,1.21.08,1.64s1,.4,1.4.75a1,1,0,1,1-1.37,1.36,4.13,4.13,0,0,0,.34,1.12,1,1,0,0,1-.16,1.1.85.85,0,0,1-.83.07,2.69,2.69,0,0,1-.71-.5,2,2,0,0,1,0,1.24,1.26,1.26,0,0,1-.93.79,1.36,1.36,0,0,1-1.3-.75,2.78,2.78,0,0,1-.24-1.54c.06-.83.27-1.63.37-2.45a4.17,4.17,0,0,0-.3-2.42"/><path class="cls-3" d="M267.65,97.45s0,0-.11,0a.36.36,0,0,1-.25-.18.39.39,0,0,1,.12-.47.48.48,0,0,1,.63,0,.72.72,0,0,1,.19.75A.75.75,0,0,1,268,98a.71.71,0,0,1-.44.19.93.93,0,0,1-.49-.11,1.12,1.12,0,0,1-.38-.37,1.64,1.64,0,0,1-.18-1,14.58,14.58,0,0,0,.45-1.93,2.87,2.87,0,0,0-.42-1.52,2.93,2.93,0,0,0-.74-.8c-.2-.15-.34-.21-.33-.22l.1,0,.27.15a2.71,2.71,0,0,1,.78.78,2.82,2.82,0,0,1,.47,1.58,13.53,13.53,0,0,1-.44,2,1.48,1.48,0,0,0,.16,1,.82.82,0,0,0,.74.42.62.62,0,0,0,.57-.48.64.64,0,0,0-.14-.65.4.4,0,0,0-.52-.05.32.32,0,0,0-.12.38.38.38,0,0,0,.21.18A.19.19,0,0,0,267.65,97.45Z"/><path class="cls-14" d="M261.13,103.35l.38-8.59-3.41-2.59L255,93.69s-.1,3.89,0,5.58a2,2,0,0,0,1.81,1.87s0,1-.08,2a2.21,2.21,0,0,0,2.23,2.29h0A2.21,2.21,0,0,0,261.13,103.35Z"/><path class="cls-2" d="M255.33,96.53a.21.21,0,0,0,.22.21.21.21,0,0,0,.21-.21.21.21,0,0,0-.21-.22A.22.22,0,0,0,255.33,96.53Z"/><path class="cls-2" d="M255.12,96.29s.19-.11.42-.12.41.1.43.07,0-.07-.09-.12a.56.56,0,0,0-.35-.09.59.59,0,0,0-.33.13C255.13,96.22,255.11,96.28,255.12,96.29Z"/><path class="cls-2" d="M257.84,96.53a.21.21,0,0,0,.21.21.21.21,0,0,0,.22-.21.22.22,0,0,0-.22-.22A.21.21,0,0,0,257.84,96.53Z"/><path class="cls-2" d="M257.7,96.29s.19-.11.42-.12.41.1.44.07,0-.07-.1-.12a.56.56,0,0,0-.35-.09.59.59,0,0,0-.33.13C257.71,96.22,257.69,96.28,257.7,96.29Z"/><path class="cls-5" d="M257.63,98.48a4.12,4.12,0,0,1-1.12.38.65.65,0,0,0,.77.22A.47.47,0,0,0,257.63,98.48Z"/><path class="cls-18" d="M256.8,101.14a4.27,4.27,0,0,0,2.24-.75,2.18,2.18,0,0,1-2.2,1.17Z"/><path class="cls-3" d="M266.43,99.61a1.15,1.15,0,0,1-.62-.14,1.61,1.61,0,0,1-.66-.64,6.64,6.64,0,0,1-.5-1.07c-.32-.79-.56-1.52-.72-2.05,0-.08-.05-.16-.07-.23s0-.18,0-.23a5.4,5.4,0,0,0-4.63-4.18,4.37,4.37,0,0,0-4.12,2.25,3.84,3.84,0,0,0-.75,1.59,2,2,0,0,0,0,.84s0-.32.17-.81a4.31,4.31,0,0,1,.33-.83,3.19,3.19,0,0,0,.17,2l.6-.17,2.15-.73a3.09,3.09,0,0,1,.25-1.88h0A3.35,3.35,0,0,0,260.81,96l.4,5.53c2.86-.61,2.8-4.44,2.78-5.21.13.43.3.94.51,1.46A5.8,5.8,0,0,0,265,98.9a1.78,1.78,0,0,0,.74.67,1.17,1.17,0,0,0,.67.1c.16,0,.24-.08.23-.09S266.58,99.6,266.43,99.61Z"/><path class="cls-2" d="M256.86,98.26a1.23,1.23,0,0,0-.38-.05c-.06,0-.12,0-.13-.06a.35.35,0,0,1,0-.18l.15-.49c.12-.34.21-.65.28-.88a1.87,1.87,0,0,0,.08-.37,1.44,1.44,0,0,0-.15.35c-.08.22-.18.53-.29.87-.06.17-.11.34-.16.49a.38.38,0,0,0,0,.24.15.15,0,0,0,.1.09h.1A1.67,1.67,0,0,0,256.86,98.26Z"/><path class="cls-14" d="M261.69,98.19a2.13,2.13,0,0,1,.09-.84.79.79,0,0,1,.61-.52.65.65,0,0,1,.68.55.79.79,0,0,1-.41.81,1.07,1.07,0,0,1-.94,0"/><path class="cls-18" d="M262.18,97.94s.09,0,.21,0a.39.39,0,0,0,.26-.36.35.35,0,0,0-.06-.23.26.26,0,0,0-.19,0c-.13,0-.21,0-.22,0s.06-.08.21-.12a.34.34,0,0,1,.28,0,.44.44,0,0,1,.12.34.54.54,0,0,1-.13.31.33.33,0,0,1-.25.13C262.25,98,262.17,98,262.18,97.94Z"/><path class="cls-2" d="M262.69,98.17s.13.09.12.31a.49.49,0,0,1-.16.36.53.53,0,0,1-.45.14.55.55,0,0,1-.39-.28.49.49,0,0,1,0-.39c.07-.21.21-.27.21-.25s-.08.1-.12.28a.39.39,0,0,0,.06.29.42.42,0,0,0,.29.21.47.47,0,0,0,.35-.1.38.38,0,0,0,.14-.26A1.22,1.22,0,0,0,262.69,98.17Z"/><path class="cls-3" d="M261.7,97a1,1,0,0,1-.22.13,1.66,1.66,0,0,1-.69.14,2.23,2.23,0,0,1-1-.25,2.64,2.64,0,0,1-.94-.86A4.87,4.87,0,0,1,258.1,94c0-.29-.06-.52-.07-.69a.81.81,0,0,1,0-.25,9.23,9.23,0,0,1,.17.92,5.1,5.1,0,0,0,.76,2.09,2.55,2.55,0,0,0,.89.82,2.15,2.15,0,0,0,.95.27A2.39,2.39,0,0,0,261.7,97Z"/><path class="cls-2" d="M263.59,94.59s-.17-.49-.5-1a10.49,10.49,0,0,0-.69-.9,2.07,2.07,0,0,1,.81.83A2,2,0,0,1,263.59,94.59Z"/><path class="cls-14" d="M248.26,118.39h-1c-.91-.08-1.41-.1-1.66-.34s.12-.64.12-.64-.65-.22-.59-.62.35-.3.35-.3-.58-.23-.69-.47.25-.5.25-.5c-.78-.49-.71-1-.53-1a2.27,2.27,0,0,1,.79.23c.52.15,1.94.58,1.41-.2a2.43,2.43,0,0,1-.51-1.81.29.29,0,0,1,.54.13,3.48,3.48,0,0,0,.37.87,2.12,2.12,0,0,0,.47.6c.22.2.42.36.59.49l.88.85Z"/><path class="cls-14" d="M242.08,108.47c.07-.21.24-.37.44-.27h0a.36.36,0,0,1,.06.34l-.61,2h0l.58-1.42c.07-.21.26-.34.4-.22a.36.36,0,0,1,0,.32l-.53,1.66.44-1c.09-.23.19-.3.31-.25s.13.23.1.32l-.37,1.23c.08.23.35,1,.09,1.39,0,0,0,.09,0,.11l.12.15-.82.73s-.75-1.9-.89-2.47a1.67,1.67,0,0,1,0-1Z"/><g class="cls-19"><path d="M50.36,29.13a8.82,8.82,0,0,1,7,2.9,9.25,9.25,0,0,1,2.33,6.38,9.26,9.26,0,0,1-2.31,6.36,8.82,8.82,0,0,1-7,2.9,8.71,8.71,0,0,1-6.91-2.9,9.38,9.38,0,0,1-2.32-6.42A9.23,9.23,0,0,1,43.43,32,8.79,8.79,0,0,1,50.36,29.13Zm0,15.38a5.71,5.71,0,0,0,4.48-1.85,6,6,0,0,0,1.5-4.12,6.11,6.11,0,0,0-1.52-4.18,5.8,5.8,0,0,0-4.57-1.92,5.62,5.62,0,0,0-4.45,1.85,5.92,5.92,0,0,0-1.48,4.1,6.17,6.17,0,0,0,1.51,4.2A5.74,5.74,0,0,0,50.32,44.51Z"/><path d="M65.19,28.94V47.47H61.86V28.94Z"/></g><path class="cls-20" d="M41.05,77.81a.69.69,0,0,1-.5-.21.67.67,0,0,1-.21-.5.69.69,0,0,1,.21-.51.72.72,0,0,1,.5-.2H44.6a1.42,1.42,0,1,0,0-2.84H43.18a2.72,2.72,0,0,1-1.11-.22,2.84,2.84,0,0,1-.9-.6,2.92,2.92,0,0,1-.61-.9,2.91,2.91,0,0,1,0-2.22,2.92,2.92,0,0,1,.61-.9,2.86,2.86,0,0,1,.9-.61,2.72,2.72,0,0,1,1.11-.22h2.41a.69.69,0,0,1,.51.2.74.74,0,0,1,0,1,.69.69,0,0,1-.51.2H43.18a1.42,1.42,0,0,0-1.42,1.42,1.38,1.38,0,0,0,.41,1,1.36,1.36,0,0,0,1,.41H44.6a2.86,2.86,0,0,1,2,.84,2.81,2.81,0,0,1,.61.9,2.77,2.77,0,0,1,0,2.21,2.88,2.88,0,0,1-1.51,1.51,2.88,2.88,0,0,1-1.1.22Z"/><path class="cls-20" d="M50,75a2,2,0,0,0,.76,1,2,2,0,0,0,1.24.4,2.12,2.12,0,0,0,.83-.17,2.28,2.28,0,0,0,.67-.46.68.68,0,0,1,.5-.19.72.72,0,0,1,.51.19.74.74,0,0,1,.2.51.72.72,0,0,1-.2.5,3.67,3.67,0,0,1-1.14.76,3.29,3.29,0,0,1-1.37.28,3.37,3.37,0,0,1-1.38-.28,3.41,3.41,0,0,1-1.13-.76,3.51,3.51,0,0,1-.76-1.13,3.54,3.54,0,0,1,0-2.76,3.51,3.51,0,0,1,.76-1.13A3.41,3.41,0,0,1,50.6,71a3.55,3.55,0,0,1,3.89.76,3.68,3.68,0,0,1,.76,1.13,3.54,3.54,0,0,1,.28,1.38.7.7,0,0,1-.21.5.69.69,0,0,1-.5.21Zm4-1.42a2.12,2.12,0,0,0-2-1.42,2,2,0,0,0-1.24.4,2.07,2.07,0,0,0-.78,1Z"/><path class="cls-20" d="M62.19,77.08a3.38,3.38,0,0,1-1,.53,3.58,3.58,0,0,1-1.14.18,3.54,3.54,0,0,1-1.38-.27,3.54,3.54,0,0,1-1.89-1.89,3.69,3.69,0,0,1,0-2.77,3.64,3.64,0,0,1,.76-1.12,3.56,3.56,0,0,1,3.9-.76,3.51,3.51,0,0,1,1.88,1.88,3.39,3.39,0,0,1,.28,1.39V77.1a.67.67,0,0,1-.21.5.7.7,0,0,1-1,0,.67.67,0,0,1-.21-.5Zm-2.13-.71a1.93,1.93,0,0,0,.83-.17,2.12,2.12,0,0,0,.68-.45,2.08,2.08,0,0,0,.45-.67,2,2,0,0,0,.17-.83,1.93,1.93,0,0,0-.17-.83,2,2,0,0,0-1.13-1.13,1.93,1.93,0,0,0-.83-.17,2,2,0,0,0-.83.17,2.08,2.08,0,0,0-.67.45,2.12,2.12,0,0,0-.45.68,1.93,1.93,0,0,0-.17.83,2,2,0,0,0,.17.83,2.09,2.09,0,0,0,1.12,1.12A2,2,0,0,0,60.06,76.37Z"/><path class="cls-20" d="M65,71.42a.67.67,0,0,1,.21-.5.7.7,0,0,1,1,0,.67.67,0,0,1,.21.5,4.24,4.24,0,0,1,1-.52,3.59,3.59,0,0,1,1.14-.19.72.72,0,0,1,.71.71.69.69,0,0,1-.21.51.7.7,0,0,1-.5.2,2.09,2.09,0,0,0-.83.17,2.33,2.33,0,0,0-.68.46,2.08,2.08,0,0,0-.45.67,2.12,2.12,0,0,0-.17.83V77.1a.67.67,0,0,1-.21.5.7.7,0,0,1-1,0,.67.67,0,0,1-.21-.5Z"/><path class="cls-20" d="M75.77,76.77a3.51,3.51,0,0,1-1.13.76,3.54,3.54,0,0,1-2.76,0A3.54,3.54,0,0,1,70,75.64a3.54,3.54,0,0,1,0-2.76A3.55,3.55,0,0,1,74.64,71a3.75,3.75,0,0,1,1.13.76.72.72,0,0,1,.2.5.74.74,0,0,1-.2.51.73.73,0,0,1-.51.2.7.7,0,0,1-.5-.2,2.28,2.28,0,0,0-.67-.46,2.11,2.11,0,0,0-1.66,0,2.28,2.28,0,0,0-.67.46,2.1,2.1,0,0,0-.46,2.33,2,2,0,0,0,.46.67,2.28,2.28,0,0,0,.67.46,2.11,2.11,0,0,0,1.66,0,2.28,2.28,0,0,0,.67-.46.72.72,0,0,1,.51-.19.71.71,0,0,1,.5.19.74.74,0,0,1,.2.51A.72.72,0,0,1,75.77,76.77Z"/><path class="cls-20" d="M83.36,74.26a2.12,2.12,0,0,0-.17-.83,2.08,2.08,0,0,0-.45-.67,2.33,2.33,0,0,0-.68-.46,2.09,2.09,0,0,0-.83-.17,2.12,2.12,0,0,0-.83.17,2.22,2.22,0,0,0-1.13,1.13,2.12,2.12,0,0,0-.17.83V77.1a.7.7,0,0,1-.2.5.71.71,0,0,1-1,0,.66.66,0,0,1-.2-.5V67.88a.69.69,0,0,1,.2-.51.71.71,0,0,1,1.21.51v3.54a4.52,4.52,0,0,1,1-.52,3.53,3.53,0,0,1,1.13-.19,3.59,3.59,0,0,1,1.39.28,3.47,3.47,0,0,1,1.12.76,3.56,3.56,0,0,1,1,2.51V77.1a.67.67,0,0,1-.21.5.7.7,0,0,1-1,0,.67.67,0,0,1-.21-.5Z"/><path class="cls-20" d="M92.44,77.1a.67.67,0,0,1-.21.5.7.7,0,0,1-1,0,.67.67,0,0,1-.21-.5V69.29a2.08,2.08,0,0,1,.17-.82,2.2,2.2,0,0,1,.46-.68A2.12,2.12,0,0,1,94,67.34a2.08,2.08,0,0,1,.67.45.67.67,0,0,1,.22.51.74.74,0,0,1-.71.71.69.69,0,0,1-.51-.21.7.7,0,0,0-.5-.21.66.66,0,0,0-.5.21.68.68,0,0,0-.21.49v1.42h1.67a.69.69,0,0,1,.51.21.7.7,0,0,1,.2.5.68.68,0,0,1-.71.71H92.44Z"/><path class="cls-20" d="M99,77.81a3.37,3.37,0,0,1-1.38-.28,3.55,3.55,0,1,1,4.65-4.65,3.54,3.54,0,0,1,0,2.76,3.54,3.54,0,0,1-1.89,1.89A3.37,3.37,0,0,1,99,77.81Zm0-1.42a2.12,2.12,0,0,0,.83-.17,2.28,2.28,0,0,0,.67-.46,2.16,2.16,0,0,0,.46-.67,2.11,2.11,0,0,0,0-1.66,2.22,2.22,0,0,0-1.13-1.13,2.11,2.11,0,0,0-1.66,0A2.22,2.22,0,0,0,97,73.43a2.11,2.11,0,0,0,0,1.66,2.16,2.16,0,0,0,.46.67,2.28,2.28,0,0,0,.67.46A2.12,2.12,0,0,0,99,76.39Z"/><path class="cls-20" d="M104,71.42a.66.66,0,0,1,.2-.5.71.71,0,0,1,1,0,.7.7,0,0,1,.2.5,4.52,4.52,0,0,1,1-.52,3.53,3.53,0,0,1,1.13-.19.69.69,0,0,1,.51.21.7.7,0,0,1,.2.5.68.68,0,0,1-.71.71,2.12,2.12,0,0,0-.83.17,2.22,2.22,0,0,0-1.13,1.13,2.12,2.12,0,0,0-.17.83V77.1a.7.7,0,0,1-.2.5.71.71,0,0,1-1,0,.66.66,0,0,1-.2-.5Z"/><path class="cls-20" d="M43.78,94.11,41.1,88.73a.65.65,0,0,1,0-.53.74.74,0,0,1,.36-.42.7.7,0,0,1,.53,0,.68.68,0,0,1,.42.36l2.2,4.4,2.2-4.41a.76.76,0,0,1,.42-.35.75.75,0,0,1,.55,0,.74.74,0,0,1,.34.42.7.7,0,0,1,0,.55L44.23,96.4a3.57,3.57,0,0,1-1.29,1.41,3.42,3.42,0,0,1-1.89.54.68.68,0,0,1-.5-.2.72.72,0,0,1,.5-1.22,1.87,1.87,0,0,0,.57-.08,2.3,2.3,0,0,0,.53-.23,1.91,1.91,0,0,0,.44-.34,1.49,1.49,0,0,0,.31-.4Z"/><path class="cls-20" d="M52.39,94.81A3.37,3.37,0,0,1,51,94.53a3.55,3.55,0,1,1,4.65-4.65,3.54,3.54,0,0,1,0,2.76,3.54,3.54,0,0,1-1.89,1.89A3.37,3.37,0,0,1,52.39,94.81Zm0-1.42a2.12,2.12,0,0,0,.83-.17,2.28,2.28,0,0,0,.67-.46,2,2,0,0,0,.46-.67,2.1,2.1,0,0,0-.46-2.33,2.28,2.28,0,0,0-.67-.46,2.11,2.11,0,0,0-1.66,0,2.22,2.22,0,0,0-1.13,1.13,2.11,2.11,0,0,0,0,1.66,2.16,2.16,0,0,0,.46.67,2.28,2.28,0,0,0,.67.46A2.12,2.12,0,0,0,52.39,93.39Z"/><path class="cls-20" d="M64.16,94.1a.66.66,0,0,1-.2.5.71.71,0,0,1-1,0,.66.66,0,0,1-.2-.5,4.13,4.13,0,0,1-1,.52,3.53,3.53,0,0,1-1.13.19,3.34,3.34,0,0,1-1.38-.28,3.41,3.41,0,0,1-1.13-.76,3.56,3.56,0,0,1-1-2.51V88.42a.67.67,0,0,1,.21-.5.7.7,0,0,1,1,0,.67.67,0,0,1,.21.5v2.84a2.12,2.12,0,0,0,.17.83,2,2,0,0,0,.45.67,2.33,2.33,0,0,0,.68.46,2.09,2.09,0,0,0,.83.17,2.12,2.12,0,0,0,.83-.17,2.28,2.28,0,0,0,.67-.46,2.16,2.16,0,0,0,.46-.67,2.12,2.12,0,0,0,.17-.83V88.42a.66.66,0,0,1,.2-.5.71.71,0,0,1,1,0,.66.66,0,0,1,.2.5Z"/><path class="cls-20" d="M65.58,88.42a.72.72,0,0,1,.71-.71.69.69,0,0,1,.51.21.7.7,0,0,1,.2.5,4.52,4.52,0,0,1,1-.52,3.53,3.53,0,0,1,1.13-.19.66.66,0,0,1,.5.21.67.67,0,0,1,.21.5.69.69,0,0,1-.21.51.69.69,0,0,1-.5.2,2.12,2.12,0,0,0-.83.17,2.22,2.22,0,0,0-1.13,1.13,2.12,2.12,0,0,0-.17.83V94.1a.7.7,0,0,1-.2.5.69.69,0,0,1-.51.21.72.72,0,0,1-.71-.71Z"/><path class="cls-20" d="M41.76,111.1a.7.7,0,0,1-.2.5.71.71,0,0,1-1,0,.67.67,0,0,1-.21-.5v-7.81a2,2,0,0,1,.17-.82,2.2,2.2,0,0,1,.46-.68,2.08,2.08,0,0,1,.67-.45,2,2,0,0,1,.83-.17,1.93,1.93,0,0,1,.83.17,2.12,2.12,0,0,1,.68.45.69.69,0,0,1,.21.51.66.66,0,0,1-.21.5.67.67,0,0,1-.5.21.69.69,0,0,1-.51-.21.69.69,0,0,0-.5-.21.67.67,0,0,0-.5.21.68.68,0,0,0-.21.49v1.42h1.68a.72.72,0,0,1,.71.71.69.69,0,0,1-.21.51.7.7,0,0,1-.5.2H41.76Z"/><path class="cls-20" d="M50.43,111.08a3.38,3.38,0,0,1-1,.53,3.58,3.58,0,0,1-1.14.18,3.54,3.54,0,0,1-1.38-.27A3.54,3.54,0,0,1,45,109.63a3.69,3.69,0,0,1,0-2.77,3.81,3.81,0,0,1,.76-1.13,3.49,3.49,0,0,1,1.13-.75,3.57,3.57,0,0,1,2.77,0,3.42,3.42,0,0,1,1.88,1.88,3.39,3.39,0,0,1,.28,1.39v2.85a.67.67,0,0,1-.21.5.7.7,0,0,1-1,0,.67.67,0,0,1-.21-.5Zm-2.13-.71a1.93,1.93,0,0,0,.83-.17,2.12,2.12,0,0,0,.68-.45,2.08,2.08,0,0,0,.45-.67,2.12,2.12,0,0,0,.17-.83,2.09,2.09,0,0,0-.17-.83,2,2,0,0,0-1.13-1.13,1.93,1.93,0,0,0-.83-.17,2,2,0,0,0-.83.17,2.08,2.08,0,0,0-.67.45,2.12,2.12,0,0,0-.45.68,1.93,1.93,0,0,0-.17.83,2,2,0,0,0,.17.83,2.09,2.09,0,0,0,1.12,1.12A2,2,0,0,0,48.3,110.37Z"/><path class="cls-20" d="M52.79,105.73a.65.65,0,0,1,0-.53.74.74,0,0,1,.36-.42.7.7,0,0,1,.53,0,.68.68,0,0,1,.42.36l2.2,4.4,2.2-4.41a.76.76,0,0,1,.42-.35.75.75,0,0,1,.55,0,.76.76,0,0,1,.31,1l-2.84,5.66a1.08,1.08,0,0,1-.16.2.57.57,0,0,1-.19.13.52.52,0,0,1-.29.07.6.6,0,0,1-.3-.07.57.57,0,0,1-.19-.13.75.75,0,0,1-.15-.2Z"/><path class="cls-20" d="M64.22,111.81a3.37,3.37,0,0,1-1.38-.28,3.51,3.51,0,0,1-1.13-.76,3.68,3.68,0,0,1-.76-1.13,3.54,3.54,0,0,1,0-2.76,3.68,3.68,0,0,1,.76-1.13,3.56,3.56,0,0,1,2.51-1,3.63,3.63,0,0,1,1.39.28,3.58,3.58,0,0,1,1.12.76,3.51,3.51,0,0,1,.76,1.13,3.54,3.54,0,0,1,0,2.76,3.51,3.51,0,0,1-.76,1.13,3.58,3.58,0,0,1-1.12.76A3.45,3.45,0,0,1,64.22,111.81Zm0-1.42a2.12,2.12,0,0,0,.83-.17,2.33,2.33,0,0,0,.68-.46,2.12,2.12,0,0,0,.45-2.33,2.25,2.25,0,0,0-.45-.67,2.33,2.33,0,0,0-.68-.46,2.11,2.11,0,0,0-1.66,0,2.22,2.22,0,0,0-1.13,1.13,2.11,2.11,0,0,0,0,1.66,2.16,2.16,0,0,0,.46.67,2.28,2.28,0,0,0,.67.46A2.12,2.12,0,0,0,64.22,110.39Z"/><path class="cls-20" d="M69.19,105.42a.7.7,0,0,1,.2-.5.69.69,0,0,1,.51-.21.72.72,0,0,1,.71.71,4.24,4.24,0,0,1,1-.52,3.57,3.57,0,0,1,1.13-.19.69.69,0,0,1,.51.21.7.7,0,0,1,.2.5.68.68,0,0,1-.71.71,2.12,2.12,0,0,0-.83.17,2.28,2.28,0,0,0-.67.46,2.08,2.08,0,0,0-.45.67,2,2,0,0,0-.17.83v2.84a.72.72,0,0,1-.71.71.69.69,0,0,1-.51-.21.7.7,0,0,1-.2-.5Z"/><path class="cls-20" d="M76.28,102.66a.76.76,0,0,1-.23.55.77.77,0,0,1-1.1,0,.78.78,0,0,1,0-1.11.8.8,0,0,1,1.1,0A.77.77,0,0,1,76.28,102.66Zm-1.49,8.44a.67.67,0,0,0,.21.5.7.7,0,0,0,1,0,.67.67,0,0,0,.21-.5v-5.68a.67.67,0,0,0-.21-.5.7.7,0,0,0-1,0,.67.67,0,0,0-.21.5Z"/><path class="cls-20" d="M77.7,102.59a.73.73,0,0,1,.2-.51.69.69,0,0,1,.51-.2.65.65,0,0,1,.5.2.69.69,0,0,1,.21.51v2.12h1.13a.69.69,0,0,1,.51.21.7.7,0,0,1,.2.5.68.68,0,0,1-.71.71H79.12v3.55a.74.74,0,0,0,.2.5.69.69,0,0,0,.51.21.67.67,0,0,0,.49-.21.7.7,0,0,1,.51-.22.74.74,0,0,1,.71.71.69.69,0,0,1-.21.51,2.28,2.28,0,0,1-.67.46,2.12,2.12,0,0,1-.83.17,2.09,2.09,0,0,1-.83-.17,2.33,2.33,0,0,1-.68-.46,2.08,2.08,0,0,1-.45-.67,2.12,2.12,0,0,1-.17-.83Z"/><path class="cls-20" d="M84.15,109a2.09,2.09,0,0,0,.76,1,2,2,0,0,0,1.24.4,2.17,2.17,0,0,0,.84-.17,2.42,2.42,0,0,0,.67-.46.68.68,0,0,1,.5-.19.75.75,0,0,1,.51.19.74.74,0,0,1,.19.51.71.71,0,0,1-.19.5,3.79,3.79,0,0,1-1.14.76,3.31,3.31,0,0,1-1.38.28,3.37,3.37,0,0,1-1.38-.28,3.63,3.63,0,0,1-1.13-.76,3.68,3.68,0,0,1-.76-1.13,3.66,3.66,0,0,1,0-2.76,3.68,3.68,0,0,1,.76-1.13,3.63,3.63,0,0,1,1.13-.76,3.57,3.57,0,0,1,2.77,0,3.63,3.63,0,0,1,1.13.76,3.68,3.68,0,0,1,.76,1.13,3.54,3.54,0,0,1,.27,1.38.74.74,0,0,1-.2.5A.69.69,0,0,1,89,109Zm4-1.42a2.09,2.09,0,0,0-.76-1,2.14,2.14,0,0,0-2.49,0,2.11,2.11,0,0,0-.77,1Z"/><path class="cls-20" d="M41.76,131.64a.73.73,0,0,1-.2.51.69.69,0,0,1-.51.2.68.68,0,0,1-.5-.2.69.69,0,0,1-.21-.51v-9.22a.67.67,0,0,1,.21-.5.71.71,0,0,1,1,0,.7.7,0,0,1,.2.5,4.52,4.52,0,0,1,1-.52,3.53,3.53,0,0,1,1.13-.19,3.63,3.63,0,0,1,1.39.28,3.58,3.58,0,0,1,1.12.76,3.51,3.51,0,0,1,.76,1.13,3.54,3.54,0,0,1,0,2.76,3.51,3.51,0,0,1-.76,1.13,3.58,3.58,0,0,1-1.12.76,3.45,3.45,0,0,1-1.39.28,3.53,3.53,0,0,1-1.13-.19,4.13,4.13,0,0,1-1-.52Zm2.13-4.25a2.12,2.12,0,0,0,.83-.17,2.33,2.33,0,0,0,.68-.46,2.12,2.12,0,0,0,.45-2.33,2.25,2.25,0,0,0-.45-.67,2.33,2.33,0,0,0-.68-.46,2.11,2.11,0,0,0-1.66,0,2.22,2.22,0,0,0-1.13,1.13,2.11,2.11,0,0,0,0,1.66,2.16,2.16,0,0,0,.46.67,2.28,2.28,0,0,0,.67.46A2.12,2.12,0,0,0,43.89,127.39Z"/><path class="cls-20" d="M48.86,122.42a.7.7,0,0,1,.2-.5.69.69,0,0,1,.51-.21.72.72,0,0,1,.71.71,4.24,4.24,0,0,1,1-.52,3.57,3.57,0,0,1,1.13-.19.69.69,0,0,1,.51.21.7.7,0,0,1,.2.5.68.68,0,0,1-.71.71,2.12,2.12,0,0,0-.83.17,2.28,2.28,0,0,0-.67.46,2.08,2.08,0,0,0-.45.67,2,2,0,0,0-.17.83v2.84a.72.72,0,0,1-.71.71.69.69,0,0,1-.51-.21.7.7,0,0,1-.2-.5Z"/><path class="cls-20" d="M57.08,128.81a3.37,3.37,0,0,1-1.38-.28,3.63,3.63,0,0,1-1.13-.76,3.68,3.68,0,0,1-.76-1.13,3.66,3.66,0,0,1,0-2.76,3.68,3.68,0,0,1,.76-1.13A3.63,3.63,0,0,1,55.7,122a3.57,3.57,0,0,1,2.77,0,3.63,3.63,0,0,1,1.13.76,3.68,3.68,0,0,1,.76,1.13,3.66,3.66,0,0,1,0,2.76,3.68,3.68,0,0,1-.76,1.13,3.63,3.63,0,0,1-1.13.76A3.39,3.39,0,0,1,57.08,128.81Zm0-1.42a2.09,2.09,0,0,0,.83-.17,2.33,2.33,0,0,0,.68-.46,2.12,2.12,0,0,0,.45-2.33,2.08,2.08,0,0,0-.45-.67,2.33,2.33,0,0,0-.68-.46,2.09,2.09,0,0,0-.83-.17,2.12,2.12,0,0,0-.83.17,2.28,2.28,0,0,0-.67.46,2.08,2.08,0,0,0-.45.67,2.13,2.13,0,0,0,.45,2.33,2.28,2.28,0,0,0,.67.46A2.12,2.12,0,0,0,57.08,127.39Z"/><path class="cls-20" d="M68.72,128.1a.67.67,0,0,1-.21.5.7.7,0,0,1-1,0,.67.67,0,0,1-.21-.5,3.89,3.89,0,0,1-1,.52,3.59,3.59,0,0,1-1.14.19,3.37,3.37,0,0,1-1.38-.28,3.51,3.51,0,0,1-1.13-.76,3.68,3.68,0,0,1-.76-1.13,3.54,3.54,0,0,1,0-2.76,3.68,3.68,0,0,1,.76-1.13,3.56,3.56,0,0,1,2.51-1,3.59,3.59,0,0,1,1.14.19,4.24,4.24,0,0,1,1,.52v-3.54a.69.69,0,0,1,.21-.51.73.73,0,0,1,1,0,.69.69,0,0,1,.21.51Zm-3.55-.71a2.12,2.12,0,0,0,.83-.17,2.33,2.33,0,0,0,.68-.46,2.12,2.12,0,0,0,.45-2.33,2.25,2.25,0,0,0-.45-.67,2.33,2.33,0,0,0-.68-.46,2.11,2.11,0,0,0-1.66,0,2.22,2.22,0,0,0-1.13,1.13,2.11,2.11,0,0,0,0,1.66,2.16,2.16,0,0,0,.46.67,2.28,2.28,0,0,0,.67.46A2.12,2.12,0,0,0,65.17,127.39Z"/><path class="cls-20" d="M77.23,128.1a.7.7,0,0,1-.2.5.69.69,0,0,1-.51.21.66.66,0,0,1-.5-.21.67.67,0,0,1-.21-.5,3.89,3.89,0,0,1-1,.52,3.59,3.59,0,0,1-1.14.19,3.37,3.37,0,0,1-1.38-.28,3.51,3.51,0,0,1-1.13-.76,3.68,3.68,0,0,1-.76-1.13,3.54,3.54,0,0,1-.27-1.38v-2.84a.7.7,0,0,1,.2-.5.69.69,0,0,1,.51-.21.72.72,0,0,1,.71.71v2.84a2.14,2.14,0,0,0,.62,1.5,2.28,2.28,0,0,0,.67.46,2.12,2.12,0,0,0,.83.17,2.09,2.09,0,0,0,.83-.17,2.33,2.33,0,0,0,.68-.46,2.14,2.14,0,0,0,.62-1.5v-2.84a.67.67,0,0,1,.21-.5.66.66,0,0,1,.5-.21.69.69,0,0,1,.51.21.7.7,0,0,1,.2.5Z"/><path class="cls-20" d="M84.71,127.77a3.51,3.51,0,0,1-1.13.76,3.57,3.57,0,0,1-2.77,0,3.47,3.47,0,0,1-1.12-.76,3.55,3.55,0,0,1,0-5,3.47,3.47,0,0,1,1.12-.76,3.56,3.56,0,0,1,1.39-.28,3.46,3.46,0,0,1,1.37.28,3.67,3.67,0,0,1,1.14.76.72.72,0,0,1,.2.5.74.74,0,0,1-.2.51.73.73,0,0,1-.51.2.69.69,0,0,1-.5-.2,2.28,2.28,0,0,0-.67-.46,2.12,2.12,0,0,0-.83-.17,2.09,2.09,0,0,0-.83.17,2.33,2.33,0,0,0-.68.46,2.08,2.08,0,0,0-.45.67,2.11,2.11,0,0,0,0,1.66,2,2,0,0,0,.45.67,2.33,2.33,0,0,0,.68.46,2.09,2.09,0,0,0,.83.17,2.12,2.12,0,0,0,.83-.17,2.28,2.28,0,0,0,.67-.46.71.71,0,0,1,.5-.19.72.72,0,0,1,.51.19.74.74,0,0,1,.2.51A.72.72,0,0,1,84.71,127.77Z"/><path class="cls-20" d="M86.62,119.59a.69.69,0,0,1,.21-.51.66.66,0,0,1,.5-.2.69.69,0,0,1,.51.2.73.73,0,0,1,.2.51v2.12h1.14a.69.69,0,0,1,.5.21.67.67,0,0,1,.21.5.69.69,0,0,1-.21.51.72.72,0,0,1-.5.2H88v3.55a.7.7,0,0,0,.21.5.66.66,0,0,0,.5.21.69.69,0,0,0,.5-.21.67.67,0,0,1,.51-.22.76.76,0,0,1,.71.71.67.67,0,0,1-.22.51,2.16,2.16,0,0,1-.67.46,2.11,2.11,0,0,1-1.66,0,2.22,2.22,0,0,1-1.13-1.13,2.12,2.12,0,0,1-.17-.83Z"/><path class="cls-20" d="M100.26,128.81a3.42,3.42,0,0,1-1.39-.28,3.47,3.47,0,0,1-1.12-.76,3.55,3.55,0,0,1,0-5,3.47,3.47,0,0,1,1.12-.76,3.59,3.59,0,0,1,1.39-.28,3.56,3.56,0,0,1,2.51,1,3.68,3.68,0,0,1,.76,1.13,3.66,3.66,0,0,1,0,2.76,3.68,3.68,0,0,1-.76,1.13,3.51,3.51,0,0,1-1.13.76A3.37,3.37,0,0,1,100.26,128.81Zm0-1.42a2.12,2.12,0,0,0,.83-.17,2.28,2.28,0,0,0,.67-.46,2.16,2.16,0,0,0,.46-.67,2.11,2.11,0,0,0,0-1.66,2.22,2.22,0,0,0-1.13-1.13,2.12,2.12,0,0,0-.83-.17,2.09,2.09,0,0,0-.83.17,2.33,2.33,0,0,0-.68.46,2.08,2.08,0,0,0-.45.67,2.11,2.11,0,0,0,0,1.66,2,2,0,0,0,.45.67,2.33,2.33,0,0,0,.68.46A2.09,2.09,0,0,0,100.26,127.39Z"/><path class="cls-20" d="M105.22,122.42a.72.72,0,0,1,.71-.71.69.69,0,0,1,.51.21.7.7,0,0,1,.2.5,4.45,4.45,0,0,1,1-.52,3.59,3.59,0,0,1,1.14-.19.66.66,0,0,1,.5.21.67.67,0,0,1,.21.5.69.69,0,0,1-.21.51.69.69,0,0,1-.5.2,2.12,2.12,0,0,0-.83.17,2.16,2.16,0,0,0-.67.46,2.09,2.09,0,0,0-.63,1.5v2.84a.7.7,0,0,1-.2.5.69.69,0,0,1-.51.21.72.72,0,0,1-.71-.71Z"/><path class="cls-20" d="M41.37,145.81a.69.69,0,0,1-.51-.21.7.7,0,0,1-.2-.5.68.68,0,0,1,.71-.71H44.2a.69.69,0,0,0,.51-.21.69.69,0,0,0,.2-.5.68.68,0,0,0-.71-.71H42.78a2.09,2.09,0,0,1-1.5-.63,2.12,2.12,0,0,1-.45-2.33,2.08,2.08,0,0,1,.45-.67,2.28,2.28,0,0,1,.67-.46,2.12,2.12,0,0,1,.83-.17h2a.69.69,0,0,1,.5.21.67.67,0,0,1,.21.5.69.69,0,0,1-.21.51.72.72,0,0,1-.5.2h-2a.69.69,0,0,0-.5.21.7.7,0,0,0,0,1,.69.69,0,0,0,.5.21H44.2a2.09,2.09,0,0,1,.83.17,2.3,2.3,0,0,1,.68.45,2.12,2.12,0,0,1,.45.68,2.11,2.11,0,0,1,0,1.66,2.08,2.08,0,0,1-.45.67,2.33,2.33,0,0,1-.68.46,2.09,2.09,0,0,1-.83.17Z"/><path class="cls-20" d="M48.56,143a2,2,0,0,0,.76,1,2,2,0,0,0,1.24.4,2.12,2.12,0,0,0,.83-.17,2.28,2.28,0,0,0,.67-.46.69.69,0,0,1,.5-.19.72.72,0,0,1,.51.19.74.74,0,0,1,.2.51.72.72,0,0,1-.2.5,3.75,3.75,0,0,1-1.13.76,3.54,3.54,0,0,1-2.76,0,3.54,3.54,0,0,1-1.89-1.89,3.54,3.54,0,0,1,0-2.76,3.55,3.55,0,0,1,6.82,1.38.7.7,0,0,1-.21.5.67.67,0,0,1-.5.21Zm4-1.42a2.12,2.12,0,0,0-3.24-1,2.13,2.13,0,0,0-.78,1Z"/><path class="cls-20" d="M55.24,139.42a.67.67,0,0,1,.21-.5.7.7,0,0,1,1,0,.67.67,0,0,1,.21.5,4.24,4.24,0,0,1,1-.52,3.59,3.59,0,0,1,1.14-.19.72.72,0,0,1,.71.71.69.69,0,0,1-.21.51.7.7,0,0,1-.5.2,2.09,2.09,0,0,0-.83.17,2.33,2.33,0,0,0-.68.46,2.08,2.08,0,0,0-.45.67,2.12,2.12,0,0,0-.17.83v2.84a.67.67,0,0,1-.21.5.7.7,0,0,1-1,0,.67.67,0,0,1-.21-.5Z"/><path class="cls-20" d="M60.72,139.73a.65.65,0,0,1,0-.53.74.74,0,0,1,.36-.42.7.7,0,0,1,.53,0,.68.68,0,0,1,.42.36l2.2,4.4,2.2-4.41a.76.76,0,0,1,.42-.35.75.75,0,0,1,.55,0,.74.74,0,0,1,.34.42.7.7,0,0,1,0,.55l-2.84,5.66a1.73,1.73,0,0,1-.15.2.77.77,0,0,1-.2.13.52.52,0,0,1-.29.07.6.6,0,0,1-.3-.07.57.57,0,0,1-.19-.13.75.75,0,0,1-.15-.2Z"/><path class="cls-20" d="M70.45,136.66a.76.76,0,0,1-.23.55.77.77,0,0,1-1.1,0,.78.78,0,0,1,0-1.11.8.8,0,0,1,1.1,0A.77.77,0,0,1,70.45,136.66ZM69,145.1a.67.67,0,0,0,.21.5.7.7,0,0,0,1,0,.67.67,0,0,0,.21-.5v-5.68a.67.67,0,0,0-.21-.5.7.7,0,0,0-1,0,.67.67,0,0,0-.21.5Z"/><path class="cls-20" d="M77.64,144.77a3.47,3.47,0,0,1-1.12.76,3.42,3.42,0,0,1-1.39.28,3.37,3.37,0,0,1-1.38-.28,3.51,3.51,0,0,1-1.13-.76,3.68,3.68,0,0,1-.76-1.13,3.66,3.66,0,0,1,0-2.76,3.68,3.68,0,0,1,.76-1.13,3.55,3.55,0,0,1,3.89-.76,3.75,3.75,0,0,1,1.13.76.68.68,0,0,1,.2.5.7.7,0,0,1-.2.51.72.72,0,0,1-.51.19.66.66,0,0,1-.49-.19,2.33,2.33,0,0,0-.68-.46,2.09,2.09,0,0,0-.83-.17,2.12,2.12,0,0,0-.83.17,2.22,2.22,0,0,0-1.13,1.13,2.11,2.11,0,0,0,0,1.66,2.22,2.22,0,0,0,1.13,1.13,2.12,2.12,0,0,0,.83.17,2.09,2.09,0,0,0,.83-.17,2.33,2.33,0,0,0,.68-.46.75.75,0,0,1,1,0,.7.7,0,0,1,.2.51A.68.68,0,0,1,77.64,144.77Z"/><path class="cls-20" d="M80.25,143a2.09,2.09,0,0,0,.76,1,2,2,0,0,0,1.24.4,2.09,2.09,0,0,0,.83-.17,2.33,2.33,0,0,0,.68-.46.67.67,0,0,1,.49-.19.76.76,0,0,1,.52.19.74.74,0,0,1,.19.51.71.71,0,0,1-.19.5,3.79,3.79,0,0,1-1.14.76,3.54,3.54,0,0,1-2.76,0,3.51,3.51,0,0,1-1.13-.76,3.68,3.68,0,0,1-.76-1.13,3.66,3.66,0,0,1,0-2.76,3.68,3.68,0,0,1,.76-1.13,3.56,3.56,0,0,1,2.51-1,3.56,3.56,0,0,1,1.39.28,3.63,3.63,0,0,1,1.13.76,3.49,3.49,0,0,1,.75,1.13,3.37,3.37,0,0,1,.28,1.38.7.7,0,0,1-.21.5.66.66,0,0,1-.5.21Zm4-1.42a2,2,0,0,0-.76-1,2,2,0,0,0-1.24-.4,2,2,0,0,0-1.24.4,2.11,2.11,0,0,0-.77,1Z"/><path class="cls-21" d="M43.89,162.81a3.37,3.37,0,0,1-1.38-.28,3.51,3.51,0,0,1-1.13-.76,3.68,3.68,0,0,1-.76-1.13,3.54,3.54,0,0,1,0-2.76,3.68,3.68,0,0,1,.76-1.13,3.51,3.51,0,0,1,1.13-.76,3.37,3.37,0,0,1,1.38-.28,3.45,3.45,0,0,1,1.39.28,3.58,3.58,0,0,1,1.12.76,3.51,3.51,0,0,1,.76,1.13,3.54,3.54,0,0,1,0,2.76,3.51,3.51,0,0,1-.76,1.13,3.58,3.58,0,0,1-1.12.76A3.45,3.45,0,0,1,43.89,162.81Zm0-1.14a2.32,2.32,0,0,0,.94-.19,2.5,2.5,0,0,0,1.28-1.28,2.42,2.42,0,0,0,0-1.88,2.51,2.51,0,0,0-.52-.76,2.39,2.39,0,0,0-.76-.52A2.42,2.42,0,0,0,43,157a2.5,2.5,0,0,0-1.28,1.28,2.42,2.42,0,0,0,0,1.88,2.39,2.39,0,0,0,.52.76,2.51,2.51,0,0,0,.76.52A2.32,2.32,0,0,0,43.89,161.67Z"/><path class="cls-21" d="M54.67,159.26a2.36,2.36,0,0,0-.71-1.7,2.39,2.39,0,0,0-.76-.52,2.29,2.29,0,0,0-.94-.19,2.24,2.24,0,0,0-.93.19,2.43,2.43,0,0,0-.77.52,2.51,2.51,0,0,0-.52.76,2.32,2.32,0,0,0-.19.94v3a.52.52,0,0,1-.16.4.57.57,0,0,1-.41.17.54.54,0,0,1-.4-.17.52.52,0,0,1-.16-.4v-6a.54.54,0,0,1,.16-.4.54.54,0,0,1,.4-.17.57.57,0,0,1,.41.17.54.54,0,0,1,.16.4v.38a3.69,3.69,0,0,1,1.09-.7,3.6,3.6,0,0,1,1.32-.25,3.42,3.42,0,0,1,1.39.28,3.47,3.47,0,0,1,1.12.76,3.56,3.56,0,0,1,1,2.51v3a.56.56,0,0,1-.16.4.57.57,0,0,1-.41.17.54.54,0,0,1-.4-.17.53.53,0,0,1-.17-.4Z"/><path class="cls-21" d="M58.36,162.24a.52.52,0,0,1-.16.4.55.55,0,0,1-.41.17.54.54,0,0,1-.4-.17.52.52,0,0,1-.16-.4v-9.51a.55.55,0,0,1,.56-.56.54.54,0,0,1,.41.16.54.54,0,0,1,.16.4Z"/><path class="cls-21" d="M61.06,153.51a.62.62,0,0,1-.19.46.65.65,0,0,1-.9,0,.62.62,0,0,1-.19-.46.58.58,0,0,1,.19-.45.65.65,0,0,1,.9,0A.58.58,0,0,1,61.06,153.51Zm-1.21,8.73a.58.58,0,0,0,.57.57.54.54,0,0,0,.4-.17.53.53,0,0,0,.17-.4v-6a.58.58,0,0,0-.57-.57.53.53,0,0,0-.4.17.54.54,0,0,0-.17.4Z"/><path class="cls-21" d="M68.44,159.26a2.33,2.33,0,0,0-.2-.94,2.48,2.48,0,0,0-.51-.76A2.55,2.55,0,0,0,67,157a2.4,2.4,0,0,0-1.87,0,2.43,2.43,0,0,0-.77.52,2.36,2.36,0,0,0-.71,1.7v3a.52.52,0,0,1-.16.4.55.55,0,0,1-.41.17.54.54,0,0,1-.4-.17.52.52,0,0,1-.16-.4v-6a.54.54,0,0,1,.16-.4.54.54,0,0,1,.4-.17.55.55,0,0,1,.41.17.54.54,0,0,1,.16.4v.38a3.69,3.69,0,0,1,1.09-.7,3.6,3.6,0,0,1,1.32-.25,3.39,3.39,0,0,1,1.39.28,3.63,3.63,0,0,1,1.13.76,3.49,3.49,0,0,1,.75,1.13,3.37,3.37,0,0,1,.28,1.38v3a.52.52,0,0,1-.16.4.57.57,0,0,1-.41.17.54.54,0,0,1-.4-.17.52.52,0,0,1-.16-.4Z"/><path class="cls-21" d="M71.91,159.83a2.83,2.83,0,0,0,.31.74,2.44,2.44,0,0,0,.53.58,2.58,2.58,0,0,0,.69.38,2.46,2.46,0,0,0,.81.14,2.29,2.29,0,0,0,.94-.19A2.39,2.39,0,0,0,76,161a.61.61,0,0,1,.41-.15.57.57,0,0,1,.4.15.57.57,0,0,1,.16.41.55.55,0,0,1-.16.4,3.75,3.75,0,0,1-1.13.76,3.54,3.54,0,0,1-2.76,0,3.51,3.51,0,0,1-1.13-.76,3.68,3.68,0,0,1-.76-1.13,3.66,3.66,0,0,1,0-2.76,3.68,3.68,0,0,1,.76-1.13,3.51,3.51,0,0,1,1.13-.76,3.37,3.37,0,0,1,1.38-.28,3.42,3.42,0,0,1,1.39.28,3.47,3.47,0,0,1,1.12.76,3.56,3.56,0,0,1,1,2.51.56.56,0,0,1-.16.4.57.57,0,0,1-.41.17Zm4.68-1.14a2.31,2.31,0,0,0-.32-.74,2.4,2.4,0,0,0-.52-.58,2.31,2.31,0,0,0-.69-.38,2.38,2.38,0,0,0-.81-.14,2.46,2.46,0,0,0-.81.14,2.58,2.58,0,0,0-.69.38,2.44,2.44,0,0,0-.53.58,2.83,2.83,0,0,0-.31.74Z"/><path class="cls-21" d="M80.49,162.17a.61.61,0,0,1-.18.45.58.58,0,0,1-.45.19.62.62,0,0,1-.46-.19.61.61,0,0,1-.18-.45.62.62,0,0,1,.64-.64.61.61,0,0,1,.45.18A.65.65,0,0,1,80.49,162.17Z"/><line class="cls-22" x1="101.5" y1="39.3" x2="73.2" y2="39.3"/><path class="cls-23" d="M102,35.66h0a3.64,3.64,0,1,1-3.63,3.64A3.64,3.64,0,0,1,102,35.66Z"/></svg>