<svg id="Layer_1" data-name="Layer 1" xmlns="http://www.w3.org/2000/svg" xmlns:xlink="http://www.w3.org/1999/xlink" viewBox="0 0 256.52 195.98"><defs><style>.cls-1,.cls-5{opacity:0.1;}.cls-2,.cls-23,.cls-5{fill:#c02b5d;}.cls-3,.cls-7{opacity:0.27;}.cls-4,.cls-7{fill:#e55a92;}.cls-6{fill:#fff;}.cls-8{fill:#fafafa;}.cls-9{fill:url(#linear-gradient);}.cls-10{opacity:0.5;}.cls-11{fill:url(#linear-gradient-2);}.cls-12{fill:url(#linear-gradient-3);}.cls-13,.cls-20{fill:#161129;}.cls-14{fill:url(#linear-gradient-4);}.cls-15{fill:url(#linear-gradient-5);}.cls-16{fill:url(#linear-gradient-6);}.cls-17{fill:#de7860;}.cls-18{fill:#b14d3a;}.cls-19{fill:#c12c5d;}.cls-20{opacity:0.8;}.cls-21{opacity:0.8;}.cls-22{fill:none;stroke:#c02b5d;stroke-miterlimit:10;}.cls-23{fill-rule:evenodd;}</style><linearGradient id="linear-gradient" x1="172.57" y1="96.83" x2="230.82" y2="105.26" gradientTransform="translate(297.14 -114.97) rotate(85.83)" gradientUnits="userSpaceOnUse"><stop offset="0" stop-color="#f8df14"/><stop offset="0.29" stop-color="#f29621"/><stop offset="0.5" stop-color="#d54f2d"/><stop offset="0.65" stop-color="#c93b7e"/><stop offset="0.86" stop-color="#7c4586"/><stop offset="1" stop-color="#5f4287"/></linearGradient><linearGradient id="linear-gradient-2" x1="191.87" y1="100.08" x2="197.16" y2="100.08" gradientTransform="matrix(1, 0, 0, 1, 0, 0)" xlink:href="#linear-gradient"/><linearGradient id="linear-gradient-3" x1="196.96" y1="100.4" x2="199.73" y2="100.4" gradientTransform="translate(283.87 -104.8) rotate(85.78)" xlink:href="#linear-gradient"/><linearGradient id="linear-gradient-4" x1="164.92" y1="129.2" x2="186.31" y2="129.2" gradientTransform="matrix(1, 0, 0, 1, 0, 0)" xlink:href="#linear-gradient"/><linearGradient id="linear-gradient-5" x1="150.52" y1="127.3" x2="186.39" y2="127.54" gradientTransform="matrix(1, 0, 0, 1, 0, 0)" xlink:href="#linear-gradient"/><linearGradient id="linear-gradient-6" x1="169.56" y1="94.37" x2="182.32" y2="93.41" gradientTransform="matrix(1, 0, 0, 1, 0, 0)" xlink:href="#linear-gradient"/></defs><g class="cls-1"><rect class="cls-2" x="111.01" y="101.82" width="24.39" height="46.11"/></g><g class="cls-3"><rect class="cls-4" x="103.77" y="101.82" width="24.39" height="46.11"/></g><path class="cls-5" d="M126.37,111.31H105.43V104h20.94Zm-20.68-.26h20.42v-6.8H105.69Z"/><path class="cls-5" d="M112.07,104.13H120a0,0,0,0,1,0,0v1a.51.51,0,0,1-.51.51h-6.93a.51.51,0,0,1-.51-.51v-1A0,0,0,0,1,112.07,104.13Z"/><path class="cls-5" d="M126.37,120.59H105.43v-7.31h20.94Zm-20.68-.26h20.42v-6.79H105.69Z"/><path class="cls-5" d="M112.07,113.41H120a0,0,0,0,1,0,0v1a.51.51,0,0,1-.51.51h-6.93a.51.51,0,0,1-.51-.51v-1A0,0,0,0,1,112.07,113.41Z"/><path class="cls-5" d="M126.37,129.87H105.43v-7.3h20.94Zm-20.68-.25h20.42v-6.8H105.69Z"/><path class="cls-5" d="M112.07,122.69H120a0,0,0,0,1,0,0v1a.51.51,0,0,1-.51.51h-6.93a.51.51,0,0,1-.51-.51v-1A0,0,0,0,1,112.07,122.69Z"/><path class="cls-5" d="M126.37,139.16H105.43v-7.31h20.94Zm-20.68-.26h20.42v-6.79H105.69Z"/><path class="cls-5" d="M112.07,132H120a0,0,0,0,1,0,0v1a.51.51,0,0,1-.51.51h-6.93a.51.51,0,0,1-.51-.51v-1A0,0,0,0,1,112.07,132Z"/><rect class="cls-5" x="102.69" y="100.09" width="26.49" height="2.3"/><rect class="cls-5" x="129.18" y="100.09" width="7.97" height="2.3"/><rect class="cls-5" x="103.77" y="147.92" width="1.28" height="2.36"/><rect class="cls-5" x="111.69" y="147.92" width="1.28" height="2.36"/><rect class="cls-5" x="126.16" y="147.92" width="1.28" height="2.36"/><rect class="cls-5" x="133.39" y="147.92" width="1.28" height="2.36"/><g class="cls-1"><path class="cls-2" d="M236.2,93.7c-1.22,0-2,1.42-2,2.64s.27,2.48,0,3.66c-.38,1.51-1.72,2.64-2.07,4.15-.41,1.79.65,3.57.79,5.4a15.66,15.66,0,0,0,.12,2.66,3.28,3.28,0,0,0,6.43-.25c.21-1.38-.46-2.81-.16-4.18.21-1,1-1.9,1-2.93,0-1.24-1-2.25-1.22-3.46s.32-2.43.35-3.66c.06-2.22-.94-3.9-3.15-4"/></g><path class="cls-5" d="M236.81,99.47s0,.07,0,.2,0,.33,0,.56c0,.5-.09,1.2-.16,2.06-.13,1.75-.3,4.15-.48,6.81s-.33,5.07-.44,6.81c-.05.86-.09,1.57-.12,2.06,0,.24,0,.43,0,.56a.55.55,0,0,1,0,.2v-.2c0-.13,0-.32,0-.56,0-.5,0-1.2.09-2.06.09-1.75.22-4.16.4-6.82s.37-5.06.52-6.8c.08-.86.15-1.57.19-2.06,0-.24.05-.42.06-.56A1.12,1.12,0,0,1,236.81,99.47Z"/><path class="cls-5" d="M236,123.28h0a3.91,3.91,0,0,0,3.9-3.9v-3.91h-7.8v3.91A3.9,3.9,0,0,0,236,123.28Z"/><path class="cls-6" d="M232.05,117.39l.12.09.35.27,1.2,1h-.06l2.25-1.38h0l0,0,0,0,2.1,1.38H238l1.33-1,.37-.26.14-.09s0,0-.12.12l-.35.29-1.3,1,0,0,0,0-2.11-1.36H236l-2.26,1.36,0,0,0,0-1.18-1-.32-.28C232.08,117.44,232,117.4,232.05,117.39Z"/><path class="cls-6" d="M232.05,116.61l.12.09.35.26,1.2,1h-.06l2.25-1.38h0l0,0,0,0,2.1,1.38H238l1.33-1,.37-.26.14-.09s0,0-.12.12l-.35.29-1.3,1,0,0,0,0-2.11-1.36H236L233.72,118l0,0,0,0-1.18-1-.32-.29C232.08,116.66,232,116.62,232.05,116.61Z"/><path class="cls-6" d="M232.05,118.19l.12.08.35.27,1.2,1h-.06l2.25-1.38h0l0,0,0,0,2.1,1.38H238l1.33-1,.37-.27.14-.08-.12.11-.35.29-1.3,1,0,0,0,0-2.11-1.37H236l-2.26,1.36,0,0,0,0-1.18-1-.32-.29C232.08,118.23,232,118.19,232.05,118.19Z"/><polygon class="cls-5" points="241.49 142.99 243.98 150.13 242.74 150.13 238.38 142.99 241.49 142.99"/><polygon class="cls-5" points="227.2 142.99 224.71 150.13 225.95 150.13 230.31 142.99 227.2 142.99"/><rect class="cls-5" x="221.27" y="123.26" width="19.91" height="19.91" transform="translate(462.45 266.43) rotate(180)"/><rect class="cls-7" x="227.51" y="123.26" width="19.91" height="19.91" transform="translate(474.93 266.43) rotate(180)"/><path class="cls-5" d="M246.1,141.94H228.82V124.67H246.1Zm-17-.25h16.76V124.92H229.08Z"/><path class="cls-5" d="M245.87,130c-5.62-.16-11.3-.12-16.92,0-.08,0-.08.14,0,.14,5.62.11,11.3.15,16.92,0a.06.06,0,1,0,0-.12Z"/><path class="cls-5" d="M237,127.58a.49.49,0,1,0,.48-.48A.49.49,0,0,0,237,127.58Z"/><path class="cls-5" d="M244,135.36a.49.49,0,1,0,.48-.48A.48.48,0,0,0,244,135.36Z"/><polygon class="cls-5" points="118.43 93.9 120.9 100.22 119.37 100.21 118.14 96.33 118.43 93.9"/><polygon class="cls-5" points="110 88.06 109.15 100.17 117.92 100.35 118.9 88.06 110 88.06"/><polygon class="cls-8" points="110.88 89.04 110.17 99.11 116.69 99.42 117.6 88.98 110.88 89.04"/><polygon class="cls-5" points="112.31 90.46 111.78 97.54 115.37 97.54 116.01 90.46 112.31 90.46"/><rect class="cls-5" x="205.79" y="53.55" width="28.28" height="27.79"/><rect class="cls-8" x="206.77" y="54.31" width="26.3" height="26.3"/><rect class="cls-5" x="215.63" y="63.17" width="8.58" height="8.58"/><path class="cls-2" d="M245.63,150.28s-32.85.07-73.36.07-73.38,0-73.38-.07,32.85-.07,73.38-.07S245.63,150.24,245.63,150.28Z"/><rect class="cls-9" x="196.84" y="81.46" width="27.1" height="41.68" rx="1.94" transform="translate(93.08 304.71) rotate(-85.83)"/><path class="cls-6" d="M193,104.83l-.17,2.31-.24,0,.16-2.09-.55,0,0-.21Z"/><path class="cls-6" d="M195.25,107.1l0,.21-1.62-.12,0-.16,1-.87a.82.82,0,0,0,.36-.55c0-.27-.16-.45-.51-.47a.79.79,0,0,0-.65.21l-.16-.16a1,1,0,0,1,.84-.27c.47,0,.75.3.72.68,0,.22-.1.41-.43.7L194,107Z"/><path class="cls-6" d="M197.71,106.88l-.47,0,0,.61-.24,0,0-.61-1.3-.09v-.17l1.33-1.44.27,0-1.29,1.4,1,.07,0-.53h.23l0,.54.46,0Z"/><path class="cls-6" d="M201.24,107.14l-.46,0,0,.6h-.24l0-.61-1.3-.09v-.18l1.34-1.44.26,0-1.29,1.41,1,.07,0-.53h.23l0,.54.46,0Z"/><path class="cls-6" d="M203.27,107.22c0,.39-.33.67-.89.63a1.2,1.2,0,0,1-.81-.35l.13-.18a1.07,1.07,0,0,0,.69.32c.39,0,.61-.15.63-.43s-.15-.5-.73-.54l-.49,0,.2-1.14,1.26.09v.21l-1.06-.08-.13.73.3,0C203.05,106.51,203.3,106.81,203.27,107.22Z"/><path class="cls-6" d="M205.55,107.37a.72.72,0,0,1-.84.65c-.62,0-.92-.49-.86-1.22s.51-1.16,1.14-1.12a1.11,1.11,0,0,1,.54.17l-.11.18a.88.88,0,0,0-.44-.14c-.5,0-.84.26-.89.89a1.2,1.2,0,0,0,0,.19.73.73,0,0,1,.73-.35A.71.71,0,0,1,205.55,107.37Zm-.24,0c0-.3-.19-.51-.54-.54a.54.54,0,0,0-.63.46c0,.26.17.51.57.54A.5.5,0,0,0,205.31,107.36Z"/><path class="cls-6" d="M208.7,107.63c0,.38-.33.66-.88.62a1.14,1.14,0,0,1-.81-.36l.13-.18a1,1,0,0,0,.69.32c.38,0,.61-.13.63-.42s-.16-.47-.59-.5l-.17,0,0-.17.7-.75-1.18-.09v-.21l1.48.11v.16l-.71.78C208.5,107,208.73,107.26,208.7,107.63Z"/><path class="cls-6" d="M211,107.77a.72.72,0,0,1-.84.65c-.61,0-.92-.49-.86-1.22s.51-1.16,1.14-1.12a1.11,1.11,0,0,1,.54.17l-.11.18a.79.79,0,0,0-.44-.14c-.5,0-.84.26-.89.89v.19a.73.73,0,0,1,.73-.35A.7.7,0,0,1,211,107.77Zm-.24,0c0-.3-.18-.51-.54-.54a.53.53,0,0,0-.63.46c0,.25.18.51.57.54A.5.5,0,0,0,210.78,107.76Z"/><path class="cls-6" d="M213.26,106.31v.16l-1.12,2.07-.26,0,1.1-2-1.19-.09,0,.43h-.23l0-.65Z"/><path class="cls-6" d="M216.56,106.55v.16l-1.13,2.07-.25,0,1.1-2-1.19-.09,0,.43h-.23l0-.65Z"/><path class="cls-6" d="M218.71,108.38c0,.41-.4.63-1,.59s-.87-.31-.84-.72a.58.58,0,0,1,.49-.54.53.53,0,0,1-.33-.53c0-.38.37-.59.85-.55s.8.29.77.67a.52.52,0,0,1-.4.48A.58.58,0,0,1,218.71,108.38Zm-.25,0c0-.29-.21-.48-.61-.51s-.67.13-.69.41.21.48.62.51S218.44,108.64,218.46,108.36Zm-.6-.7c.36,0,.58-.12.6-.37s-.19-.44-.54-.46-.58.11-.6.37S217.5,107.63,217.86,107.66Z"/><path class="cls-6" d="M221,108c-.06.78-.52,1.16-1.14,1.12a1.11,1.11,0,0,1-.54-.17l.11-.18a.85.85,0,0,0,.44.14c.5,0,.84-.26.88-.89a1.09,1.09,0,0,0,0-.19.75.75,0,0,1-.74.35.7.7,0,0,1-.72-.75.72.72,0,0,1,.84-.65C220.74,106.83,221,107.28,221,108Zm-.29-.48c0-.26-.18-.51-.58-.54a.5.5,0,0,0-.6.46c0,.3.19.51.55.54A.55.55,0,0,0,220.7,107.53Z"/><path class="cls-6" d="M223.41,107.05l-.17,2.3H223l.15-2.1-.55,0,0-.21Z"/><path class="cls-6" d="M225.63,109.32v.21l-1.62-.12v-.17l1-.87c.28-.24.34-.39.35-.55s-.16-.44-.51-.47a.81.81,0,0,0-.65.21l-.16-.15a1,1,0,0,1,.85-.27c.46,0,.74.29.72.67a1,1,0,0,1-.44.7l-.84.71Z"/><path class="cls-6" d="M227.73,109c0,.39-.33.67-.88.63a1.23,1.23,0,0,1-.81-.36l.13-.18a1,1,0,0,0,.69.32c.39,0,.61-.14.63-.42s-.16-.48-.59-.51h-.16v-.17l.7-.76-1.18-.08v-.22l1.49.11,0,.17-.71.77C227.53,108.37,227.76,108.65,227.73,109Z"/><rect class="cls-6" x="218.53" y="102" width="1" height="18.53" transform="translate(92.16 321.65) rotate(-85.84)"/><rect class="cls-6" x="222.89" y="108.85" width="1" height="9.51" transform="translate(93.87 328.15) rotate(-85.84)"/><g class="cls-10"><rect x="191.95" y="97.22" width="7.78" height="5.81" rx="1.01" transform="translate(7.79 -13.97) rotate(4.17)"/></g><path class="cls-11" d="M191.87,101.14l0-.37,4,.29a.85.85,0,0,0,.9-.78.83.83,0,0,0-.78-.89l-4-.29,0-.38,4,.29a1.21,1.21,0,0,1-.18,2.42Z"/><rect class="cls-12" x="198.16" y="99.02" width="0.37" height="2.75" transform="translate(83.63 290.82) rotate(-85.78)"/><rect class="cls-6" x="193.35" y="92.97" width="20" height="1.72" transform="translate(7.36 -14.54) rotate(4.17)"/><polygon class="cls-8" points="163.18 69.62 163.18 44.1 164.93 45.51 166.35 44.1 167.87 45.34 169.29 44.1 170.72 45.43 172.44 44.1 173.71 45.34 175.09 44.1 176.48 45.47 178.16 44.1 179.59 45.43 181.1 44.1 182.7 45.47 184.12 44.1 185.51 45.3 187.02 44.1 188.62 45.3 190 44.1 190 69.62 163.18 69.62"/><path class="cls-2" d="M163.18,69.62h7.36l19.47,0-.06.06c0-7.41,0-16.14,0-25.52l.11,0-1.39,1.2,0,0,0,0L187,44.15h.08l-.44.36-1.07.84,0,0,0,0-1.39-1.2h.09l-1.43,1.37,0,0,0,0-1.59-1.37h.08l-1.51,1.33,0,0-.05,0-1.43-1.33h.09l-1.68,1.37-.05,0,0,0-1.38-1.38h.09l-1.39,1.24-.05,0,0,0-1.26-1.25h.08l-1.72,1.33,0,0,0,0-1.43-1.33h.08l-1.42,1.24,0,0,0,0-1.51-1.25h.08L165,45.55l0,0,0,0-1.75-1.42.09,0c0,7.68,0,14.06,0,18.51,0,2.23,0,4,0,5.17v1.84s0-.16,0-.46V67.8c0-1.19,0-2.93,0-5.15,0-4.47,0-10.85,0-18.55V44l.09.08L165,45.47h-.07l1.42-1.41,0,0,0,0,1.51,1.25h-.07l1.42-1.25.05,0,0,0,1.43,1.33h-.08l1.72-1.33,0,0,0,0,1.26,1.25h-.09l1.39-1.25,0,0,0,0,1.38,1.37h-.08l1.68-1.37,0,0,0,0,1.43,1.33h-.09l1.52-1.33,0,0,0,0,1.6,1.37h-.09l1.43-1.37,0,0,0,0,1.38,1.2h-.08l1.07-.85.44-.35,0,0,0,0,1.6,1.2h-.08l1.38-1.2.11-.1v.15c0,9.38,0,18.11,0,25.52v0H190l-19.5,0h-7.33Z"/><path class="cls-2" d="M177.13,54.46s-2.5.06-5.58.06-5.59,0-5.59-.06,2.5-.07,5.59-.07S177.13,54.42,177.13,54.46Z"/><path class="cls-2" d="M177.13,57.37s-2.5.06-5.58.06-5.59,0-5.59-.06,2.5-.07,5.59-.07S177.13,57.33,177.13,57.37Z"/><path class="cls-2" d="M177.13,60.28s-2.5.07-5.58.07-5.59,0-5.59-.07,2.5-.07,5.59-.07S177.13,60.24,177.13,60.28Z"/><path class="cls-2" d="M177.13,63.19s-2.5.07-5.58.07-5.59,0-5.59-.07,2.5-.07,5.59-.07S177.13,63.15,177.13,63.19Z"/><path class="cls-2" d="M186.34,54.4a31.07,31.07,0,0,1-3.86,0,26.64,26.64,0,0,1,3.86,0Z"/><path class="cls-2" d="M186.34,57.37a31.07,31.07,0,0,1-3.86,0,26.64,26.64,0,0,1,3.86,0Z"/><path class="cls-2" d="M186.34,60.34a26.64,26.64,0,0,1-3.86,0,26.64,26.64,0,0,1,3.86,0Z"/><path class="cls-2" d="M186.34,63.31a26.64,26.64,0,0,1-3.86,0,26.64,26.64,0,0,1,3.86,0Z"/><polygon class="cls-5" points="163.2 66.19 163.2 65.38 189.94 64.17 189.94 66.31 163.2 66.19"/><rect class="cls-2" x="133.83" y="88.12" width="84.42" height="41.19" rx="6.25" transform="translate(66.52 284.25) rotate(-89.74)"/><path class="cls-8" d="M190.53,69.05,185,69a1.37,1.37,0,0,0-1.36,1.4v1a1.39,1.39,0,0,1-1.36,1.41l-10.84,0a1.39,1.39,0,0,1-1.35-1.42v-1A1.39,1.39,0,0,0,168.72,69h-1.95l-4.87,0a4.38,4.38,0,0,0-4.4,4.36l-.3,70.2a4.38,4.38,0,0,0,4.36,4.39l28.63.14a4.38,4.38,0,0,0,4.4-4.36l.29-70.2A4.36,4.36,0,0,0,190.53,69.05Z"/><path class="cls-13" d="M174.33,141.28a.57.57,0,0,1-.6.51.56.56,0,0,1-.59-.51.6.6,0,0,1,1.19,0Z"/><path class="cls-13" d="M176.16,141.29a.57.57,0,0,1-.6.51.56.56,0,0,1-.59-.51.57.57,0,0,1,.6-.51A.56.56,0,0,1,176.16,141.29Z"/><path class="cls-13" d="M178,141.3a.6.6,0,0,1-1.19,0,.57.57,0,0,1,.6-.51A.56.56,0,0,1,178,141.3Z"/><rect class="cls-13" x="162.06" y="82.78" width="27.94" height="28.83" rx="4.85"/><path class="cls-13" d="M187.75,111.74H164.31a2.38,2.38,0,0,1-2.38-2.38V85a2.38,2.38,0,0,1,2.38-2.38h23.44A2.37,2.37,0,0,1,190.13,85v24.32A2.37,2.37,0,0,1,187.75,111.74ZM164.31,82.91A2.13,2.13,0,0,0,162.19,85v24.32a2.13,2.13,0,0,0,2.12,2.13h23.44a2.14,2.14,0,0,0,2.13-2.13V85a2.14,2.14,0,0,0-2.13-2.13Z"/><path d="M182.16,115.69v2.8h-.65v-2.28H181v-.52Z"/><path d="M182.65,117.09c0-.92.51-1.45,1.2-1.45s1.2.53,1.2,1.45-.51,1.45-1.2,1.45S182.65,118,182.65,117.09Zm1.74,0c0-.63-.22-.9-.54-.9s-.55.27-.55.9.23.9.55.9S184.39,117.73,184.39,117.09Z"/><path class="cls-2" d="M186.82,116.31a.55.55,0,0,1-.58.61.59.59,0,0,1-.31-.08l.1-.19a.37.37,0,0,0,.21.06.3.3,0,0,0,.32-.33.43.43,0,0,1-.28.1.36.36,0,0,1-.39-.35.39.39,0,0,1,.43-.38C186.63,115.75,186.82,116,186.82,116.31Zm-.29-.2c0-.09-.07-.16-.2-.16s-.19.06-.19.16a.17.17,0,0,0,.19.17A.18.18,0,0,0,186.53,116.11Z"/><path class="cls-2" d="M187.86,116.31a.55.55,0,0,1-.58.61.63.63,0,0,1-.32-.08l.1-.19a.39.39,0,0,0,.21.06.3.3,0,0,0,.32-.33.4.4,0,0,1-.28.1.36.36,0,0,1-.39-.35.39.39,0,0,1,.43-.38A.49.49,0,0,1,187.86,116.31Zm-.3-.2c0-.09-.07-.16-.19-.16s-.19.06-.19.16.07.17.19.17A.17.17,0,0,0,187.56,116.11Z"/><rect class="cls-2" x="185.85" y="117.31" width="2" height="0.25"/><rect class="cls-2" x="163.74" y="116.52" width="10.3" height="0.32"/><rect class="cls-2" x="163.74" y="117.54" width="6.25" height="0.32"/><path class="cls-14" d="M185.9,132.46l-20.59-.1c-.22,0-.39-.23-.39-.52l0-5.38c0-.29.17-.52.38-.52l20.6.1c.21,0,.38.23.38.51l0,5.39C186.29,132.23,186.12,132.46,185.9,132.46Z"/><g class="cls-10"><path d="M185.9,132.46l-20.59-.1c-.22,0-.39-.23-.39-.52l0-5.38c0-.29.17-.52.38-.52l20.6.1c.21,0,.38.23.38.51l0,5.39C186.29,132.23,186.12,132.46,185.9,132.46Z"/></g><path class="cls-15" d="M185.9,130.73l-20.59-.09a.48.48,0,0,1-.39-.52l0-5.39c0-.29.17-.52.38-.52l20.6.1c.21,0,.38.23.38.52l0,5.39A.46.46,0,0,1,185.9,130.73Z"/><path class="cls-6" d="M174.69,127.08c0,.35-.24.55-.64.55h-.41v.51h-.17v-1.61h.58C174.45,126.53,174.69,126.74,174.69,127.08Zm-.17,0c0-.25-.16-.4-.47-.4h-.41v.81h.41C174.36,127.48,174.52,127.34,174.52,127.08Z"/><path class="cls-6" d="M175.93,127.72h-.86l-.19.43h-.17l.71-1.61h.16l.7,1.61h-.17Zm-.06-.14-.37-.87-.37.87Z"/><path class="cls-6" d="M177,127.6v.55h-.16v-.55l-.61-1.06h.17l.53.91.53-.91h.16Z"/><path class="cls-6" d="M180.37,101.85h-.71l-1.92,0-6.48,0h0v0l-.15-1.08c-.44-3.14-.82-6-1.06-7.77l0,0-1.72,0h-.46c-.11,0-.16,0-.16,0h.62L170,93h0v0c.27,1.81.67,4.62,1.11,7.77l.15,1.07-.07-.06,6.48,0,1.92,0h.53Z"/><path class="cls-6" d="M171,100h.7l2,0,6.72,0-.07,0c.2-1.13.42-2.35.64-3.62.12-.65.23-1.29.34-1.9l.06.08-7.91,0-2.35,0h-.79s-.06,0-.06,0h.85l2.35,0,7.91,0h.08v.07c-.11.61-.22,1.25-.34,1.9l-.64,3.62V100h0l-6.72,0-2,0h-.52C171.06,100,171,100,171,100Z"/><path class="cls-6" d="M173.54,104.32s0-.08,0-.22a1,1,0,0,0-.34-.47.89.89,0,0,0-.81-.11.84.84,0,0,0-.55.8.85.85,0,0,0,1.36.68.88.88,0,0,0,.34-.47c0-.13,0-.21,0-.21s0,.08,0,.23a1,1,0,0,1-.33.53,1,1,0,0,1-1.56-.76,1,1,0,0,1,.65-.92,1,1,0,0,1,.91.16.92.92,0,0,1,.33.53C173.56,104.24,173.55,104.32,173.54,104.32Z"/><path class="cls-6" d="M179.4,104.32a1.71,1.71,0,0,1-.06-.22.93.93,0,0,0-.33-.47.89.89,0,0,0-.81-.11.87.87,0,0,0-.56.8.85.85,0,0,0,.56.79A.84.84,0,0,0,179,105a.85.85,0,0,0,.33-.47,1.83,1.83,0,0,1,.06-.21.58.58,0,0,1,0,.23.88.88,0,0,1-.32.53,1,1,0,0,1-1.56-.76,1,1,0,0,1,.65-.92,1,1,0,0,1,.91.16.85.85,0,0,1,.32.53A.58.58,0,0,1,179.4,104.32Z"/><circle class="cls-16" cx="180.84" cy="93.52" r="2.6"/><path class="cls-2" d="M182.14,92.84a12.42,12.42,0,0,1-1.2,1.37l-.38.39,0,.05,0,0a7.49,7.49,0,0,1-.94-.9,8.48,8.48,0,0,1,1,.8h-.09l.37-.39A12.86,12.86,0,0,1,182.14,92.84Z"/><path class="cls-13" d="M154,74c0,.09-.82,7.23-.82,7.23l3-.53.77-5.9Z"/><polygon class="cls-2" points="153.14 81.22 152.92 81.09 153.6 73.89 153.95 73.99 153.14 81.22"/><circle class="cls-2" cx="155.4" cy="75.09" r="0.14"/><path class="cls-17" d="M151.34,85.07l5.77,1.51-.88-7.18h0l-.12-.33L154,78.74l.25-1.56a1.26,1.26,0,0,1,1.58-1l.69.18a1.83,1.83,0,0,1,1.15.92c.4.79.79,1.65.75,1.58h0l3.1,8.4a3.18,3.18,0,0,1-.34,3.39c-1,1.29-3.41.39-4.55.17l-7.4-1.63Z"/><path class="cls-17" d="M129.4,97.54a3.94,3.94,0,0,1,0-5.2l6.32-7.17,1.69,4.73c-.12.08-4.92,5.22-4.92,5.22l4.13,5.15a3,3,0,0,1,.49,2.81l-.19.76a1.83,1.83,0,0,1-2.51,1.23l-1.16-.52a.25.25,0,0,1-.11-.36h0a.25.25,0,0,1,.21-.11h1.57a.71.71,0,0,0,.69-.55h0Z"/><path class="cls-18" d="M131.62,94.21s.27.19.56.47a1.67,1.67,0,0,1,.44.58,2.77,2.77,0,0,1-.54-.49A2,2,0,0,1,131.62,94.21Z"/><path class="cls-17" d="M133.12,146.81s6.49-20.61,6.63-21.28-2.36-15.43-2.67-19.27l8.77.33v.07l3.72.2L146.24,149h-4l.4-14a136.64,136.64,0,0,1-6,13.48Z"/><path class="cls-18" d="M142.44,140c0-.13.05-4.68.05-4.68s1.78-5.07,1.81-4.94S142.44,140,142.44,140Z"/><path class="cls-13" d="M139.23,74.51a1.5,1.5,0,0,0-2.12-.07,3,3,0,0,0-.82,2.17c0,.73,0,1.61-.57,2a5.86,5.86,0,0,1-.8.38,1.47,1.47,0,0,0-.75,1.29c0,.39.16.84-.1,1.14a2.14,2.14,0,0,1-.5.32,1.55,1.55,0,0,0-.64,1.44,2.88,2.88,0,0,0,.37,1.24s4.16,0,6.06,0c0,0,0-6.67-.13-10"/><path class="cls-17" d="M146,83.08c0-.47.13-2.33.13-2.33A2.08,2.08,0,0,0,148,78.82c.12-1.76.06-5.83.06-5.83l-3.14-1.62L141.38,74l.35,9.06Z"/><path class="cls-13" d="M147.65,76a.22.22,0,0,1-.23.22.21.21,0,0,1-.21-.22.22.22,0,0,1,.22-.23A.23.23,0,0,1,147.65,76Z"/><path class="cls-13" d="M147.86,75.71s-.19-.12-.43-.13-.41.1-.44.06,0-.06.1-.12a.61.61,0,0,1,.35-.09.59.59,0,0,1,.34.14C147.85,75.64,147.87,75.69,147.86,75.71Z"/><path class="cls-13" d="M145.1,75.92a.23.23,0,0,1-.23.23.23.23,0,1,1,.23-.23Z"/><path class="cls-13" d="M145.24,75.68s-.19-.11-.43-.13-.42.1-.44.07,0-.07.1-.13a.56.56,0,0,1,.35-.09.54.54,0,0,1,.34.15C145.23,75.61,145.25,75.67,145.24,75.68Z"/><path class="cls-13" d="M146.07,77.74a2,2,0,0,1,.39,0c.06,0,.11,0,.13,0a.41.41,0,0,0,0-.2l-.15-.5a10.35,10.35,0,0,1-.35-1.32,8.47,8.47,0,0,1,.45,1.29c.05.17.1.34.14.5a.46.46,0,0,1,0,.26.16.16,0,0,1-.11.09h-.1A1.43,1.43,0,0,1,146.07,77.74Z"/><path class="cls-18" d="M146.1,80.75a4.23,4.23,0,0,1-2.27-.81,2.24,2.24,0,0,0,2.23,1.25Z"/><path class="cls-13" d="M138.91,75.7c0-.13,0,.13,0-.07h0a6,6,0,0,1,.11-.71,5.52,5.52,0,0,1,4.76-4.31c.66,0,2.57,0,3.64,1.28a3.51,3.51,0,0,1,.61,3.5h0l-2.79-.49a3.31,3.31,0,0,0-.24-2h0a3.85,3.85,0,0,1-3.37,2.88l0,4.2c-2.07-.3-2.74-2.78-2.69-4.3Z"/><path class="cls-13" d="M140.81,76.05l.25,0a3.67,3.67,0,0,0,.67,0,3.54,3.54,0,0,0,1-.21,3.68,3.68,0,0,0,1-.6,3.31,3.31,0,0,0,.76-.94,3.62,3.62,0,0,0,.36-.92,6.18,6.18,0,0,0,.12-.92.58.58,0,0,1,0,.25,3.11,3.11,0,0,1,0,.69,3.77,3.77,0,0,1-.35,1,3.37,3.37,0,0,1-.78,1,3.66,3.66,0,0,1-1.09.62,3.41,3.41,0,0,1-1,.19,3.08,3.08,0,0,1-.68,0C140.89,76.09,140.8,76.06,140.81,76.05Z"/><path class="cls-17" d="M141.66,77.75a4.07,4.07,0,0,0,.05-1.15c-.08-.25-.36-.31-.67-.31a.7.7,0,0,0-.66.66.89.89,0,0,0,.38.78,1,1,0,0,0,.88,0"/><path class="cls-18" d="M141.33,77.4s-.08,0-.19,0a.34.34,0,0,1-.23-.34.25.25,0,0,1,.06-.21.2.2,0,0,1,.18,0c.11,0,.2,0,.2,0s0-.08-.19-.12a.31.31,0,0,0-.27,0,.36.36,0,0,0-.11.31.46.46,0,0,0,.11.3.34.34,0,0,0,.23.13C141.27,77.49,141.35,77.41,141.33,77.4Z"/><path class="cls-13" d="M140.6,77.7s0,.12,0,.29a.36.36,0,0,0,.13.25.4.4,0,0,0,.32.1.39.39,0,0,0,.28-.18.42.42,0,0,0,.06-.28,1.23,1.23,0,0,0-.11-.27s.14,0,.2.25a.47.47,0,0,1,0,.36.52.52,0,0,1-.37.25.5.5,0,0,1-.43-.14.48.48,0,0,1-.14-.34C140.48,77.78,140.59,77.69,140.6,77.7Z"/><path class="cls-13" d="M139.32,76.75s-.12-.09-.24-.31a2.23,2.23,0,0,1-.27-.9,2.34,2.34,0,0,1,.13-.94.84.84,0,0,1,.2-.34,3.77,3.77,0,0,0-.19,1.27A3.7,3.7,0,0,0,139.32,76.75Z"/><path class="cls-13" d="M132.33,83.73s0,0-.07-.11a1.3,1.3,0,0,1,0-1,1.4,1.4,0,0,1,.44-.68c.23-.21.56-.3.78-.54a.69.69,0,0,0,.14-.47,3.76,3.76,0,0,0-.07-.55,1.34,1.34,0,0,1,0-.63,1.58,1.58,0,0,1,.34-.55,4.65,4.65,0,0,1,1.1-.75,2.12,2.12,0,0,0,.92-.85,3,3,0,0,0,.14-1.18,2.65,2.65,0,0,1,.78-1.91,2,2,0,0,1,1.29-.52,1.51,1.51,0,0,1,.38,0l.13,0a4.53,4.53,0,0,0-.51,0,1.9,1.9,0,0,0-1.23.53,2.56,2.56,0,0,0-.72,1.84,2.85,2.85,0,0,1-.14,1.24,2.19,2.19,0,0,1-1,.91,4.18,4.18,0,0,0-1.07.72,1.16,1.16,0,0,0-.31.5,1.22,1.22,0,0,0,0,.57,3.7,3.7,0,0,1,.07.57.75.75,0,0,1-.18.54c-.25.28-.59.35-.8.54a1.42,1.42,0,0,0-.5,1.21A1.64,1.64,0,0,0,132.33,83.73Z"/><path class="cls-18" d="M145.36,77.89a.5.5,0,0,1,.38,0,.43.43,0,0,1,.22.3.31.31,0,0,1-.18.31.36.36,0,0,1-.36,0,.41.41,0,0,1-.21-.27.25.25,0,0,1,.15-.28"/><path class="cls-13" d="M145.19,77.56s.12.32.42.54a2.1,2.1,0,0,0,.65.25s-.08.05-.22,0a.9.9,0,0,1-.51-.18,1,1,0,0,1-.32-.43C145.17,77.65,145.17,77.56,145.19,77.56Z"/><path class="cls-2" d="M137.79,83.49c-1,.24-1.56.56-3,2.18l-4,4.49,5.49,4,2.25-3.06.48,6.69s-1.25,1.53-2.35,5.78a58.09,58.09,0,0,0-1.23,9.62L134.7,130l15.64.43a122.1,122.1,0,0,1-.31-15.57,54.19,54.19,0,0,0-1.34-13.72l-.8-4.36a4,4,0,0,1,.68-2.25,4.3,4.3,0,0,0,.37-3.89l4.17,1.55L155.87,86l-5.7-2.15a12.06,12.06,0,0,0-4.51-.73l-4.34,0a9.12,9.12,0,0,0-3.53.47"/><path class="cls-13" d="M146.31,149.21v-.38l-4.13-.18v1.56l.25,0a47.77,47.77,0,0,0,6.54,0C149.8,150,146.31,149.21,146.31,149.21Z"/><g class="cls-10"><path class="cls-6" d="M143.66,150.19a1.43,1.43,0,0,0-.52-.88,1.35,1.35,0,0,0-1-.3v1.14Z"/></g><g class="cls-10"><path class="cls-6" d="M148,149.66s1.22.36,1.07.56a39.53,39.53,0,0,1-6.92,0v-.09l5.47.07S147.78,149.67,148,149.66Z"/></g><path class="cls-2" d="M142.11,150.12h.28l.74,0c.63,0,1.51.05,2.47.06s1.84,0,2.47,0l.74,0h-.74l-2.47,0-2.47,0-.74,0h-.28Z"/><path class="cls-2" d="M147.65,150.25a2.39,2.39,0,0,1,.14-.35,1.37,1.37,0,0,1,.26-.29.67.67,0,0,0-.4.64Z"/><path class="cls-2" d="M146.44,149.63s.07-.06.13-.15.1-.18.09-.19-.07.06-.13.16S146.43,149.62,146.44,149.63Z"/><path class="cls-2" d="M146.11,149.46s.07,0,.14-.1.12-.12.11-.13-.07,0-.14.09S146.1,149.44,146.11,149.46Z"/><path class="cls-2" d="M145.9,149.07a.58.58,0,0,0,.21,0c.12,0,.22,0,.22,0l-.22,0C146,149,145.9,149.05,145.9,149.07Z"/><path class="cls-2" d="M145.83,148.79a.61.61,0,0,0,.48,0,1.5,1.5,0,0,0-.24,0Z"/><path class="cls-2" d="M146.58,149.27a.6.6,0,0,0,.26,0,1.15,1.15,0,0,0,.29-.06l.16-.06a.17.17,0,0,0,.06-.08.11.11,0,0,0,0-.11.48.48,0,0,0-.68.31.45.45,0,0,0,0,.08.76.76,0,0,1,.12-.23A.41.41,0,0,1,147,149a.37.37,0,0,1,.31,0s0,.08,0,.11l-.15.06a1.8,1.8,0,0,1-.27.07A1.56,1.56,0,0,1,146.58,149.27Z"/><path class="cls-2" d="M146.65,149.29a.35.35,0,0,0,0-.19.64.64,0,0,0-.07-.19.26.26,0,0,0-.22-.13c-.06,0-.09.07-.08.12a.28.28,0,0,0,0,.12.7.7,0,0,0,.13.16c.08.08.14.11.15.1a.63.63,0,0,1-.13-.13,1.42,1.42,0,0,1-.11-.16c0-.05-.06-.15,0-.17a.25.25,0,0,1,.17.12.41.41,0,0,1,.07.17C146.66,149.22,146.64,149.29,146.65,149.29Z"/><path class="cls-2" d="M142.2,149s.12,0,.3,0a1.26,1.26,0,0,1,1.08.86,1.29,1.29,0,0,1,.07.29s0,0,0-.08a.73.73,0,0,0,0-.22,1.24,1.24,0,0,0-.41-.62,1.29,1.29,0,0,0-.69-.27.78.78,0,0,0-.23,0Z"/><path class="cls-2" d="M144.18,149.79a2.37,2.37,0,0,0,.6.06,2.7,2.7,0,0,0,.6,0,5,5,0,0,0-.6,0Z"/><path class="cls-2" d="M143.37,149.78s0,.06,0,.12,0,.12.06.12,0-.07,0-.14S143.38,149.77,143.37,149.78Z"/><path class="cls-2" d="M143.07,149.4s0,.06.06.1.09.07.09.06,0-.05-.05-.1S143.08,149.39,143.07,149.4Z"/><path class="cls-2" d="M142.64,149.23s.06,0,.12,0,.1.06.11.05,0-.07-.1-.09S142.63,149.22,142.64,149.23Z"/><path class="cls-2" d="M142.33,149.15s0,0,0,0,.07,0,.07,0,0,0,0,0S142.33,149.13,142.33,149.15Z"/><path class="cls-13" d="M136.63,148.85l.16-.35-3.7-1.86-.65,1.42.23.12a48.83,48.83,0,0,0,5.94,2.71C139.49,151,136.63,148.85,136.63,148.85Z"/><g class="cls-10"><path class="cls-6" d="M133.81,148.65a1.41,1.41,0,0,0-.11-1,1.39,1.39,0,0,0-.76-.67l-.47,1Z"/></g><g class="cls-10"><path class="cls-6" d="M138,150s1,.83.75,1a39.54,39.54,0,0,1-6.31-2.84l.05-.08,5,2.31S137.78,149.87,138,150Z"/></g><path class="cls-2" d="M132.43,148s0,0,.06,0l.18.1.67.33c.56.28,1.35.66,2.23,1.06s1.67.74,2.26,1l.69.28.19.08.07,0-.06,0-.19-.08-.69-.3-2.25-1c-.88-.4-1.67-.77-2.24-1.05l-.67-.32-.19-.09Z"/><path class="cls-2" d="M137.43,150.34a1.24,1.24,0,0,1,.27-.26,2.08,2.08,0,0,1,.35-.16.59.59,0,0,0-.38.12C137.48,150.16,137.41,150.34,137.43,150.34Z"/><path class="cls-2" d="M136.57,149.28s.09,0,.19-.09.16-.12.15-.13a.5.5,0,0,0-.18.09A.69.69,0,0,0,136.57,149.28Z"/><path class="cls-2" d="M136.34,149a.38.38,0,0,0,.18,0c.09,0,.16-.07.15-.08a.35.35,0,0,0-.17,0C136.41,148.94,136.34,149,136.34,149Z"/><path class="cls-2" d="M136.31,148.55a.67.67,0,0,0,.19.11.54.54,0,0,0,.2.07s-.07-.07-.18-.12S136.32,148.53,136.31,148.55Z"/><path class="cls-2" d="M136.36,148.27s.07.09.19.16a.41.41,0,0,0,.24.07l-.22-.12A1,1,0,0,0,136.36,148.27Z"/><path class="cls-2" d="M136.85,149a.61.61,0,0,0,.24.11,1.06,1.06,0,0,0,.28.06.53.53,0,0,0,.18,0,.2.2,0,0,0,.09-.05.09.09,0,0,0,0-.11.49.49,0,0,0-.61-.12.7.7,0,0,0-.15.12s0,.06,0,.07a.54.54,0,0,1,.2-.16.53.53,0,0,1,.26,0,.37.37,0,0,1,.28.15s0,.08-.06.09a.86.86,0,0,1-.16,0l-.28,0A1.68,1.68,0,0,1,136.85,149Z"/><path class="cls-2" d="M136.91,149.05s.06,0,.1-.15a.37.37,0,0,0,0-.21.25.25,0,0,0-.14-.21c-.06,0-.2.1-.21.15s.07,0,.08.05a.88.88,0,0,0,0,.2c.05.11.09.16.1.16s0-.06-.06-.17a.9.9,0,0,1,0-.19c0-.07,0-.17.08-.15s.09.11.11.17a.6.6,0,0,1,0,.19A1,1,0,0,1,136.91,149.05Z"/><path class="cls-2" d="M133,147a1.13,1.13,0,0,1,.27.13,1.31,1.31,0,0,1,.49.52,1.42,1.42,0,0,1,.14.71c0,.18-.06.29-.05.3l0-.08a.8.8,0,0,0,.05-.22,1.26,1.26,0,0,0-.12-.73,1.32,1.32,0,0,0-.52-.53,1.44,1.44,0,0,0-.21-.09Z"/><path class="cls-2" d="M134.45,148.5a2.36,2.36,0,0,0,.52.3,2.57,2.57,0,0,0,.57.2s-.25-.11-.55-.24Z"/><path class="cls-2" d="M133.72,148.16s0,.07,0,.13,0,.13,0,.13,0,0,0-.13A.19.19,0,0,0,133.72,148.16Z"/><path class="cls-2" d="M133.6,147.7s0,.05,0,.11,0,.1.06.09,0-.05,0-.11S133.61,147.69,133.6,147.7Z"/><path class="cls-2" d="M133.27,147.36s0,0,.09.08.08.09.09.09,0-.07,0-.13S133.27,147.35,133.27,147.36Z"/><path class="cls-2" d="M133,147.16s0,0,0,.06.06,0,.07,0,0,0,0-.06S133,147.15,133,147.16Z"/><path class="cls-18" d="M158.21,87.66a2.47,2.47,0,0,1-.58-.54,2.37,2.37,0,0,1-.48-.64,2.4,2.4,0,0,1,.58.55A2.25,2.25,0,0,1,158.21,87.66Z"/><path class="cls-2" d="M151.89,84.47s0,0-.16,0l-.46,0-1.7,0-5.62,0-5.62,0-1.7,0-.46,0c-.11,0-.16,0-.16,0h.62l1.7,0,5.62,0,5.62,0,1.7,0h.62Z"/><path class="cls-2" d="M155.4,87h-.85l-2.34,0-7.69,0-7.7,0-2.34,0h-.85a.72.72,0,0,1,.22,0l.63,0,2.34,0,7.7,0,7.69,0,2.34,0,.63,0A.72.72,0,0,1,155.4,87Z"/><path class="cls-2" d="M153.69,89.91a1,1,0,0,1-.23,0h-.66l-2.42,0-8,0-8,0-2.42,0h-.66a1,1,0,0,1-.23,0H132l2.42,0,8,0,8,0,2.42,0h.89Z"/><path class="cls-2" d="M149.05,93a1.85,1.85,0,0,1-.41,0l-1.12,0-3.7,0-3.69,0L139,93a1.85,1.85,0,0,1-.41,0l.41,0,1.12,0,3.69,0,3.7,0,1.12,0Z"/><path class="cls-2" d="M148,95.94a2.63,2.63,0,0,1-.36,0l-1,0c-.82,0-2,0-3.22,0s-2.4,0-3.22,0l-1,0a2.63,2.63,0,0,1-.36,0l.36,0,1,0,3.22,0,3.22,0,1,0Z"/><path class="cls-2" d="M148.54,94.53a1.88,1.88,0,0,1-.38,0l-1,0-3.46,0-3.46,0-1,0a2.06,2.06,0,0,1-.39,0,2.06,2.06,0,0,1,.39,0l1,0,3.46,0,3.46,0,1,0A1.88,1.88,0,0,1,148.54,94.53Z"/><path class="cls-2" d="M149.17,91.48l-.42,0-1.14,0c-1,0-2.3,0-3.77,0s-2.81,0-3.77,0l-1.15,0-.42,0a2.37,2.37,0,0,1,.42,0l1.15,0,3.77,0,3.77,0,1.14,0A2.37,2.37,0,0,1,149.17,91.48Z"/><path class="cls-2" d="M138.2,91.47a4.38,4.38,0,0,1-.83,0l-2,0-2,0a4.49,4.49,0,0,1-.83,0,5.27,5.27,0,0,1,.83,0c.51,0,1.22,0,2,0s1.49,0,2,0A5.14,5.14,0,0,1,138.2,91.47Z"/><path class="cls-2" d="M153.51,91.31a14.14,14.14,0,0,1-2.81,0,16.48,16.48,0,0,1,2.81,0Z"/><path class="cls-2" d="M154.55,88.38h-.87l-2.38,0-7.86,0-7.86,0-2.39,0h-.87l.23,0h.64l2.39,0,7.86,0,7.86,0,2.38,0h.65Z"/><path class="cls-2" d="M155,85.61h-.79l-2.17,0-7.15,0-7.15,0-2.17,0h-.8a.67.67,0,0,1,.21,0l.59,0,2.17,0,7.15,0,7.15,0,2.17,0,.59,0A.63.63,0,0,1,155,85.61Z"/><path class="cls-2" d="M115.17,67.19l0-.16-.07-.49c0-.11,0-.23,0-.37v-.44c0-.15,0-.33,0-.51l0-.58a9.34,9.34,0,0,1,3.08-6.12l.42-.37.47-.33a9.11,9.11,0,0,1,1-.63,9.33,9.33,0,0,1,2.36-.86,9.18,9.18,0,0,1,1.31-.21c.22,0,.45,0,.68,0h.34l.35,0a9,9,0,0,1,2.79.61,9.49,9.49,0,0,1,4.66,3.85,9.67,9.67,0,0,1,1.35,6.33c0,.15,0,.29-.07.43l0,0,3,4.21.09.13-.15,0-4.47-.7.06,0a9.57,9.57,0,0,1-3.5,3.13,9.14,9.14,0,0,1-2.07.78,6.44,6.44,0,0,1-1,.19l-.52.07c-.17,0-.35,0-.52,0a9.42,9.42,0,0,1-3.75-.69,9.61,9.61,0,0,1-2.78-1.73l-.53-.5-.45-.52a3.71,3.71,0,0,1-.39-.52c-.12-.17-.25-.33-.35-.5a10.13,10.13,0,0,1-.86-1.79l-.22-.69-.11-.51-.06-.31a.45.45,0,0,1,0-.11l0,.11.07.31.12.51.23.67a10,10,0,0,0,.88,1.78,4.81,4.81,0,0,0,.34.49,4.6,4.6,0,0,0,.39.51l.45.52.53.49A9.45,9.45,0,0,0,124.69,75c.17,0,.34,0,.51,0l.51-.07a6.32,6.32,0,0,0,1-.19,9.26,9.26,0,0,0,5.49-3.87l0,0h0l4.47.69-.07.11-3-4.21,0,0v0c0-.14.05-.28.07-.43a8.81,8.81,0,0,0-.13-3.28,9.08,9.08,0,0,0-1.19-3,9.34,9.34,0,0,0-4.6-3.79,8.67,8.67,0,0,0-2.75-.61l-.34,0h-.34c-.23,0-.45,0-.67,0a10.33,10.33,0,0,0-3.64,1.05,11.18,11.18,0,0,0-1,.62l-.46.33-.42.37a9.33,9.33,0,0,0-3.09,6l0,.58c0,.18,0,.36,0,.51v.44a3.25,3.25,0,0,0,0,.36l.05.49A1.06,1.06,0,0,1,115.17,67.19Z"/><polygon class="cls-13" points="121.39 61.97 120.26 70.52 128.63 70.52 127.41 61.97 121.39 61.97"/><path class="cls-6" d="M126.73,63.21a.6.6,0,0,1,0,.25,2.57,2.57,0,0,1-.3.61,2.18,2.18,0,0,1-.74.7,2.43,2.43,0,0,1-1.22.31,2.51,2.51,0,0,1-1.21-.28,2,2,0,0,1-.74-.71,2.06,2.06,0,0,1-.27-.63.68.68,0,0,1,0-.25,3.3,3.3,0,0,0,.39.83,2,2,0,0,0,.71.65,2.67,2.67,0,0,0,2.32,0,2.17,2.17,0,0,0,.72-.64A4.16,4.16,0,0,0,126.73,63.21Z"/><path class="cls-19" d="M13.92,64.44a3.37,3.37,0,0,1,.28-1.38A3.51,3.51,0,0,1,15,61.93a3.56,3.56,0,0,1,2.51-1,3.46,3.46,0,0,1,1.37.28,3.85,3.85,0,0,1,1.14.76.59.59,0,0,1,.16.4.6.6,0,0,1-.16.41.59.59,0,0,1-.41.15.59.59,0,0,1-.4-.15,2.43,2.43,0,0,0-.77-.52,2.24,2.24,0,0,0-.93-.19,2.29,2.29,0,0,0-.94.19,2.39,2.39,0,0,0-.76.52,2.51,2.51,0,0,0-.52.76,2.32,2.32,0,0,0-.19.94v2.84a2.32,2.32,0,0,0,.19.94,2.51,2.51,0,0,0,.52.76,2.39,2.39,0,0,0,.76.52,2.29,2.29,0,0,0,.94.19,2.24,2.24,0,0,0,.93-.19,2.43,2.43,0,0,0,.77-.52.59.59,0,0,1,.4-.16.55.55,0,0,1,.57.57.59.59,0,0,1-.16.4,3.85,3.85,0,0,1-1.14.76,3.45,3.45,0,0,1-1.37.27,3.53,3.53,0,0,1-3.27-2.16,3.37,3.37,0,0,1-.28-1.38Z"/><path class="cls-19" d="M24.55,70.82a3.54,3.54,0,0,1-1.38-.27A3.68,3.68,0,0,1,22,69.79a3.51,3.51,0,0,1-.76-1.13,3.54,3.54,0,0,1,0-2.76A3.54,3.54,0,0,1,23.17,64a3.54,3.54,0,0,1,2.76,0,3.51,3.51,0,0,1,1.13.76,3.68,3.68,0,0,1,.76,1.13,3.54,3.54,0,0,1,0,2.76,3.54,3.54,0,0,1-1.89,1.89A3.54,3.54,0,0,1,24.55,70.82Zm0-1.13a2.32,2.32,0,0,0,.94-.19,2.5,2.5,0,0,0,1.28-1.28,2.42,2.42,0,0,0,0-1.88,2.39,2.39,0,0,0-.52-.76,2.51,2.51,0,0,0-.76-.52,2.32,2.32,0,0,0-.94-.19,2.29,2.29,0,0,0-.94.19,2.5,2.5,0,0,0-1.28,1.28,2.42,2.42,0,0,0,0,1.88,2.51,2.51,0,0,0,.52.76,2.39,2.39,0,0,0,.76.52A2.29,2.29,0,0,0,24.55,69.69Z"/><path class="cls-19" d="M35.33,67.28a2.32,2.32,0,0,0-.19-.94,2.39,2.39,0,0,0-.52-.76,2.51,2.51,0,0,0-.76-.52,2.42,2.42,0,0,0-1.88,0,2.5,2.5,0,0,0-1.28,1.28,2.32,2.32,0,0,0-.19.94v3a.54.54,0,0,1-.17.4.52.52,0,0,1-.4.16.56.56,0,0,1-.41-.16.58.58,0,0,1-.16-.4v-6a.55.55,0,0,1,.57-.57.56.56,0,0,1,.4.16.57.57,0,0,1,.17.41v.38A3.57,3.57,0,0,1,31.6,64a3.41,3.41,0,0,1,1.32-.25A3.37,3.37,0,0,1,34.3,64a3.51,3.51,0,0,1,1.13.76,3.68,3.68,0,0,1,.76,1.13,3.54,3.54,0,0,1,.28,1.38v3a.54.54,0,0,1-.17.4.54.54,0,0,1-.4.16.56.56,0,0,1-.41-.16.54.54,0,0,1-.16-.4Z"/><path class="cls-19" d="M39,70.26a.58.58,0,0,1-.16.4.56.56,0,0,1-.41.16.54.54,0,0,1-.4-.16.54.54,0,0,1-.17-.4v-8a2.12,2.12,0,0,1,.17-.83,2.28,2.28,0,0,1,.46-.67,2.08,2.08,0,0,1,.67-.45,2,2,0,0,1,.83-.18,1.94,1.94,0,0,1,.83.18,2.12,2.12,0,0,1,.68.45.56.56,0,0,1,.17.4.58.58,0,0,1-.17.41.61.61,0,0,1-.41.15.56.56,0,0,1-.39-.15,1,1,0,0,0-1.7.69v1.42h2.1a.58.58,0,0,1,.4.16.57.57,0,0,1,.17.41.53.53,0,0,1-.17.4.54.54,0,0,1-.4.17H39Z"/><path class="cls-19" d="M44.38,61.53a.62.62,0,0,1-.64.64.61.61,0,0,1-.45-.18.65.65,0,0,1-.18-.46.61.61,0,0,1,.18-.45.62.62,0,0,1,.45-.19.66.66,0,0,1,.46.19A.61.61,0,0,1,44.38,61.53Zm-1.2,8.73a.55.55,0,0,0,.56.56.56.56,0,0,0,.41-.16.54.54,0,0,0,.16-.4v-6a.56.56,0,0,0-.16-.41.6.6,0,0,0-.41-.16.58.58,0,0,0-.4.16.56.56,0,0,0-.16.41Z"/><path class="cls-19" d="M45.8,64.3a.55.55,0,0,1,.57-.57.58.58,0,0,1,.4.16.57.57,0,0,1,.17.41v.38A3.57,3.57,0,0,1,48,64a3.41,3.41,0,0,1,1.32-.25.58.58,0,0,1,.4.16.57.57,0,0,1,.17.41.53.53,0,0,1-.17.4.54.54,0,0,1-.4.17,2.29,2.29,0,0,0-.94.19,2.5,2.5,0,0,0-1.28,1.28,2.32,2.32,0,0,0-.19.94v3a.54.54,0,0,1-.17.4.54.54,0,0,1-.4.16.56.56,0,0,1-.41-.16.58.58,0,0,1-.16-.4Z"/><path class="cls-19" d="M61.55,66.85a1.83,1.83,0,0,0-.16-.77,1.93,1.93,0,0,0-.42-.63,2.13,2.13,0,0,0-.63-.43,2,2,0,0,0-.78-.15,2,2,0,0,0-.77.15,2.06,2.06,0,0,0-1.06,1.06,2,2,0,0,0-.15.77v3.41a.54.54,0,0,1-.17.4.54.54,0,0,1-.4.16.56.56,0,0,1-.41-.16.58.58,0,0,1-.16-.4V66.85a1.83,1.83,0,0,0-.16-.77,1.93,1.93,0,0,0-.42-.63,2.13,2.13,0,0,0-.63-.43,2.08,2.08,0,0,0-1.55,0,2.06,2.06,0,0,0-1.06,1.06,2,2,0,0,0-.15.77v3.41a.58.58,0,0,1-.16.4.56.56,0,0,1-.41.16.54.54,0,0,1-.4-.16.54.54,0,0,1-.17-.4v-6a.57.57,0,0,1,.17-.41.58.58,0,0,1,.4-.16.55.55,0,0,1,.57.57v.14a3.41,3.41,0,0,1,.91-.52,3.21,3.21,0,0,1,1.07-.19,3,3,0,0,1,1.47.36,3.11,3.11,0,0,1,1.09,1,3.11,3.11,0,0,1,1.09-1,3,3,0,0,1,1.46-.36,2.91,2.91,0,0,1,1.21.25,3.19,3.19,0,0,1,1.67,1.67,3.06,3.06,0,0,1,.24,1.2v3.41a.55.55,0,0,1-.56.56.56.56,0,0,1-.41-.16.54.54,0,0,1-.16-.4Z"/><path class="cls-20" d="M17.36,87.13l-2.69-5.38a.69.69,0,0,1,0-.53A.74.74,0,0,1,15,80.8a.7.7,0,0,1,.53,0,.68.68,0,0,1,.42.36l2.2,4.4,2.2-4.42a.68.68,0,0,1,.42-.34.72.72,0,0,1,.54,0,.76.76,0,0,1,.35.42.75.75,0,0,1,0,.55l-3.82,7.64a3.6,3.6,0,0,1-1.29,1.42,3.42,3.42,0,0,1-1.89.54.69.69,0,0,1-.5-.2.69.69,0,0,1-.21-.51.67.67,0,0,1,.21-.5.66.66,0,0,1,.5-.21,2.24,2.24,0,0,0,.57-.08,2.32,2.32,0,0,0,.53-.24,2.53,2.53,0,0,0,.44-.33,1.49,1.49,0,0,0,.31-.4Z"/><path class="cls-20" d="M26,87.82a3.59,3.59,0,0,1-1.39-.27,3.64,3.64,0,0,1-1.12-.76,3.55,3.55,0,0,1-.76-3.89,3.26,3.26,0,0,1,.76-1.13A3.47,3.47,0,0,1,24.58,81,3.42,3.42,0,0,1,26,80.73a3.37,3.37,0,0,1,1.38.28,3.51,3.51,0,0,1,1.13.76,3.6,3.6,0,0,1,.76,3.89,3.54,3.54,0,0,1-1.89,1.89A3.54,3.54,0,0,1,26,87.82Zm0-1.41a2.12,2.12,0,0,0,.83-.17,2.22,2.22,0,0,0,1.13-1.13,2.11,2.11,0,0,0,0-1.66,2.33,2.33,0,0,0-.46-.68,2.25,2.25,0,0,0-.67-.45,2.12,2.12,0,0,0-.83-.17,2.09,2.09,0,0,0-.83.17,2.3,2.3,0,0,0-.68.45A2.14,2.14,0,0,0,24,85.11a2.08,2.08,0,0,0,.45.67,2.33,2.33,0,0,0,.68.46A2.09,2.09,0,0,0,26,86.41Z"/><path class="cls-20" d="M37.74,87.12a.72.72,0,0,1-.2.5.69.69,0,0,1-.51.2.66.66,0,0,1-.5-.2.69.69,0,0,1-.21-.5,3.87,3.87,0,0,1-1,.51,3.33,3.33,0,0,1-1.14.19,3.54,3.54,0,0,1-1.38-.27,3.81,3.81,0,0,1-1.13-.76,3.68,3.68,0,0,1-.76-1.13,3.54,3.54,0,0,1-.27-1.38V81.44a.69.69,0,0,1,.2-.5.69.69,0,0,1,.51-.21.67.67,0,0,1,.5.21.66.66,0,0,1,.21.5v2.84a2,2,0,0,0,.17.83,2.08,2.08,0,0,0,.45.67,2.42,2.42,0,0,0,.67.46,2.12,2.12,0,0,0,.83.17,2.17,2.17,0,0,0,.84-.17,2.42,2.42,0,0,0,.67-.46,2.08,2.08,0,0,0,.45-.67,2,2,0,0,0,.17-.83V81.44a.66.66,0,0,1,.21-.5.67.67,0,0,1,.5-.21.69.69,0,0,1,.51.21.69.69,0,0,1,.2.5Z"/><path class="cls-20" d="M39.16,81.44a.71.71,0,0,1,1.42,0,3.89,3.89,0,0,1,1-.52,3.59,3.59,0,0,1,1.14-.19.67.67,0,0,1,.5.21.7.7,0,0,1,0,1,.67.67,0,0,1-.5.21,2.09,2.09,0,0,0-.83.17,2.3,2.3,0,0,0-.68.45,2.19,2.19,0,0,0-.62,1.51v2.84a.69.69,0,0,1-.21.5.73.73,0,0,1-1,0,.69.69,0,0,1-.21-.5Z"/><path class="cls-20" d="M13.92,94.89a.69.69,0,0,1,.21-.5.7.7,0,0,1,1,0,.69.69,0,0,1,.21.5v3.55a3.89,3.89,0,0,1,1-.52,3.59,3.59,0,0,1,1.14-.19,3.37,3.37,0,0,1,1.38.28,3.51,3.51,0,0,1,1.13.76,3.55,3.55,0,0,1,.76,3.89,3.54,3.54,0,0,1-1.89,1.89,3.54,3.54,0,0,1-1.38.27,3.33,3.33,0,0,1-1.14-.19,3.87,3.87,0,0,1-1-.51.69.69,0,0,1-.21.5.73.73,0,0,1-1,0,.69.69,0,0,1-.21-.5Zm3.55,8.52a2.12,2.12,0,0,0,.83-.17,2.22,2.22,0,0,0,1.13-1.13,2.11,2.11,0,0,0,0-1.66,2.33,2.33,0,0,0-.46-.68,2.25,2.25,0,0,0-.67-.45,2.11,2.11,0,0,0-1.66,0,2,2,0,0,0-1.13,1.13,2.11,2.11,0,0,0,0,1.66,2.25,2.25,0,0,0,.45.67,2.33,2.33,0,0,0,.68.46A2.12,2.12,0,0,0,17.47,103.41Z"/><path class="cls-20" d="M25.56,104.82a3.55,3.55,0,0,1-1.39-.27,3.81,3.81,0,0,1-1.13-.76,3.68,3.68,0,0,1-.76-1.13A3.55,3.55,0,0,1,23,98.77,3.63,3.63,0,0,1,24.17,98a3.57,3.57,0,0,1,2.77,0,3.63,3.63,0,0,1,1.13.76,3.6,3.6,0,0,1,.76,3.89,3.68,3.68,0,0,1-.76,1.13,3.81,3.81,0,0,1-1.13.76A3.54,3.54,0,0,1,25.56,104.82Zm0-1.41a2.16,2.16,0,0,0,.83-.17,2.28,2.28,0,0,0,.67-.46,2.08,2.08,0,0,0,.45-.67,2.11,2.11,0,0,0,0-1.66,2.12,2.12,0,0,0-.45-.68,2.25,2.25,0,0,0-.67-.45,2.16,2.16,0,0,0-.83-.17,2.09,2.09,0,0,0-.83.17,2.3,2.3,0,0,0-.68.45,2.12,2.12,0,0,0-.45.68,2.11,2.11,0,0,0,0,1.66,2.08,2.08,0,0,0,.45.67,2.33,2.33,0,0,0,.68.46A2.09,2.09,0,0,0,25.56,103.41Z"/><path class="cls-20" d="M33.64,104.82a3.54,3.54,0,0,1-1.38-.27,3.54,3.54,0,0,1-1.89-1.89A3.55,3.55,0,0,1,32.26,98a3.37,3.37,0,0,1,1.38-.28A3.45,3.45,0,0,1,35,98a3.58,3.58,0,0,1,1.12.76,3.41,3.41,0,0,1,.76,1.13,3.54,3.54,0,0,1,0,2.76,3.51,3.51,0,0,1-.76,1.13,3.76,3.76,0,0,1-1.12.76A3.62,3.62,0,0,1,33.64,104.82Zm0-1.41a2.12,2.12,0,0,0,.83-.17,2.33,2.33,0,0,0,.68-.46,2.25,2.25,0,0,0,.45-.67,2.11,2.11,0,0,0,0-1.66,2,2,0,0,0-1.13-1.13,2.11,2.11,0,0,0-1.66,0,2.25,2.25,0,0,0-.67.45,2.33,2.33,0,0,0-.46.68,2.11,2.11,0,0,0,0,1.66,2.22,2.22,0,0,0,1.13,1.13A2.12,2.12,0,0,0,33.64,103.41Z"/><path class="cls-20" d="M42.15,102.29l-2.34,2.32a.67.67,0,0,1-.49.21.69.69,0,0,1-.51-.2.72.72,0,0,1-.2-.5V94.89a.72.72,0,0,1,.2-.5.69.69,0,0,1,.51-.21.67.67,0,0,1,.5.21.69.69,0,0,1,.21.5v7.51l4.46-4.46a.67.67,0,0,1,.5-.21.66.66,0,0,1,.5.21.67.67,0,0,1,.21.5.66.66,0,0,1-.21.5l-2.33,2.34,2.33,2.34a.71.71,0,0,1-.5,1.2.67.67,0,0,1-.5-.21Z"/><path class="cls-20" d="M48.68,95.67a.77.77,0,0,1-.23.56.78.78,0,0,1-1.33-.56.73.73,0,0,1,.23-.55.77.77,0,0,1,1.1,0A.76.76,0,0,1,48.68,95.67Zm-1.49,8.45a.69.69,0,0,0,.21.5.73.73,0,0,0,1,0,.69.69,0,0,0,.21-.5V98.44a.71.71,0,0,0-1.42,0Z"/><path class="cls-20" d="M50.1,98.44a.71.71,0,0,1,1.42,0,3.89,3.89,0,0,1,1-.52,3.59,3.59,0,0,1,1.14-.19A3.37,3.37,0,0,1,55,98a3.51,3.51,0,0,1,1.13.76,3.49,3.49,0,0,1,1,2.51v2.84a.72.72,0,0,1-.2.5.69.69,0,0,1-.51.2.66.66,0,0,1-.5-.2.69.69,0,0,1-.21-.5v-2.84a2,2,0,0,0-.17-.83,2.12,2.12,0,0,0-.45-.68,2.25,2.25,0,0,0-.67-.45,2.12,2.12,0,0,0-.83-.17,2.09,2.09,0,0,0-.83.17,2.3,2.3,0,0,0-.68.45,2.12,2.12,0,0,0-.45.68,2,2,0,0,0-.17.83v2.84a.69.69,0,0,1-.21.5.73.73,0,0,1-1,0,.69.69,0,0,1-.21-.5Z"/><path class="cls-20" d="M64.29,104.12a4.1,4.1,0,0,1-1,.51,3.27,3.27,0,0,1-1.13.19,3.5,3.5,0,0,1-1.38-.27,3.57,3.57,0,0,1-1.13-.76,3.55,3.55,0,0,1-.76-3.89,3.26,3.26,0,0,1,.76-1.13A3.41,3.41,0,0,1,60.78,98a3.34,3.34,0,0,1,1.38-.28,3.53,3.53,0,0,1,1.13.19,4.13,4.13,0,0,1,1,.52.65.65,0,0,1,.2-.5.71.71,0,0,1,1,0,.65.65,0,0,1,.2.5v6.38a3.55,3.55,0,0,1-.27,1.39,3.81,3.81,0,0,1-.76,1.13,3.68,3.68,0,0,1-1.13.76,3.66,3.66,0,0,1-2.76,0,3.76,3.76,0,0,1-1.12-.76.71.71,0,0,1-.21-.51.7.7,0,0,1,.71-.7.66.66,0,0,1,.49.2,2.19,2.19,0,0,0,.67.45,2.14,2.14,0,0,0,1.67,0,2.08,2.08,0,0,0,.67-.45,2.42,2.42,0,0,0,.46-.67,2.14,2.14,0,0,0,.17-.84Zm-2.13-.71a2.12,2.12,0,0,0,.83-.17,2.22,2.22,0,0,0,1.13-1.13,2.11,2.11,0,0,0,0-1.66,2.33,2.33,0,0,0-.46-.68,2.25,2.25,0,0,0-.67-.45,2.12,2.12,0,0,0-.83-.17,2.09,2.09,0,0,0-.83.17,2.3,2.3,0,0,0-.68.45,2.14,2.14,0,0,0-.45,2.34,2.08,2.08,0,0,0,.45.67,2.33,2.33,0,0,0,.68.46A2.09,2.09,0,0,0,62.16,103.41Z"/><path class="cls-20" d="M19.6,121.1a3.84,3.84,0,0,1-1,.53,3.52,3.52,0,0,1-1.13.18,3.61,3.61,0,0,1-2.51-1,3.63,3.63,0,0,1-.76-1.13,3.57,3.57,0,0,1,0-2.77,3.51,3.51,0,0,1,.76-1.13,3.6,3.6,0,0,1,3.89-.76,3.54,3.54,0,0,1,1.89,1.89,3.54,3.54,0,0,1,.28,1.38v2.86a.69.69,0,0,1-.21.5.68.68,0,0,1-.5.2.69.69,0,0,1-.51-.2.68.68,0,0,1-.2-.5Zm-2.13-.71a2,2,0,0,0,.83-.17,2.08,2.08,0,0,0,.67-.45,2.33,2.33,0,0,0,.46-.68,2.09,2.09,0,0,0,.17-.83,2.12,2.12,0,0,0-.17-.83,2.28,2.28,0,0,0-.46-.67,2.08,2.08,0,0,0-.67-.45,2.11,2.11,0,0,0-1.66,0,2.12,2.12,0,0,0-.68.45,2.25,2.25,0,0,0-.45.67,2.12,2.12,0,0,0-.17.83,2.09,2.09,0,0,0,.17.83,2.3,2.3,0,0,0,.45.68,2.12,2.12,0,0,0,.68.45A2,2,0,0,0,17.47,120.39Z"/><path class="cls-20" d="M22.43,115.44a.66.66,0,0,1,.21-.5.67.67,0,0,1,.5-.21.69.69,0,0,1,.51.21.69.69,0,0,1,.2.5,4.13,4.13,0,0,1,1-.52,3.53,3.53,0,0,1,1.13-.19,3.37,3.37,0,0,1,1.38.28,3.51,3.51,0,0,1,1.13.76,3.41,3.41,0,0,1,.76,1.13,3.37,3.37,0,0,1,.28,1.38v2.84a.69.69,0,0,1-.21.5.73.73,0,0,1-1,0,.69.69,0,0,1-.21-.5v-2.84a2.12,2.12,0,0,0-.17-.83,2,2,0,0,0-1.13-1.13,2.11,2.11,0,0,0-1.66,0,2.25,2.25,0,0,0-.67.45,2.33,2.33,0,0,0-.46.68,2.12,2.12,0,0,0-.17.83v2.84a.72.72,0,0,1-.2.5.69.69,0,0,1-.51.2.66.66,0,0,1-.5-.2.69.69,0,0,1-.21-.5Z"/><path class="cls-20" d="M37.76,121.12a.69.69,0,0,1-.21.5.66.66,0,0,1-.5.2.69.69,0,0,1-.51-.2.72.72,0,0,1-.2-.5,4.1,4.1,0,0,1-1,.51,3.23,3.23,0,0,1-1.13.19,3.54,3.54,0,0,1-1.38-.27,3.68,3.68,0,0,1-1.13-.76,3.51,3.51,0,0,1-.76-1.13,3.54,3.54,0,0,1,0-2.76,3.41,3.41,0,0,1,.76-1.13,3.51,3.51,0,0,1,1.13-.76,3.37,3.37,0,0,1,1.38-.28,3.48,3.48,0,0,1,1.13.19,4.13,4.13,0,0,1,1,.52v-3.55a.72.72,0,0,1,.2-.5.69.69,0,0,1,.51-.21.67.67,0,0,1,.5.21.69.69,0,0,1,.21.5Zm-3.55-.71a2.12,2.12,0,0,0,.83-.17,2.22,2.22,0,0,0,1.13-1.13,2.11,2.11,0,0,0,0-1.66,2.33,2.33,0,0,0-.46-.68,2.25,2.25,0,0,0-.67-.45,2.11,2.11,0,0,0-1.66,0,2.25,2.25,0,0,0-.67.45,2.15,2.15,0,0,0-.46.68,2.1,2.1,0,0,0,.46,2.33,2.28,2.28,0,0,0,.67.46A2.12,2.12,0,0,0,34.21,120.41Z"/><path class="cls-20" d="M53.93,117.92a1.72,1.72,0,0,0-.14-.68,1.85,1.85,0,0,0-.38-.56,2,2,0,0,0-.56-.39,1.81,1.81,0,0,0-.69-.14,1.74,1.74,0,0,0-.69.14,1.82,1.82,0,0,0-.56.39,1.68,1.68,0,0,0-.38.56,1.57,1.57,0,0,0-.15.68v3.2a.68.68,0,0,1-.2.5.69.69,0,0,1-.51.2.68.68,0,0,1-.7-.7v-3.2a1.57,1.57,0,0,0-.15-.68,1.68,1.68,0,0,0-.38-.56,1.82,1.82,0,0,0-.56-.39,1.74,1.74,0,0,0-.69-.14,1.71,1.71,0,0,0-1.25.53,1.68,1.68,0,0,0-.38.56,1.72,1.72,0,0,0-.14.68v3.2a.69.69,0,0,1-.21.5.73.73,0,0,1-1,0,.69.69,0,0,1-.21-.5v-5.68a.72.72,0,0,1,.71-.71.7.7,0,0,1,.69.55,3.13,3.13,0,0,1,1.79-.55,3.05,3.05,0,0,1,1.41.33,3.33,3.33,0,0,1,1.07.86,3.48,3.48,0,0,1,1.08-.86,3.16,3.16,0,0,1,2.64-.08,3.12,3.12,0,0,1,1,.69,3,3,0,0,1,.69,1,3,3,0,0,1,.25,1.23v3.2a.69.69,0,0,1-.21.5.73.73,0,0,1-1,0,.69.69,0,0,1-.21-.5Z"/><path class="cls-20" d="M62.16,121.1a3.63,3.63,0,0,1-1,.53,3.58,3.58,0,0,1-1.14.18,3.37,3.37,0,0,1-1.38-.28,3.49,3.49,0,0,1-1.13-.75,3.63,3.63,0,0,1-.76-1.13,3.57,3.57,0,0,1,0-2.77,3.51,3.51,0,0,1,.76-1.13,3.68,3.68,0,0,1,1.13-.76,3.66,3.66,0,0,1,2.76,0,3.68,3.68,0,0,1,1.13.76,3.51,3.51,0,0,1,.76,1.13,3.37,3.37,0,0,1,.28,1.38v2.86a.69.69,0,0,1-.21.5.65.65,0,0,1-.5.2.69.69,0,0,1-.51-.2.72.72,0,0,1-.2-.5ZM60,120.39a2.14,2.14,0,0,0,1.5-.62,2.15,2.15,0,0,0,.46-.68,2.09,2.09,0,0,0,.17-.83,2.09,2.09,0,0,0-.63-1.5,2.12,2.12,0,0,0-2.33-.45,2.08,2.08,0,0,0-.67.45,2.28,2.28,0,0,0-.46.67,2.12,2.12,0,0,0-.17.83,2.09,2.09,0,0,0,.17.83,2.33,2.33,0,0,0,.46.68,2.08,2.08,0,0,0,.67.45A2,2,0,0,0,60,120.39Z"/><path class="cls-20" d="M68.54,119.29l-2.34,2.32a.69.69,0,0,1-.5.21.68.68,0,0,1-.7-.7v-9.23a.68.68,0,0,1,.2-.5.71.71,0,0,1,1,0,.68.68,0,0,1,.2.5v7.51l4.47-4.46a.71.71,0,0,1,1.21.5.66.66,0,0,1-.21.5l-2.33,2.34,2.33,2.34a.69.69,0,0,1,0,1,.7.7,0,0,1-1,0Z"/><path class="cls-20" d="M74.63,119a2.06,2.06,0,0,0,.76,1,2.09,2.09,0,0,0,1.24.4,2.12,2.12,0,0,0,.83-.17,2.28,2.28,0,0,0,.67-.46.7.7,0,0,1,.5-.2.71.71,0,0,1,.51,1.21,3.94,3.94,0,0,1-1.13.76,3.66,3.66,0,0,1-2.76,0,3.68,3.68,0,0,1-1.13-.76,3.51,3.51,0,0,1-.76-1.13,3.54,3.54,0,0,1,0-2.76,3.41,3.41,0,0,1,.76-1.13,3.51,3.51,0,0,1,1.13-.76A3.54,3.54,0,0,1,78,115a3.51,3.51,0,0,1,1.13.76,3.41,3.41,0,0,1,.76,1.13,3.54,3.54,0,0,1,.28,1.38.7.7,0,0,1-.21.5.67.67,0,0,1-.5.21Zm4-1.42a2,2,0,0,0-.76-1,2.12,2.12,0,0,0-2.48,0,2.13,2.13,0,0,0-.78,1Z"/><path class="cls-20" d="M15.34,141.66a.69.69,0,0,1-.21.51.72.72,0,0,1-1,0,.69.69,0,0,1-.21-.51v-9.22a.71.71,0,0,1,1.42,0,3.89,3.89,0,0,1,1-.52,3.59,3.59,0,0,1,1.14-.19,3.37,3.37,0,0,1,1.38.28,3.51,3.51,0,0,1,1.13.76,3.55,3.55,0,0,1,.76,3.89,3.54,3.54,0,0,1-1.89,1.89,3.54,3.54,0,0,1-1.38.27,3.33,3.33,0,0,1-1.14-.19,3.87,3.87,0,0,1-1-.51Zm2.13-4.25a2.12,2.12,0,0,0,.83-.17,2.22,2.22,0,0,0,1.13-1.13,2.11,2.11,0,0,0,0-1.66,2.33,2.33,0,0,0-.46-.68,2.25,2.25,0,0,0-.67-.45,2.11,2.11,0,0,0-1.66,0,2,2,0,0,0-1.13,1.13,2.11,2.11,0,0,0,0,1.66,2.25,2.25,0,0,0,.45.67,2.33,2.33,0,0,0,.68.46A2.12,2.12,0,0,0,17.47,137.41Z"/><path class="cls-20" d="M27.83,138.1a3.84,3.84,0,0,1-1,.53,3.52,3.52,0,0,1-1.13.18,3.34,3.34,0,0,1-1.38-.28,3.38,3.38,0,0,1-1.13-.75,3.46,3.46,0,0,1-.76-1.13,3.56,3.56,0,0,1,.76-3.9,3.57,3.57,0,0,1,1.13-.76,3.5,3.5,0,0,1,1.38-.27,3.54,3.54,0,0,1,1.38.27A3.54,3.54,0,0,1,29,133.88a3.54,3.54,0,0,1,.27,1.38v2.86a.68.68,0,0,1-.7.7.69.69,0,0,1-.51-.2.68.68,0,0,1-.2-.5Zm-2.13-.71a2,2,0,0,0,.83-.17,2.08,2.08,0,0,0,.67-.45,2.33,2.33,0,0,0,.46-.68,2.09,2.09,0,0,0,.17-.83,2.12,2.12,0,0,0-.17-.83,2.28,2.28,0,0,0-.46-.67,2.08,2.08,0,0,0-.67-.45,2,2,0,0,0-.83-.17,1.93,1.93,0,0,0-.83.17,2.12,2.12,0,0,0-.68.45,2.08,2.08,0,0,0-.45.67,2.12,2.12,0,0,0-.17.83,2.09,2.09,0,0,0,.17.83,2,2,0,0,0,1.13,1.13A1.93,1.93,0,0,0,25.7,137.39Z"/><path class="cls-20" d="M33.39,138.13l-2.69-5.38a.69.69,0,0,1,0-.53.74.74,0,0,1,.36-.42.7.7,0,0,1,.53,0,.68.68,0,0,1,.42.36l2.2,4.4,2.2-4.42a.68.68,0,0,1,.42-.34.72.72,0,0,1,.54,0,.76.76,0,0,1,.35.42.75.75,0,0,1,0,.55l-3.82,7.64a3.6,3.6,0,0,1-1.29,1.42,3.42,3.42,0,0,1-1.89.54.7.7,0,0,1-.5-.2.69.69,0,0,1-.21-.51.72.72,0,0,1,.71-.71,2.24,2.24,0,0,0,.57-.08,2.32,2.32,0,0,0,.53-.24,2.53,2.53,0,0,0,.44-.33,1.49,1.49,0,0,0,.31-.4Z"/><path class="cls-20" d="M49.09,134.92a1.72,1.72,0,0,0-.14-.68,1.68,1.68,0,0,0-.38-.56,1.71,1.71,0,0,0-1.25-.53,1.74,1.74,0,0,0-.69.14,1.82,1.82,0,0,0-.56.39,1.68,1.68,0,0,0-.38.56,1.56,1.56,0,0,0-.14.68v3.2a.69.69,0,0,1-.21.5.68.68,0,0,1-.5.2.69.69,0,0,1-.51-.2.68.68,0,0,1-.2-.5v-3.2a1.72,1.72,0,0,0-.14-.68,1.87,1.87,0,0,0-.39-.56,1.82,1.82,0,0,0-.56-.39,1.74,1.74,0,0,0-.69-.14,1.81,1.81,0,0,0-.69.14,2,2,0,0,0-.56.39,1.85,1.85,0,0,0-.38.56,1.72,1.72,0,0,0-.14.68v3.2a.69.69,0,0,1-.21.5.73.73,0,0,1-1,0,.69.69,0,0,1-.21-.5v-5.68a.72.72,0,0,1,.71-.71.67.67,0,0,1,.45.16.74.74,0,0,1,.25.39,3.1,3.1,0,0,1,1.78-.55,3.05,3.05,0,0,1,1.41.33,3.48,3.48,0,0,1,1.08.86,3.33,3.33,0,0,1,1.07-.86,3.16,3.16,0,0,1,2.64-.08,3.12,3.12,0,0,1,1,.69,3,3,0,0,1,.69,1,3,3,0,0,1,.25,1.23v3.2a.72.72,0,0,1-.2.5.69.69,0,0,1-.51.2.66.66,0,0,1-.5-.2.69.69,0,0,1-.21-.5Z"/><path class="cls-20" d="M53.19,136a2.12,2.12,0,0,0,2,1.42,2.09,2.09,0,0,0,.83-.17,2.33,2.33,0,0,0,.68-.46.66.66,0,0,1,.49-.2.73.73,0,0,1,.51.2.69.69,0,0,1,.2.51.68.68,0,0,1-.2.5,3.94,3.94,0,0,1-1.13.76,3.5,3.5,0,0,1-1.38.27,3.54,3.54,0,0,1-1.38-.27,3.54,3.54,0,0,1-1.89-1.89A3.55,3.55,0,0,1,53.81,132a3.57,3.57,0,0,1,2.77,0,3.47,3.47,0,0,1,1.12.76,3.26,3.26,0,0,1,.76,1.13,3.37,3.37,0,0,1,.28,1.38.7.7,0,0,1-.21.5.66.66,0,0,1-.5.21Zm4-1.42a2,2,0,0,0-.76-1,2,2,0,0,0-1.24-.4,2,2,0,0,0-1.24.4,2.11,2.11,0,0,0-.77,1Z"/><path class="cls-20" d="M59.88,132.44a.65.65,0,0,1,.2-.5.71.71,0,0,1,1,0,.65.65,0,0,1,.2.5,4.13,4.13,0,0,1,1-.52,3.57,3.57,0,0,1,1.13-.19,3.42,3.42,0,0,1,1.39.28,3.47,3.47,0,0,1,1.12.76,3.26,3.26,0,0,1,.76,1.13,3.37,3.37,0,0,1,.28,1.38v2.84a.69.69,0,0,1-.21.5.73.73,0,0,1-1,0,.69.69,0,0,1-.21-.5v-2.84a2.19,2.19,0,0,0-.62-1.51,2.3,2.3,0,0,0-.68-.45,2.09,2.09,0,0,0-.83-.17,2.12,2.12,0,0,0-.83.17,2.25,2.25,0,0,0-.67.45,2.33,2.33,0,0,0-.46.68,2.12,2.12,0,0,0-.17.83v2.84a.68.68,0,0,1-.2.5.69.69,0,0,1-.51.2.68.68,0,0,1-.7-.7Z"/><path class="cls-20" d="M68.39,129.6a.72.72,0,0,1,.2-.5.69.69,0,0,1,.51-.21.67.67,0,0,1,.5.21.69.69,0,0,1,.21.5v2.13h1.13a.71.71,0,0,1,0,1.42H69.81v3.55a.66.66,0,0,0,.2.49.67.67,0,0,0,.51.22.66.66,0,0,0,.49-.22.69.69,0,0,1,.51-.21.66.66,0,0,1,.5.21.67.67,0,0,1,.21.5.69.69,0,0,1-.21.51,2.28,2.28,0,0,1-.67.46,2.12,2.12,0,0,1-.83.16,2.08,2.08,0,0,1-.83-.16,2.33,2.33,0,0,1-.68-.46,2.08,2.08,0,0,1-.45-.67,2,2,0,0,1-.17-.83Z"/><path class="cls-20" d="M75.21,138a.76.76,0,0,1-.22.56.78.78,0,0,1-.56.22.74.74,0,0,1-.55-.22.78.78,0,0,1,0-1.11.75.75,0,0,1,.55-.23.79.79,0,0,1,.56.23A.75.75,0,0,1,75.21,138Z"/><g class="cls-21"><path d="M21.61,22.17a8.37,8.37,0,0,1,6.6,2.76A8.78,8.78,0,0,1,30.42,31a8.79,8.79,0,0,1-2.19,6,8.4,8.4,0,0,1-6.62,2.76A8.28,8.28,0,0,1,15,37a8.86,8.86,0,0,1-2.2-6.09,8.78,8.78,0,0,1,2.18-6A8.37,8.37,0,0,1,21.61,22.17Zm0,14.62A5.41,5.41,0,0,0,25.82,35a5.69,5.69,0,0,0,1.43-3.92,5.77,5.77,0,0,0-1.45-4,5.5,5.5,0,0,0-4.33-1.82,5.41,5.41,0,0,0-4.24,1.75,5.71,5.71,0,0,0-1.4,3.9,5.86,5.86,0,0,0,1.44,4A5.41,5.41,0,0,0,21.57,36.79Z"/><path d="M38.86,36.44h4.63V39.6H32.85l7.59-11a1.66,1.66,0,0,0,.26-.9A2.77,2.77,0,0,0,40,25.93a2.53,2.53,0,0,0-1.49-1l-.32,0a1.55,1.55,0,0,0-.33,0,2.87,2.87,0,0,0-1.43.37,2.43,2.43,0,0,0-1,1.07,3.52,3.52,0,0,0-.37,1.53,3.39,3.39,0,0,0,.43,1.62A4.38,4.38,0,0,0,36,30l-1.87,1.83-.52-.53a4.76,4.76,0,0,1-.85-1.05A5.38,5.38,0,0,1,32,27.65a5.25,5.25,0,0,1,.84-2.77A10.12,10.12,0,0,1,34,23.3a4.32,4.32,0,0,1,1.55-1A5.09,5.09,0,0,1,37.45,22h.84a6.72,6.72,0,0,1,2.66.77,5.74,5.74,0,0,1,1.91,1.87,6.1,6.1,0,0,1,.76,1.61A6.35,6.35,0,0,1,43.84,28a3.62,3.62,0,0,1-.35,1.53c0,.07-.25.46-.66,1.18a29.87,29.87,0,0,1-2.06,3.19Z"/></g><line class="cls-22" x1="79.44" y1="32.32" x2="51.14" y2="32.32"/><path class="cls-23" d="M79.93,28.68h0a3.64,3.64,0,1,1-3.64,3.64A3.63,3.63,0,0,1,79.93,28.68Z"/></svg>